G04 ================== begin FILE IDENTIFICATION RECORD ==================*
G04 Layout Name:  F:/OneDrive/Projects/PCB/f1c200s/allegro/f1c200s.brd*
G04 Film Name:    01_TOP*
G04 File Format:  Gerber RS274X*
G04 File Origin:  Cadence Allegro 17.4-S037*
G04 Origin Date:  Fri Jun 21 00:18:07 2024*
G04 *
G04 Layer:  BOARD GEOMETRY/DESIGN_OUTLINE*
G04 Layer:  ETCH/TOP*
G04 Layer:  PIN/TOP*
G04 Layer:  VIA CLASS/TOP*
G04 *
G04 Offset:    (0.000 0.000)*
G04 Mirror:    No*
G04 Mode:      Positive*
G04 Rotation:  0*
G04 FullContactRelief:  No*
G04 UndefLineWidth:     5.000*
G04 ================== end FILE IDENTIFICATION RECORD ====================*
%FSLAX25Y25*MOIN*%
%IR0*IPPOS*OFA0.00000B0.00000*MIA0B0*SFA1.00000B1.00000*%
%ADD35C,.122*%
%ADD10C,.126*%
%ADD32R,.007902X.0315*%
%ADD30R,.0315X.007902*%
%ADD23R,.023598X.007902*%
%ADD21R,.007902X.023598*%
%ADD34R,.265799X.265799*%
%ADD42R,.196799X.196799*%
%ADD11C,.03*%
%ADD33C,.024*%
%ADD25R,.0535X.060201*%
%ADD41R,.060201X.0535*%
%ADD26R,.035402X.0315*%
%ADD27O,.022X.068701*%
%ADD15R,.0315X.035402*%
%ADD13R,.0555X.053201*%
%ADD19R,.0315X.0315*%
%ADD17O,.047201X.070902*%
%ADD38C,.070902*%
%ADD40R,.037402X.082701*%
%ADD39R,.082701X.037402*%
%ADD18O,.047201X.078701*%
%ADD14R,.05512X.08346*%
%ADD24R,.034X.031799*%
%ADD43C,.066902*%
%ADD20R,.011799X.051201*%
%ADD12R,.031799X.034*%
%ADD36R,.070902X.070902*%
%ADD31R,.055098X.047201*%
%ADD29R,.011799X.049201*%
%ADD22R,.066902X.066902*%
%ADD37C,.059098*%
%ADD28R,.078701X.098402*%
%ADD16R,.023598X.042098*%
%ADD44C,.005*%
%ADD45C,.008*%
%ADD46C,.01*%
%ADD52C,.132004*%
%ADD47C,.136004*%
%ADD51C,.040004*%
%ADD50C,.069102*%
%ADD53C,.053344*%
%ADD48C,.080906*%
%ADD49C,.076906*%
%ADD54O,.057204X.088704*%
G75*
%LPD*%
G75*
G36*
G01X0Y231220D02*
G02X5000Y236220I5000J0D01*
G01X309961D01*
G02X314961Y231220I0J-5000D01*
G01Y5000D01*
G02X309961Y0I-5000J0D01*
G01X5000D01*
G02X0Y5000I0J5000D01*
G01Y231220D01*
G37*
%LPC*%
G75*
G36*
G01X171050Y195833D02*
G03X171708Y195527I400J0D01*
G02X173000Y196000I1292J-1527D01*
G02X175000Y194000I0J-2000D01*
G02X173750Y192146I-2000J0D01*
G01Y181777D01*
G03X174433Y181494I400J0D01*
G01X176789Y183850D01*
Y184146D01*
G02X175539Y186000I750J1854D01*
G02X179539I2000J0D01*
G02X178289Y184146I-2000J0D01*
G01Y183539D01*
G02X178070Y183009I-750J0D01*
G01X163250Y168189D01*
Y166738D01*
G03X163933Y166455I400J0D01*
G01X179194Y181716D01*
X179152Y181835D01*
G02X179039Y182500I1887J665D01*
G02X181039Y184500I2000J0D01*
G02X182497Y183869I0J-2000D01*
G03X183081I292J274D01*
G02X185997I1458J-1369D01*
G03X186581I292J274D01*
G02X188039Y184500I1458J-1369D01*
G02Y180500I0J-2000D01*
G02X187374Y180614I0J2000D01*
G01X187255Y180655D01*
X179533Y172933D01*
G03X179816Y172250I283J-283D01*
G01X183646D01*
G02X185500Y173500I1854J-750D01*
G02Y169500I0J-2000D01*
G02X183646Y170750I0J2000D01*
G01X178811D01*
X167250Y159189D01*
Y151319D01*
X171270D01*
G02X171770Y150819I0J-500D01*
G01Y150244D01*
X174230D01*
Y150819D01*
G02X174730Y151319I500J0D01*
G01X178270D01*
G02X178770Y150819I0J-500D01*
G01Y150244D01*
X181012D01*
G02X182744Y151244I1732J-1000D01*
G02Y147244I0J-2000D01*
G02X181012Y148244I0J2000D01*
G01X178770D01*
Y147669D01*
G02X178270Y147169I-500J0D01*
G01X174730D01*
G02X174252Y147522I0J500D01*
G03X173500Y147557I-382J-118D01*
G01Y145500D01*
G02X173207Y144793I-1000J0D01*
G01X170311Y141897D01*
Y139760D01*
X172856D01*
G02X173136Y139674I0J-500D01*
G03X173360I112J166D01*
G02X173640Y139760I280J-415D01*
G01X174430D01*
G02X174930Y139260I0J-500D01*
G01Y136110D01*
G02X174430Y135610I-500J0D01*
G01X173640D01*
G02X173360Y135696I0J500D01*
G03X173136I-112J-166D01*
G02X172856Y135610I-280J415D01*
G01X165766D01*
G02X165486Y135696I0J500D01*
G03X165262I-112J-166D01*
G02X164982Y135610I-280J415D01*
G01X157892D01*
G02X157612Y135696I0J500D01*
G03X157388I-112J-166D01*
G02X157108Y135610I-280J415D01*
G01X150018D01*
G02X149738Y135696I0J500D01*
G03X149514I-112J-166D01*
G02X149234Y135610I-280J415D01*
G01X143719D01*
G02X143439Y135696I0J500D01*
G03X143214I-112J-166D01*
G02X142934Y135610I-280J414D01*
G01X140570D01*
G02X140070Y136110I0J500D01*
G01Y137237D01*
X140052Y137276D01*
G02X139965Y137685I913J409D01*
G01Y146560D01*
X139683Y146842D01*
G03X139000Y146559I-283J-283D01*
G01Y144823D01*
G02X139500Y143500I-1500J-1323D01*
G02X135500I-2000J0D01*
G02X136863Y145396I2000J0D01*
G01X137000Y145442D01*
Y147669D01*
X136230D01*
G02X135730Y148169I0J500D01*
G01Y151319D01*
G02X136230Y151819I500J0D01*
G01X139770D01*
G02X140270Y151319I0J-500D01*
G01Y149083D01*
X141106Y148248D01*
G03X141789Y148530I283J283D01*
G01Y167479D01*
G03X141073Y167724I-400J0D01*
G02X139492Y166949I-1581J1225D01*
G02X138827Y167063I0J2000D01*
G01X138708Y167105D01*
X133750Y162147D01*
Y137336D01*
X135801Y135285D01*
X135888D01*
G02X136240Y135430I352J-355D01*
G01X139390D01*
G02X139890Y134930I0J-500D01*
G01Y134140D01*
G02X139805Y133860I-500J0D01*
G03Y133636I166J-112D01*
G02X139890Y133356I-415J-280D01*
G01Y132566D01*
G02X139804Y132286I-500J0D01*
G03Y132061I166J-112D01*
G02X139890Y131781I-414J-280D01*
G01Y130991D01*
G02X139804Y130711I-500J0D01*
G03Y130486I166J-112D01*
G02X139890Y130206I-414J-280D01*
G01Y129416D01*
G02X139804Y129136I-500J0D01*
G03Y128911I166J-112D01*
G02X139890Y128631I-414J-280D01*
G01Y127841D01*
G02X139804Y127561I-500J0D01*
G03Y127336I166J-112D01*
G02X139890Y127056I-414J-280D01*
G01Y126266D01*
G02X139805Y125986I-500J0D01*
G03Y125762I166J-112D01*
G02X139890Y125482I-415J-280D01*
G01Y124500D01*
X140000D01*
Y113289D01*
G03X140610Y112948I400J0D01*
G02X141500Y113200I890J-1448D01*
G02X143200Y111500I0J-1700D01*
G02X142250Y109974I-1700J0D01*
G02X142031Y109470I-750J26D01*
G01X141575Y109014D01*
G03X141642Y108395I283J-283D01*
G02X141766Y108294I-405J-631D01*
G01X142120Y107941D01*
G02X142307Y107631I-531J-530D01*
G02X143290Y106090I-717J-1542D01*
G02X141590Y104389I-1700J0D01*
G02X140538Y104754I0J1700D01*
G03X139890Y104440I-247J-314D01*
G01Y103789D01*
X140961D01*
G02X141331Y103692I0J-750D01*
G02X141499Y103700I169J-1692D01*
G01X141500D01*
G02X143200Y102000I0J-1700D01*
G02X142868Y100991I-1700J0D01*
G03X143076Y100370I322J-237D01*
G02X143214Y100304I-142J-480D01*
G03X143439I112J166D01*
G02X143719Y100390I280J-414D01*
G01X148000D01*
Y100725D01*
G02X148341Y100866I200J0D01*
G01X148817Y100390D01*
X149234D01*
G02X149514Y100304I0J-500D01*
G03X149738I112J166D01*
G02X150018Y100390I280J-415D01*
G01X157108D01*
G02X157388Y100304I0J-500D01*
G03X157612I112J166D01*
G02X157892Y100390I280J-415D01*
G01X164982D01*
G02X165262Y100304I0J-500D01*
G03X165486I112J166D01*
G02X165766Y100390I280J-415D01*
G01X172856D01*
G02X173136Y100304I0J-500D01*
G03X173360I112J166D01*
G02X173640Y100390I280J-415D01*
G01X174430D01*
G02X174524Y100381I0J-500D01*
G03X175000Y100774I75J393D01*
G01Y102500D01*
X175110D01*
Y103434D01*
G02X175196Y103714I500J0D01*
G03Y103939I-166J112D01*
G02X175110Y104219I414J280D01*
G01Y105009D01*
G02X175196Y105289I500J0D01*
G03Y105514I-166J112D01*
G02X175110Y105794I414J280D01*
G01Y106584D01*
G02X175196Y106864I500J0D01*
G03Y107089I-166J112D01*
G02X175110Y107369I414J280D01*
G01Y108159D01*
G02X175196Y108439I500J0D01*
G03Y108664I-166J112D01*
G02X175110Y108944I414J280D01*
G01Y109913D01*
X174610D01*
G02X173903Y110206I0J1000D01*
G01X172083Y112026D01*
G02X171790Y112733I707J707D01*
G01Y120768D01*
G02X170790Y122500I1000J1732D01*
G02X172790Y124500I2000J0D01*
G02X174717Y123036I0J-2000D01*
G01X174758Y122889D01*
X175110D01*
Y123907D01*
G02X175610Y124407I500J0D01*
G01X178760D01*
G02X179065Y124304I0J-500D01*
G01X179119Y124262D01*
X180701D01*
X181667Y125228D01*
G03X181384Y125911I-283J283D01*
G01X179119D01*
X179065Y125869D01*
G02X178760Y125766I-305J396D01*
G01X175610D01*
G02X175110Y126266I0J500D01*
G01Y127056D01*
G02X175196Y127336I500J0D01*
G03Y127561I-166J112D01*
G02X175110Y127841I414J280D01*
G01Y128631D01*
G02X175196Y128911I500J0D01*
G03Y129136I-166J112D01*
G02X175110Y129416I414J280D01*
G01Y130206D01*
G02X175196Y130486I500J0D01*
G03Y130711I-166J112D01*
G02X175110Y130991I414J280D01*
G01Y131781D01*
G02X175196Y132061I500J0D01*
G03Y132286I-166J112D01*
G02X175110Y132566I414J280D01*
G01Y133356D01*
G02X175196Y133636I500J0D01*
G03Y133860I-166J112D01*
G02X175110Y134140I415J280D01*
G01Y134930D01*
G02X175610Y135430I500J0D01*
G01X178760D01*
G02X179260Y134930I0J-500D01*
G01Y134140D01*
G02X179174Y133860I-500J0D01*
G03Y133636I166J-112D01*
G02X179260Y133356I-415J-280D01*
G01Y132566D01*
G02X179174Y132286I-500J0D01*
G03Y132061I166J-112D01*
G02X179260Y131781I-414J-280D01*
G01Y130991D01*
G02X179174Y130711I-500J0D01*
G03Y130486I166J-112D01*
G02X179260Y130206I-414J-280D01*
G01Y129416D01*
G02X179174Y129136I-500J0D01*
G03Y128911I166J-112D01*
G02X179260Y128631I-414J-280D01*
G01Y127411D01*
X195086D01*
X198949Y131274D01*
G02X199480Y131494I531J-531D01*
G01X199730D01*
Y132319D01*
G02X200230Y132819I500J0D01*
G01X203770D01*
G02X204270Y132319I0J-500D01*
G01Y132176D01*
G03X204719Y131779I400J0D01*
G02X204810Y131784I91J-745D01*
G01X206300D01*
Y132624D01*
G02X206800Y133124I500J0D01*
G01X210200D01*
G02X210700Y132624I0J-500D01*
G01Y129444D01*
G02X210200Y128944I-500J0D01*
G01X206800D01*
G02X206300Y129444I0J500D01*
G01Y130284D01*
X205121D01*
X205051Y130214D01*
G02X204520Y129994I-530J531D01*
G01X204270D01*
Y129169D01*
G02X203770Y128669I-500J0D01*
G01X200230D01*
G02X199740Y129067I0J500D01*
G03X199066Y129269I-392J-81D01*
G01X195927Y126131D01*
G02X195768Y126009I-530J531D01*
G03X195683Y125378I198J-348D01*
G01X196555Y124506D01*
X199730D01*
Y125331D01*
G02X200230Y125831I500J0D01*
G01X203770D01*
G02X204270Y125331I0J-500D01*
G01Y124506D01*
X205760D01*
G02X205851Y124501I0J-750D01*
G03X206300Y124898I49J397D01*
G01Y125056D01*
G02X206800Y125556I500J0D01*
G01X210200D01*
G02X210700Y125056I0J-500D01*
G01Y121876D01*
G02X210200Y121376I-500J0D01*
G01X206800D01*
G02X206300Y121876I0J500D01*
G01Y122716D01*
X206050D01*
G02X205520Y122936I0J750D01*
G01X205449Y123006D01*
X204270D01*
Y122181D01*
G02X203770Y121681I-500J0D01*
G01X200230D01*
G02X199730Y122181I0J500D01*
G01Y123006D01*
X196244D01*
G02X195714Y123226I0J750D01*
G01X194189Y124750D01*
X183311D01*
X181238Y122677D01*
X181914Y122000D01*
X183169D01*
Y122770D01*
G02X183669Y123270I500J0D01*
G01X186819D01*
G02X187319Y122770I0J-500D01*
G01Y119230D01*
X192488D01*
X192508Y119234D01*
G02X192662Y119250I154J-734D01*
G01X197000D01*
G02X197530Y119031I0J-750D01*
G01X203031Y113530D01*
G02X203250Y113000I-531J-530D01*
G01Y111331D01*
X204270D01*
G02X204770Y110831I0J-500D01*
G01Y110550D01*
G03X205112Y110409I200J0D01*
G01X205234Y110530D01*
G02X205764Y110750I531J-531D01*
G01X207169D01*
Y111770D01*
G02X207669Y112270I500J0D01*
G01X211250D01*
Y113913D01*
G02X211470Y114443I750J0D01*
G01X215045Y118018D01*
G02X215575Y118238I530J-531D01*
G01X215825D01*
Y120498D01*
G02X216325Y120998I500J0D01*
G01X221675D01*
G02X222175Y120498I0J-500D01*
G01Y114478D01*
G02X221675Y113978I-500J0D01*
G01X216325D01*
G02X215825Y114478I0J500D01*
G01Y115711D01*
G03X215142Y115994I-400J0D01*
G01X212750Y113602D01*
Y100500D01*
G02X212530Y99970I-750J0D01*
G01X212030Y99470D01*
G02X211500Y99250I-530J531D01*
G01X209777D01*
G03X209494Y98567I0J-400D01*
G01X217530Y90530D01*
G02X217750Y90000I-531J-530D01*
G01Y70311D01*
X219811Y68250D01*
X240062D01*
G02X240593Y68030I0J-750D01*
G01X242093Y66530D01*
G02X242312Y66000I-531J-530D01*
G01Y55248D01*
X243142Y54418D01*
X243275Y54494D01*
G02X244999Y54955I1724J-2994D01*
G02X241544Y51500I0J-3455D01*
G02X242084Y53354I3455J0D01*
G01X241062Y54376D01*
X240040Y53354D01*
G02X240580Y51500I-2915J-1854D01*
G02X237125Y54955I-3455J0D01*
G02X238849Y54494I0J-3455D01*
G01X238982Y54418D01*
X239812Y55248D01*
Y65275D01*
X239337Y65750D01*
X219086D01*
G02X218555Y65970I0J750D01*
G01X215545Y68980D01*
G03X214885Y68831I-283J-283D01*
G02X214369Y68042I-1885J669D01*
G03Y67458I274J-292D01*
G02Y64542I-1369J-1458D01*
G03Y63958I274J-292D01*
G02Y61042I-1369J-1458D01*
G03Y60458I274J-292D01*
G02X215000Y59000I-1369J-1458D01*
G02X213000Y57000I-2000J0D01*
G02X211146Y58250I0J2000D01*
G01X210750D01*
G02X210220Y58470I0J750D01*
G01X199933Y68756D01*
G03X199250Y68473I-283J-283D01*
G01Y61500D01*
G02X199031Y60970I-750J0D01*
G01X195031Y56970D01*
G02X194500Y56750I-531J531D01*
G01X180651D01*
X180015Y56114D01*
X180057Y55995D01*
G02X180170Y55330I-1887J-665D01*
G02X178170Y53330I-2000J0D01*
G02X176364Y54471I0J2000D01*
G03X175642Y54473I-361J-172D01*
G02X173839Y53339I-1803J866D01*
G02Y57339I0J2000D01*
G02X174504Y57225I0J-2000D01*
G01X174623Y57184D01*
X175506Y58067D01*
G03X175223Y58750I-283J283D01*
G01X168665D01*
X167022Y57107D01*
X167064Y56988D01*
G02X167177Y56323I-1887J-665D01*
G02X165177Y58323I-2000J0D01*
G02X165842Y58210I0J-2000D01*
G01X165961Y58168D01*
X166860Y59067D01*
G03X166577Y59750I-283J283D01*
G01X160843D01*
X158361Y57268D01*
X158402Y57149D01*
G02X158516Y56484I-1887J-665D01*
G02X156516Y54484I-2000J0D01*
G02X154745Y55554I0J2000D01*
G03X154023Y55526I-354J-186D01*
G02X152185Y54315I-1838J789D01*
G02X150373Y55468I0J2000D01*
G03X149651Y55475I-362J-169D01*
G02X147855Y54355I-1796J880D01*
G02Y58355I0J2000D01*
G02X148520Y58242I0J-2000D01*
G01X148639Y58200D01*
X153470Y63030D01*
G02X154000Y63250I531J-531D01*
G01X165189D01*
X166200Y64261D01*
G03X165917Y64944I-283J283D01*
G01X163300D01*
G02X162800Y65444I0J500D01*
G01Y68624D01*
G02X163300Y69124I500J0D01*
G01X166700D01*
G02X167194Y68703I0J-500D01*
G01X167204Y68640D01*
X167391Y68452D01*
X167750Y68811D01*
Y81689D01*
X167689Y81750D01*
X167000D01*
G02X166469Y81970I0J750D01*
G01X153571Y94868D01*
G03X152888Y94585I-283J-283D01*
G01Y90299D01*
X153881Y89307D01*
G02X154144Y88670I-636J-637D01*
G01Y88270D01*
X154819D01*
G02X155319Y87770I0J-500D01*
G01Y84230D01*
G02X154819Y83730I-500J0D01*
G01X154144D01*
Y82593D01*
X154160Y82556D01*
G02X154231Y82205I-829J-351D01*
G01Y81805D01*
X156086D01*
G02X156586Y81305I0J-500D01*
G01Y76585D01*
G02X156086Y76085I-500J0D01*
G01X150576D01*
G02X150076Y76585I0J500D01*
G01Y81305D01*
G02X150576Y81805I500J0D01*
G01X152344D01*
Y83730D01*
X151669D01*
G02X151169Y84230I0J500D01*
G01Y87770D01*
G02X151539Y88253I500J0D01*
G03X151719Y88922I-104J386D01*
G01X151352Y89290D01*
G02X151152Y89591I636J637D01*
G03X150498Y89725I-371J-149D01*
G01X149636Y88864D01*
G02X149000Y88600I-637J636D01*
G01X148622D01*
G03X148270Y88009I0J-400D01*
G02X148331Y87770I-439J-239D01*
G01Y85003D01*
X149104Y84230D01*
G02X149368Y83594I-636J-637D01*
G01Y75459D01*
G02X149104Y74822I-900J0D01*
G01X147924Y73642D01*
Y69695D01*
G02X147424Y69195I-500J0D01*
G01X141914D01*
G02X141414Y69695I0J500D01*
G01Y74415D01*
G02X141914Y74915I500J0D01*
G01X146651D01*
X147567Y75832D01*
Y83221D01*
X147058Y83730D01*
X144681D01*
G02X144181Y84230I0J500D01*
G01Y87770D01*
G02X144681Y88270I500J0D01*
G01X145356D01*
Y88670D01*
G02X145620Y89307I900J0D01*
G01X146449Y90137D01*
G02X147086Y90400I637J-636D01*
G01X148627D01*
X149513Y91286D01*
Y93633D01*
G03X148830Y93916I-400J0D01*
G01X144242Y89328D01*
G02X144171Y89263I-708J706D01*
G01X144135Y89233D01*
G02X143742Y89034I-636J772D01*
G01X143722Y89029D01*
X143661Y89000D01*
X138707D01*
X137500Y87793D01*
Y76293D01*
X136707Y75500D01*
X129750D01*
Y40500D01*
G02X129531Y39970I-750J0D01*
G01X129030Y39470D01*
G02X128500Y39250I-531J531D01*
G01X119811D01*
X118750Y38189D01*
Y35558D01*
G02X119600Y34144I-750J-1413D01*
G01Y29474D01*
G02X116400I-1600J0D01*
G01Y34144D01*
G02X117250Y35558I1600J0D01*
G01Y38500D01*
G02X117470Y39030I750J0D01*
G01X118006Y39567D01*
G03X117723Y40250I-283J283D01*
G01X114311D01*
X113750Y39689D01*
Y35558D01*
G02X114600Y34144I-750J-1413D01*
G01Y29474D01*
G02X111400I-1600J0D01*
G01Y34144D01*
G02X112250Y35558I1600J0D01*
G01Y40000D01*
G02X112470Y40530I750J0D01*
G01X113470Y41530D01*
G02X114000Y41750I531J-531D01*
G01X127189D01*
X127250Y41811D01*
Y82300D01*
X126284D01*
Y80340D01*
G02X126064Y79810I-750J0D01*
G01X125653Y79398D01*
G03X125794Y79056I141J-141D01*
G01X126200D01*
G02X126700Y78556I0J-500D01*
G01Y75376D01*
G02X126200Y74876I-500J0D01*
G01X122800D01*
G02X122300Y75376I0J500D01*
G01Y78556D01*
G02X122800Y79056I500J0D01*
G01X123750D01*
Y79306D01*
G02X123970Y79836I750J0D01*
G01X124784Y80651D01*
Y82300D01*
X123750D01*
Y81500D01*
G02X123531Y80970I-750J0D01*
G01X122531Y79970D01*
G02X122000Y79750I-531J531D01*
G01X117311D01*
X115845Y78284D01*
X115886Y78165D01*
G02X116000Y77500I-1887J-665D01*
G02X114000Y79500I-2000J0D01*
G02X114665Y79386I0J-2000D01*
G01X114784Y79345D01*
X115847Y80408D01*
G03X115706Y80750I-141J141D01*
G01X115564D01*
X115504Y80682D01*
G02X114000Y80000I-1504J1318D01*
G02Y84000I0J2000D01*
G02X115958Y82409I0J-2000D01*
G01X115991Y82250D01*
X121189D01*
X121250Y82311D01*
Y87000D01*
X95207D01*
X95000Y86793D01*
Y82293D01*
X94890Y82183D01*
G03X95173Y81500I283J-283D01*
G01X99707D01*
X100500Y80707D01*
Y76293D01*
X99707Y75500D01*
X81834D01*
X81676Y75342D01*
G03X81817Y75000I141J-141D01*
G01X99707D01*
X100500Y74207D01*
Y68793D01*
X99707Y68000D01*
X94500D01*
Y44293D01*
X92707Y42500D01*
X73793D01*
X73000Y43293D01*
Y71207D01*
X73134Y71341D01*
G03X72851Y72024I-283J283D01*
G01X54406D01*
G02X54321Y72028I0J900D01*
G01X54312Y72029D01*
X53226D01*
G02X52726Y72529I0J500D01*
G01Y73319D01*
G02X52812Y73599I500J0D01*
G03Y73824I-166J112D01*
G02X52726Y74104I414J280D01*
G01Y74894D01*
G02X53226Y75394I500J0D01*
G01X54312D01*
X54321Y75395D01*
G02X54406Y75399I85J-896D01*
G01X72500D01*
Y137707D01*
X73293Y138500D01*
X116367D01*
G03X116722Y139084I0J400D01*
G02X116500Y140000I1778J916D01*
G02X116613Y140665I2000J0D01*
G01X116655Y140784D01*
X110969Y146470D01*
G02X110750Y147000I531J531D01*
G01Y178300D01*
X107444D01*
G02X107044Y178500I0J500D01*
G01X102000D01*
G02Y182500I0J2000D01*
G01X107034D01*
Y184500D01*
X101500D01*
G02Y188500I0J2000D01*
G01X107034D01*
Y190500D01*
X101500D01*
G02Y194500I0J2000D01*
G01X107034D01*
Y196500D01*
X101500D01*
G02Y200500I0J2000D01*
G01X107044D01*
G02X107444Y200700I400J-300D01*
G01X110624D01*
G02X111124Y200200I0J-500D01*
G01Y196800D01*
G02X111060Y196555I-500J0D01*
G01X111034Y196509D01*
Y194491D01*
X111060Y194445D01*
G02X111124Y194200I-436J-245D01*
G01Y190800D01*
G02X111060Y190555I-500J0D01*
G01X111034Y190509D01*
Y190002D01*
G03X111376Y189861I200J0D01*
G01X112876Y191361D01*
Y194200D01*
G02X113376Y194700I500J0D01*
G01X116556D01*
G02X117056Y194200I0J-500D01*
G01Y193250D01*
X121689D01*
X122302Y193863D01*
Y209509D01*
X121833D01*
Y200583D01*
G02X121614Y200052I-750J0D01*
G01X119530Y197970D01*
G02X119000Y197750I-531J531D01*
G01X117056D01*
Y196800D01*
G02X116556Y196300I-500J0D01*
G01X113376D01*
G02X112876Y196800I0J500D01*
G01Y200200D01*
G02X113376Y200700I500J0D01*
G01X116556D01*
G02X117056Y200200I0J-500D01*
G01Y199250D01*
X118689D01*
X120333Y200894D01*
Y205223D01*
G03X119650Y205506I-400J0D01*
G01X118614Y204470D01*
G02X118083Y204250I-530J531D01*
G01X116831D01*
Y203230D01*
G02X116331Y202730I-500J0D01*
G01X113181D01*
G02X112681Y203230I0J500D01*
G01Y206770D01*
G02X112730Y206987I500J0D01*
G01X112750Y207028D01*
Y207646D01*
G02X111500Y209500I750J1854D01*
G02X112195Y211016I2000J0D01*
G03X111934Y211719I-261J303D01*
G01X111531D01*
G02X111001Y211939I0J750D01*
G01X109784Y213155D01*
X109665Y213114D01*
G02X109000Y213000I-665J1887D01*
G02X111000Y215000I0J2000D01*
G02X110886Y214335I-2000J0D01*
G01X110845Y214216D01*
X111842Y213219D01*
X118024D01*
Y214929D01*
G02X118524Y215429I500J0D01*
G01X123642D01*
G02X123924Y215342I0J-500D01*
G03X124150I113J165D01*
G02X124432Y215429I282J-413D01*
G01X132148D01*
Y216024D01*
X132089Y216082D01*
G02X131500Y217500I1411J1418D01*
G02X135500I2000J0D01*
G02X134936Y216108I-2000J0D01*
G03X135223Y215429I287J-278D01*
G01X137426D01*
G02X137708Y215342I0J-500D01*
G03X137934I113J165D01*
G02X138216Y215429I282J-413D01*
G01X139396D01*
G02X139896Y214929I0J-500D01*
G01Y210009D01*
G02X139653Y209580I-500J0D01*
G01X139556Y209522D01*
Y208687D01*
X139781Y208463D01*
G02X140000Y207932I-531J-530D01*
G01Y206068D01*
G02X139781Y205537I-750J0D01*
G01X137816Y203573D01*
G03X137832Y202992I283J-283D01*
G02X137958Y202869I-1333J-1491D01*
G03X138542I292J274D01*
G02X140000Y203500I1458J-1369D01*
G02X140665Y203386I0J-2000D01*
G01X140784Y203345D01*
X141994Y204555D01*
Y209522D01*
X141897Y209580D01*
G02X141654Y210009I257J429D01*
G01Y214929D01*
G02X142154Y215429I500J0D01*
G01X145303D01*
G02X145587Y215341I0J-500D01*
G03X145813Y215339I114J164D01*
G02X146092Y215424I279J-415D01*
G01X147272D01*
G02X147553Y215338I0J-500D01*
G03X147778Y215339I112J166D01*
G02X148061Y215426I283J-413D01*
G01X149241D01*
G02X149520Y215341I0J-500D01*
G03X149746Y215342I112J166D01*
G02X150029Y215430I283J-412D01*
G01X151209D01*
G02X151491Y215343I0J-500D01*
G03X151716Y215343I113J165D01*
G02X151997Y215429I281J-414D01*
G01X153805D01*
Y219438D01*
G02X153500Y220500I1695J1062D01*
G02X157500I2000J0D01*
G02X157432Y219982I-2000J0D01*
G03X157765Y219482I386J-104D01*
G02X159008Y218814I-265J-1983D01*
G03X159710Y219076I302J263D01*
G01Y220710D01*
G02X159741Y220925I750J0D01*
G01X159750Y220953D01*
Y221146D01*
G02X158500Y223000I750J1854D01*
G02X162500I2000J0D01*
G02X161250Y221146I-2000J0D01*
G01Y220750D01*
G02X161219Y220535I-750J0D01*
G01X161210Y220507D01*
Y215417D01*
X166954D01*
G02X167237Y215329I0J-500D01*
G03X167462Y215329I113J165D01*
G02X167742Y215414I280J-415D01*
G01X168922D01*
G02X169204Y215327I0J-500D01*
G03X169429Y215327I113J165D01*
G02X169710Y215413I281J-414D01*
G01X170890D01*
G02X171170Y215328I0J-500D01*
G03X171395Y215329I112J166D01*
G02X171679Y215417I284J-412D01*
G01X172859D01*
G02X173141Y215330I0J-500D01*
G03X173366Y215330I113J165D01*
G02X173647Y215416I281J-414D01*
G01X174827D01*
G02X175327Y214916I0J-500D01*
G01Y210282D01*
X176030Y209579D01*
G02X176250Y209048I-531J-530D01*
G01Y205500D01*
G02X176030Y204970I-750J0D01*
G01X175250Y204189D01*
Y202854D01*
G02X176500Y201000I-750J-1854D01*
G02X172500I-2000J0D01*
G02X173750Y202854I2000J0D01*
G01Y204500D01*
G02X173970Y205030I750J0D01*
G01X174750Y205811D01*
Y206015D01*
G03X174125Y206346I-400J0D01*
G02X173000Y206000I-1125J1654D01*
G02X171708Y206473I0J2000D01*
G03X171050Y206167I-258J-305D01*
G01Y195833D01*
G37*
G36*
G01X96400Y34144D02*
G02X99600I1600J0D01*
G01Y29474D01*
G02X98978Y28207I-1600J0D01*
G01X98900Y28147D01*
Y27847D01*
X100500Y26247D01*
X102100Y27847D01*
Y28147D01*
X102022Y28207D01*
G02X101400Y29474I978J1267D01*
G01Y34144D01*
G02X104600I1600J0D01*
G01Y29474D01*
G02X103900Y28151I-1600J0D01*
G01Y27474D01*
G02X103636Y26838I-900J0D01*
G01X102050Y25251D01*
Y18462D01*
G02X101786Y17825I-900J0D01*
G01X99325Y15364D01*
G02X98689Y15100I-637J636D01*
G01X51762D01*
G02X51125Y15364I0J900D01*
G01X49310Y17178D01*
G02X49047Y17815I636J637D01*
G01Y22914D01*
G03X48464Y23269I-400J0D01*
G02X47547Y23047I-916J1778D01*
G02X45642Y24438I0J2000D01*
G03X44978Y24599I-381J-122D01*
G01X40672Y20293D01*
G02X39964Y20000I-707J707D01*
G01X28056D01*
Y19300D01*
G02X27556Y18800I-500J0D01*
G01X24376D01*
G02X23876Y19300I0J500D01*
G01Y22700D01*
G02X24376Y23200I500J0D01*
G01X27556D01*
G02X28056Y22700I0J-500D01*
G01Y22000D01*
X39550D01*
X43315Y25765D01*
G03X43032Y26448I-283J283D01*
G01X43020D01*
G02X42831Y26485I0J500D01*
G01X42794Y26500D01*
X42458D01*
X42421Y26485D01*
G02X42232Y26448I-189J463D01*
G01X41068D01*
G03X40726Y25840I0J-400D01*
G02X41001Y24861I-1604J-978D01*
G02X37243Y24861I-1879J0D01*
G02X38997Y26736I1879J0D01*
G03X39371Y27135I-27J399D01*
G01Y32068D01*
G02X39463Y32357I500J0D01*
G01X39500Y32409D01*
Y32793D01*
X39293Y33000D01*
X37293D01*
X36000Y34293D01*
Y41793D01*
X35793Y42000D01*
X32293D01*
X31500Y42793D01*
Y51207D01*
X32793Y52500D01*
X36793D01*
X37500Y53207D01*
Y59207D01*
X38293Y60000D01*
X39793D01*
X40000Y60207D01*
Y66207D01*
X40793Y67000D01*
X43293D01*
X44456Y68163D01*
Y69774D01*
G02X44487Y69949I500J0D01*
G01X44500Y69982D01*
Y70500D01*
X46500D01*
Y67207D01*
X46817Y66890D01*
G03X47500Y67173I283J283D01*
G01Y68594D01*
G02X47587Y69003I1000J0D01*
G01X47605Y69042D01*
Y69774D01*
G02X48105Y70274I500J0D01*
G01X49000D01*
Y70500D01*
X52707D01*
X67000Y56207D01*
Y46293D01*
X66207Y45500D01*
X67000Y44707D01*
Y41293D01*
X63500Y37793D01*
Y34793D01*
X62000Y33293D01*
Y26744D01*
X62169Y26717D01*
G02X63756Y24861I-292J-1856D01*
G02X59998I-1879J0D01*
G02X60272Y25839I1879J0D01*
G03X59930Y26447I-342J208D01*
G01X58390D01*
Y24024D01*
X60414Y22000D01*
X72444D01*
Y22700D01*
G02X72944Y23200I500J0D01*
G01X76124D01*
G02X76624Y22700I0J-500D01*
G01Y19300D01*
G02X76124Y18800I-500J0D01*
G01X72944D01*
G02X72444Y19300I0J500D01*
G01Y20000D01*
X60000D01*
G02X59293Y20293I0J1000D01*
G01X56912Y22674D01*
G03X56274Y22576I-283J-283D01*
G02X54500Y21500I-1774J924D01*
G02X52873Y22337I0J2000D01*
G03X52147Y22104I-325J-233D01*
G01Y18726D01*
X52673Y18200D01*
X97777D01*
X98950Y19373D01*
Y25251D01*
X97364Y26838D01*
G02X97100Y27474I636J637D01*
G01Y28151D01*
G02X96400Y29474I900J1323D01*
G01Y34144D01*
G37*
G36*
G01X30793Y106000D02*
X36327D01*
G03X36610Y106683I0J400D01*
G01X36546Y106746D01*
X36506Y106761D01*
G02X36212Y107055I175J468D01*
G01X36197Y107095D01*
X35000Y108293D01*
Y111793D01*
X34793Y112000D01*
X32793D01*
X32000Y112793D01*
Y120793D01*
X31793Y121000D01*
X24293D01*
X23500Y121793D01*
Y141207D01*
X24293Y142000D01*
X33207D01*
X34000Y141207D01*
Y136707D01*
X34707Y136000D01*
X61707D01*
X63000Y134707D01*
Y112793D01*
X62207Y112000D01*
X60207D01*
X60000Y111793D01*
Y107793D01*
X59390Y107183D01*
G03X59673Y106500I283J-283D01*
G01X64707D01*
X65500Y105707D01*
Y87793D01*
X56707Y79000D01*
X52504D01*
X52444Y78921D01*
G02X52046Y78725I-397J304D01*
G01X51000D01*
Y78500D01*
X49000D01*
Y78725D01*
X48106D01*
G02X47826Y78811I0J500D01*
G03X47602I-112J-166D01*
G02X47322Y78725I-280J415D01*
G01X46145D01*
X45920Y78500D01*
X44500D01*
Y76500D01*
X40793D01*
X30000Y87293D01*
Y105207D01*
X30793Y106000D01*
G37*
G36*
G01X228750Y142433D02*
X234189Y136994D01*
G03X234872Y137277I283J283D01*
G01Y137370D01*
G02X235372Y137870I500J0D01*
G01X243642D01*
G02X244142Y137370I0J-500D01*
G01Y133630D01*
G02X243999Y133280I-500J0D01*
G03Y132720I286J-280D01*
G02X244142Y132370I-357J-350D01*
G01Y128630D01*
G02X243999Y128280I-500J0D01*
G03Y127720I286J-280D01*
G02X244142Y127370I-357J-350D01*
G01Y123630D01*
G02X243999Y123280I-500J0D01*
G03Y122720I286J-280D01*
G02X244142Y122370I-357J-350D01*
G01Y118630D01*
G02X244000Y118280I-500J0D01*
G03X244000Y117720I286J-280D01*
G02X244143Y117370I-357J-350D01*
G01Y113630D01*
G02X244000Y113280I-500J0D01*
G03Y112720I286J-280D01*
G02X244143Y112370I-357J-350D01*
G01Y108630D01*
G02X244000Y108280I-500J0D01*
G03Y107720I286J-280D01*
G02X244143Y107370I-357J-350D01*
G01Y103630D01*
G02X244000Y103280I-500J0D01*
G03Y102720I286J-280D01*
G02X244143Y102370I-357J-350D01*
G01Y98630D01*
G02X244000Y98280I-500J0D01*
G03Y97720I286J-280D01*
G02X244143Y97370I-357J-350D01*
G01Y93630D01*
G02X243643Y93130I-500J0D01*
G01X235373D01*
G02X234873Y93630I0J500D01*
G01Y97370D01*
G02X235016Y97720I500J0D01*
G03Y98280I-286J280D01*
G02X234873Y98630I357J350D01*
G01Y99750D01*
X228354D01*
G02X226500Y98500I-1854J750D01*
G02Y102500I0J2000D01*
G02X228354Y101250I0J-2000D01*
G01X234873D01*
Y102370D01*
G02X235016Y102720I500J0D01*
G03Y103280I-286J280D01*
G02X234873Y103630I357J350D01*
G01Y107370D01*
G02X235016Y107720I500J0D01*
G03Y108280I-286J280D01*
G02X234873Y108630I357J350D01*
G01Y112370D01*
G02X235016Y112720I500J0D01*
G03Y113280I-286J280D01*
G02X234873Y113630I357J350D01*
G01Y117370D01*
G02X235015Y117720I500J0D01*
G03X235015Y118280I-286J280D01*
G02X234872Y118630I357J350D01*
G01Y122370D01*
G02X235015Y122720I500J0D01*
G03Y123280I-286J280D01*
G02X234872Y123630I357J350D01*
G01Y127370D01*
G02X235015Y127720I500J0D01*
G03Y128280I-286J280D01*
G02X234872Y128630I357J350D01*
G01Y132370D01*
G02X235015Y132720I500J0D01*
G03Y133280I-286J280D01*
G02X234872Y133630I357J350D01*
G01Y134750D01*
X234622D01*
G02X234091Y134970I0J750D01*
G01X227470Y141591D01*
G02X227250Y142122I531J530D01*
G01Y181500D01*
G02X227470Y182030I750J0D01*
G01X234970Y189530D01*
G02X235500Y189750I530J-531D01*
G01X239646D01*
G02X241500Y191000I1854J-750D01*
G02Y187000I0J-2000D01*
G02X239646Y188250I0J2000D01*
G01X235811D01*
X228750Y181189D01*
Y180985D01*
G03X229375Y180654I400J0D01*
G02X230500Y181000I1125J-1654D01*
G02X231958Y180369I0J-2000D01*
G03X232542I292J274D01*
G02X234000Y181000I1458J-1369D01*
G02X236000Y179000I0J-2000D01*
G02X234750Y177146I-2000J0D01*
G01Y165354D01*
G02X236000Y163500I-750J-1854D01*
G02X234000Y161500I-2000J0D01*
G02X232542Y162131I0J2000D01*
G03X231958I-292J-274D01*
G02X230500Y161500I-1458J1369D01*
G02X229375Y161846I0J2000D01*
G03X228750Y161515I-225J-331D01*
G01Y142433D01*
G37*
G36*
G01X251243Y158068D02*
X267363D01*
G02X267713Y157926I0J-500D01*
G03X268272I280J286D01*
G02X268622Y158068I350J-358D01*
G01X299198D01*
G03X299340Y158410I0J200D01*
G01X298999Y158750D01*
X282000D01*
G02X281470Y158970I0J750D01*
G01X279714Y160726D01*
G02X279494Y161256I531J530D01*
G01Y162730D01*
X278669D01*
G02X278169Y163230I0J500D01*
G01Y166770D01*
G02X278669Y167270I500J0D01*
G01X279494D01*
Y169300D01*
X278944D01*
G02X278444Y169800I0J500D01*
G01Y170750D01*
X275022D01*
Y168825D01*
G02X274522Y168325I-500J0D01*
G01X268502D01*
G02X268002Y168825I0J500D01*
G01Y174175D01*
G02X268502Y174675I500J0D01*
G01X274522D01*
G02X275022Y174175I0J-500D01*
G01Y172250D01*
X278444D01*
Y173200D01*
G02X278944Y173700I500J0D01*
G01X282124D01*
G02X282624Y173200I0J-500D01*
G01Y169800D01*
G02X282124Y169300I-500J0D01*
G01X280994D01*
Y167270D01*
X281819D01*
G02X282319Y166770I0J-500D01*
G01Y163230D01*
G02X281819Y162730I-500J0D01*
G01X280994D01*
Y161567D01*
X282311Y160250D01*
X299310D01*
G02X299841Y160030I0J-750D01*
G01X301022Y158849D01*
G02X301242Y158318I-531J-530D01*
G01Y158068D01*
X302500D01*
Y160793D01*
X302293Y161000D01*
X297793D01*
X296500Y162293D01*
Y173293D01*
X296293Y173500D01*
X289207D01*
X289000Y173293D01*
Y169000D01*
X284293D01*
X283500Y169793D01*
Y176207D01*
X284293Y177000D01*
X300707D01*
X301500Y176207D01*
Y170207D01*
X308500Y163207D01*
Y148793D01*
X307707Y148000D01*
X303293D01*
X302495Y148798D01*
X268622D01*
G02X268272Y148940I0J500D01*
G03X267713I-280J-286D01*
G02X267363Y148798I-350J358D01*
G01X243623D01*
G02X243123Y149298I0J500D01*
G01Y157568D01*
G02X243623Y158068I500J0D01*
G01X244743D01*
Y179493D01*
G02X244963Y180024I750J0D01*
G01X264470Y199530D01*
G02X265000Y199750I530J-531D01*
G01X305655D01*
Y202345D01*
G02X306155Y202845I500J0D01*
G01X312845D01*
G02X313345Y202345I0J-500D01*
G01Y195655D01*
G02X312845Y195155I-500J0D01*
G01X306155D01*
G02X305655Y195655I0J500D01*
G01Y198250D01*
X265311D01*
X246243Y179182D01*
Y158068D01*
X249743D01*
Y174493D01*
G02X249962Y175024I750J0D01*
G01X254470Y179531D01*
G02X255000Y179750I530J-531D01*
G01X305725D01*
X305762Y179903D01*
G02X309500Y182845I3738J-903D01*
G02Y175155I0J-3845D01*
G02X305762Y178097I0J3845D01*
G01X305725Y178250D01*
X255311D01*
X251243Y174182D01*
Y158068D01*
G37*
G36*
G01X32284Y227700D02*
Y227950D01*
G02X32296Y228087I750J0D01*
G01X32300Y228105D01*
Y229945D01*
X31475D01*
G02X30975Y230445I0J500D01*
G01Y233595D01*
G02X31475Y234095I500J0D01*
G01X34625D01*
G02X35125Y233595I0J-500D01*
G01Y230445D01*
G02X34625Y229945I-500J0D01*
G01X33800D01*
Y227700D01*
X34624D01*
G02X35124Y227200I0J-500D01*
G01Y223800D01*
G02X34624Y223300I-500J0D01*
G01X31444D01*
G02X30944Y223800I0J500D01*
G01Y227200D01*
G02X31444Y227700I500J0D01*
G01X32284D01*
G37*
G36*
G01X177083Y214917D02*
G02X177583Y215417I500J0D01*
G01X183250D01*
Y227646D01*
G02X182000Y229500I750J1854D01*
G02X184000Y231500I2000J0D01*
G02X185667Y230606I0J-2000D01*
G03X186333I333J221D01*
G02X188000Y231500I1667J-1106D01*
G02Y227500I0J-2000D01*
G02X187335Y227614I0J2000D01*
G01X187216Y227655D01*
X186796Y227235D01*
Y215417D01*
X187264D01*
Y225014D01*
G02X187484Y225545I750J0D01*
G01X190655Y228716D01*
X190614Y228835D01*
G02X190500Y229500I1887J665D01*
G02X192500Y227500I2000J0D01*
G02X191835Y227614I0J2000D01*
G01X191716Y227655D01*
X188764Y224703D01*
Y215417D01*
X193210D01*
X193793Y216000D01*
X197207D01*
X199000Y214207D01*
Y201293D01*
X197207Y199500D01*
X195527D01*
G03X195244Y198817I0J-400D01*
G01X196311Y197750D01*
X231189D01*
X232750Y199311D01*
Y214576D01*
G02X232970Y215106I750J0D01*
G01X234300Y216437D01*
Y219056D01*
G02X234800Y219556I500J0D01*
G01X238200D01*
G02X238700Y219056I0J-500D01*
G01Y215876D01*
G02X238200Y215376I-500J0D01*
G01X235361D01*
X234250Y214265D01*
Y199000D01*
G02X234030Y198470I-750J0D01*
G01X232494Y196933D01*
G03X232777Y196250I283J-283D01*
G01X236189D01*
X239250Y199311D01*
Y215076D01*
G02X239470Y215606I750J0D01*
G01X240300Y216437D01*
Y219056D01*
G02X240800Y219556I500J0D01*
G01X244200D01*
G02X244700Y219056I0J-500D01*
G01Y215876D01*
G02X244200Y215376I-500J0D01*
G01X241361D01*
X240750Y214765D01*
Y199000D01*
G02X240530Y198470I-750J0D01*
G01X237030Y194970D01*
G02X236500Y194750I-530J531D01*
G01X196000D01*
G02X195470Y194970I0J750D01*
G01X189452Y200988D01*
G02X189232Y201518I531J530D01*
G01Y209497D01*
X185456D01*
G02X185174Y209584I0J500D01*
G03X184949I-113J-165D01*
G02X184667Y209497I-282J413D01*
G01X182859D01*
Y206202D01*
X187530Y201530D01*
G02X187750Y201000I-531J-530D01*
G01Y194500D01*
G02X187530Y193970I-750J0D01*
G01X185345Y191784D01*
X185386Y191665D01*
G02X185500Y191000I-1887J-665D01*
G02X181500Y191000I-2000J0D01*
G02X182131Y192458I2000J0D01*
G03Y193042I-274J292D01*
G02Y195958I1369J1458D01*
G03Y196542I-274J292D01*
G02X181646Y197250I1369J1458D01*
G01X180000D01*
G02X179470Y197470I0J750D01*
G01X177642Y199296D01*
G02X177423Y199827I531J531D01*
G01Y209510D01*
X177326Y209568D01*
G02X177083Y209997I257J429D01*
G01Y214917D01*
G37*
G36*
G01X36876Y223800D02*
Y227200D01*
G02X37376Y227700I500J0D01*
G01X40556D01*
G02X41056Y227200I0J-500D01*
G01Y223800D01*
G02X40556Y223300I-500J0D01*
G01X39750D01*
Y221854D01*
G02X41000Y220000I-750J-1854D01*
G02X37000I-2000J0D01*
G02X38250Y221854I2000J0D01*
G01Y222825D01*
X38243Y222851D01*
G02X38216Y223050I723J199D01*
G01Y223300D01*
X37376D01*
G02X36876Y223800I0J500D01*
G37*
G36*
G01X228500Y222500D02*
G02X232500I2000J0D01*
G02X231250Y220646I-2000J0D01*
G01Y219556D01*
X232200D01*
G02X232700Y219056I0J-500D01*
G01Y215876D01*
G02X232200Y215376I-500J0D01*
G01X228800D01*
G02X228300Y215876I0J500D01*
G01Y219056D01*
G02X228800Y219556I500J0D01*
G01X229750D01*
Y220646D01*
G02X228500Y222500I750J1854D01*
G37*
G36*
G01X222500D02*
G02X226500I2000J0D01*
G02X225250Y220646I-2000J0D01*
G01Y219556D01*
X226200D01*
G02X226700Y219056I0J-500D01*
G01Y215876D01*
G02X226200Y215376I-500J0D01*
G01X222800D01*
G02X222300Y215876I0J500D01*
G01Y219056D01*
G02X222800Y219556I500J0D01*
G01X223750D01*
Y220646D01*
G02X222500Y222500I750J1854D01*
G37*
G36*
G01X217500D02*
G02X221500I2000J0D01*
G02X220250Y220646I-2000J0D01*
G01Y219572D01*
X220379Y219523D01*
G02X220700Y219056I-179J-467D01*
G01Y215876D01*
G02X220200Y215376I-500J0D01*
G01X216800D01*
G02X216300Y215876I0J500D01*
G01Y219056D01*
G02X216800Y219556I500J0D01*
G01X218750D01*
Y220646D01*
G02X217500Y222500I750J1854D01*
G37*
G36*
G01X62825Y213478D02*
Y219498D01*
G02X63325Y219998I500J0D01*
G01X68675D01*
G02X69175Y219498I0J-500D01*
G01Y213478D01*
G02X68675Y212978I-500J0D01*
G01X67284D01*
Y212200D01*
X68124D01*
G02X68624Y211700I0J-500D01*
G01Y208300D01*
G02X68124Y207800I-500J0D01*
G01X67284D01*
Y206888D01*
G02X68534Y205034I-750J-1854D01*
G02X64534I-2000J0D01*
G02X65784Y206888I2000J0D01*
G01Y207800D01*
X64944D01*
G02X64444Y208300I0J500D01*
G01Y211700D01*
G02X64944Y212200I500J0D01*
G01X65784D01*
Y212978D01*
X63325D01*
G02X62825Y213478I0J500D01*
G37*
G36*
G01X52750Y212978D02*
Y212483D01*
G02X52747Y212418I-750J0D01*
G01X52747Y212409D01*
Y212200D01*
X53556D01*
G02X54056Y211700I0J-500D01*
G01Y208300D01*
G02X53556Y207800I-500J0D01*
G01X52716D01*
Y206854D01*
G02X53966Y205000I-750J-1854D01*
G02X49966I-2000J0D01*
G02X51216Y206854I2000J0D01*
G01Y207800D01*
X50376D01*
G02X49876Y208300I0J500D01*
G01Y211700D01*
G02X50376Y212200I500J0D01*
G01X51216D01*
Y212450D01*
G02X51243Y212649I750J0D01*
G01X51250Y212675D01*
Y212978D01*
X49325D01*
G02X48825Y213478I0J500D01*
G01Y219498D01*
G02X49325Y219998I500J0D01*
G01X54675D01*
G02X55175Y219498I0J-500D01*
G01Y213478D01*
G02X54675Y212978I-500J0D01*
G01X52750D01*
G37*
G36*
G01X210800Y219556D02*
X214200D01*
G02X214700Y219056I0J-500D01*
G01Y215876D01*
G02X214200Y215376I-500J0D01*
G01X210800D01*
G02X210300Y215876I0J500D01*
G01Y216716D01*
X201388D01*
G02X199534Y215466I-1854J750D01*
G02Y219466I0J2000D01*
G02X201388Y218216I0J-2000D01*
G01X210300D01*
Y219056D01*
G02X210800Y219556I500J0D01*
G37*
G36*
G01X70376Y208300D02*
Y211700D01*
G02X70876Y212200I500J0D01*
G01X74056D01*
G02X74456Y212000I0J-500D01*
G01X77000D01*
G02Y208000I0J-2000D01*
G01X74456D01*
G02X74056Y207800I-400J300D01*
G01X70876D01*
G02X70376Y208300I0J500D01*
G37*
G36*
G01X41500Y212000D02*
X44044D01*
G02X44444Y212200I400J-300D01*
G01X47624D01*
G02X48124Y211700I0J-500D01*
G01Y208300D01*
G02X47624Y207800I-500J0D01*
G01X44444D01*
G02X44044Y208000I0J500D01*
G01X41500D01*
G02Y212000I0J2000D01*
G37*
G36*
G01X222000Y123500D02*
G02X224000Y125500I0J2000D01*
G02X223957Y125086I-2000J0D01*
G01X223934Y124980D01*
X227673Y121241D01*
G02X227966Y120534I-707J-707D01*
G01Y112200D01*
X228556D01*
G02X229056Y111700I0J-500D01*
G01Y108300D01*
G02X228556Y107800I-500J0D01*
G01X225376D01*
G02X224876Y108300I0J500D01*
G01Y111700D01*
G02X225376Y112200I500J0D01*
G01X225966D01*
Y120120D01*
X222520Y123566D01*
X222414Y123543D01*
G02X222000Y123500I-414J1957D01*
G37*
G36*
G01X24500Y78707D02*
X25293Y79500D01*
X29707D01*
X35383Y73824D01*
X42595D01*
G02X42680Y73820I0J-900D01*
G01X42689Y73819D01*
X43775D01*
G02X44275Y73319I0J-500D01*
G01Y72529D01*
G02X43775Y72029I-500J0D01*
G01X42689D01*
X42680Y72028D01*
G02X42595Y72024I-85J896D01*
G01X35231D01*
X30500Y67293D01*
Y61293D01*
X29707Y60500D01*
X25293D01*
X24500Y61293D01*
Y65327D01*
G03X23817Y65610I-400J0D01*
G01X23707Y65500D01*
X8293D01*
X7500Y66293D01*
Y106207D01*
X8293Y107000D01*
X20707D01*
X21500Y106207D01*
Y79207D01*
X21707Y79000D01*
X23207D01*
X23817Y78390D01*
G03X24500Y78673I283J283D01*
G01Y78707D01*
G37*
G36*
G01X289742Y77933D02*
X268622D01*
G02X268272Y78075I0J500D01*
G03X267713I-280J-286D01*
G02X267363Y77933I-350J358D01*
G01X261243D01*
Y76200D01*
X262056D01*
G02X262556Y75700I0J-500D01*
G01Y72300D01*
G02X262056Y71800I-500J0D01*
G01X258876D01*
G02X258376Y72300I0J500D01*
G01Y75700D01*
G02X258876Y76200I500J0D01*
G01X259716D01*
Y76450D01*
G02X259737Y76628I750J0D01*
G01X259743Y76651D01*
Y77933D01*
X246243D01*
Y69818D01*
X248811Y67250D01*
X283000D01*
G02X283530Y67030I0J-750D01*
G01X287530Y63030D01*
G02X287750Y62500I-531J-531D01*
G01Y14811D01*
X292217Y10344D01*
X292352Y10428D01*
G02X294500Y11045I2148J-3428D01*
G02X290455Y7000I0J-4045D01*
G02X291072Y9148I4045J0D01*
G01X291156Y9283D01*
X286470Y13969D01*
G02X286250Y14500I531J531D01*
G01Y62189D01*
X282689Y65750D01*
X248500D01*
G02X247970Y65970I0J750D01*
G01X244963Y68976D01*
G02X244743Y69507I531J531D01*
G01Y77933D01*
X243623D01*
G02X243123Y78433I0J500D01*
G01Y86703D01*
G02X243623Y87203I500J0D01*
G01X266802D01*
X280630Y101030D01*
G02X281160Y101250I530J-531D01*
G01X282146D01*
G02X284000Y102500I1854J-750D01*
G02X286000Y100500I0J-2000D01*
G02X285778Y99584I-2000J0D01*
G03X286133Y99000I356J-183D01*
G01X288750D01*
G02X289280Y98780I0J-750D01*
G01X290216Y97845D01*
X290335Y97886D01*
G02X291000Y98000I665J-1887D01*
G02X289000Y96000I0J-2000D01*
G02X289114Y96665I2000J0D01*
G01X289155Y96784D01*
X288439Y97500D01*
X286133D01*
G03X285778Y96916I0J-400D01*
G02X286000Y96000I-1778J-916D01*
G02X284000Y94000I-2000J0D01*
G02X283335Y94114I0J2000D01*
G01X283216Y94155D01*
X276947Y87886D01*
G03X277230Y87203I283J-283D01*
G01X304742D01*
Y87453D01*
G02X304748Y87550I750J0D01*
G01X304750Y87563D01*
Y99646D01*
G02X303500Y101500I750J1854D01*
G02X307500I2000J0D01*
G02X306250Y99646I-2000J0D01*
G01Y87203D01*
X307362D01*
G02X307862Y86703I0J-500D01*
G01Y78433D01*
G02X307362Y77933I-500J0D01*
G01X296242D01*
Y52319D01*
X298811Y49750D01*
X305725D01*
X305762Y49903D01*
G02X309500Y52845I3738J-903D01*
G02Y45155I0J-3845D01*
G02X305762Y48097I0J3845D01*
G01X305725Y48250D01*
X298500D01*
G02X297970Y48470I0J750D01*
G01X294961Y51478D01*
G02X294742Y52008I531J531D01*
G01Y77933D01*
X291242D01*
Y43819D01*
X295311Y39750D01*
X305655D01*
Y42345D01*
G02X306155Y42845I500J0D01*
G01X312845D01*
G02X313345Y42345I0J-500D01*
G01Y35655D01*
G02X312845Y35155I-500J0D01*
G01X306155D01*
G02X305655Y35655I0J500D01*
G01Y38250D01*
X295000D01*
G02X294470Y38470I0J750D01*
G01X289962Y42977D01*
G02X289742Y43508I531J531D01*
G01Y77933D01*
G37*
G36*
G01X163000Y77500D02*
G02X167000I2000J0D01*
G02X166000Y75768I-2000J0D01*
G01Y75056D01*
X166700D01*
G02X167200Y74556I0J-500D01*
G01Y71376D01*
G02X166700Y70876I-500J0D01*
G01X163300D01*
G02X162800Y71376I0J500D01*
G01Y74556D01*
G02X163300Y75056I500J0D01*
G01X164000D01*
Y75768D01*
G02X163000Y77500I1000J1732D01*
G37*
G36*
G01X252944Y76200D02*
X256124D01*
G02X256624Y75700I0J-500D01*
G01Y72300D01*
G02X256124Y71800I-500J0D01*
G01X252944D01*
G02X252444Y72300I0J500D01*
G01Y73000D01*
X250732D01*
G02X249000Y72000I-1732J1000D01*
G02Y76000I0J2000D01*
G02X250732Y75000I0J-2000D01*
G01X252444D01*
Y75700D01*
G02X252944Y76200I500J0D01*
G37*
G36*
G01X109600Y29474D02*
G02X106400I-1600J0D01*
G01Y34144D01*
G02X107000Y35393I1600J0D01*
G01Y37268D01*
G02X106000Y39000I1000J1732D01*
G02X110000I2000J0D01*
G02X109000Y37268I-2000J0D01*
G01Y35393D01*
G02X109600Y34144I-1000J-1249D01*
G01Y29474D01*
G37*
G36*
G01X76793Y139500D02*
X76000Y140293D01*
Y150707D01*
X76793Y151500D01*
X89207D01*
X90000Y150707D01*
Y140293D01*
X89207Y139500D01*
X76793D01*
G37*
G36*
G01X27000Y146293D02*
X26207Y145500D01*
X16293D01*
X15500Y146293D01*
Y167207D01*
X16293Y168000D01*
X26207D01*
X27000Y167207D01*
Y146293D01*
G37*
G36*
G01X36352Y9307D02*
G02X30632I-2860J0D01*
G01Y11677D01*
G02X36352I2860J0D01*
G01Y9307D01*
G37*
G36*
G01X70368D02*
G02X64648I-2860J0D01*
G01Y11677D01*
G02X70368I2860J0D01*
G01Y9307D01*
G37*
G36*
G01X89600Y6856D02*
G02X86400I-1600J0D01*
G01Y11526D01*
G02X89600I1600J0D01*
G01Y6856D01*
G37*
G36*
G01X99600D02*
G02X96400I-1600J0D01*
G01Y11526D01*
G02X99600I1600J0D01*
G01Y6856D01*
G37*
G36*
G01X94600D02*
G02X91400I-1600J0D01*
G01Y11526D01*
G02X94600I1600J0D01*
G01Y6856D01*
G37*
G36*
G01X104600D02*
G02X101400I-1600J0D01*
G01Y11526D01*
G02X104600I1600J0D01*
G01Y6856D01*
G37*
G36*
G01X109600D02*
G02X106400I-1600J0D01*
G01Y11526D01*
G02X109600I1600J0D01*
G01Y6856D01*
G37*
G36*
G01X119600D02*
G02X116400I-1600J0D01*
G01Y11526D01*
G02X119600I1600J0D01*
G01Y6856D01*
G37*
G36*
G01X114600D02*
G02X111400I-1600J0D01*
G01Y11526D01*
G02X114600I1600J0D01*
G01Y6856D01*
G37*
G36*
G01X280455Y3455D02*
Y10545D01*
G02X280955Y11045I500J0D01*
G01X288045D01*
G02X288545Y10545I0J-500D01*
G01Y3455D01*
G02X288045Y2955I-500J0D01*
G01X280955D01*
G02X280455Y3455I0J500D01*
G37*
G36*
G01X89600Y29474D02*
G02X86400I-1600J0D01*
G01Y34144D01*
G02X89600I1600J0D01*
G01Y29474D01*
G37*
G36*
G01X94600D02*
G02X91400I-1600J0D01*
G01Y34144D01*
G02X94600I1600J0D01*
G01Y29474D01*
G37*
G36*
G01X107947Y220627D02*
Y230467D01*
G02X108447Y230967I500J0D01*
G01X116317D01*
G02X116817Y230467I0J-500D01*
G01Y220627D01*
G02X116317Y220127I-500J0D01*
G01X108447D01*
G02X107947Y220627I0J500D01*
G37*
G36*
G01X198183D02*
Y230467D01*
G02X198683Y230967I500J0D01*
G01X206553D01*
G02X207053Y230467I0J-500D01*
G01Y220627D01*
G02X206553Y220127I-500J0D01*
G01X198683D01*
G02X198183Y220627I0J500D01*
G37*
G36*
G01X213955Y226955D02*
Y234045D01*
G02X214455Y234545I500J0D01*
G01X221545D01*
G02X222045Y234045I0J-500D01*
G01Y226955D01*
G02X221545Y226455I-500J0D01*
G01X214455D01*
G02X213955Y226955I0J500D01*
G37*
G36*
G01X129744Y15256D02*
G02X133744I2000J0D01*
G02X132744Y13524I-2000J0D01*
G01Y11770D01*
X133319D01*
G02X133819Y11270I0J-500D01*
G01Y7730D01*
G02X133319Y7230I-500J0D01*
G01X130169D01*
G02X129669Y7730I0J500D01*
G01Y7852D01*
G03X129160Y8237I-400J0D01*
G02X128860Y8191I-300J954D01*
G02X128847Y8191I1J1000D01*
G01X124600D01*
Y6856D01*
G02X121400I-1600J0D01*
G01Y11526D01*
G02X124600I1600J0D01*
G01Y10191D01*
X128446D01*
X128462Y10207D01*
G02X129183Y10500I707J-707D01*
G01X129669D01*
Y11270D01*
G02X130169Y11770I500J0D01*
G01X130744D01*
Y13524D01*
G02X129744Y15256I1000J1732D01*
G37*
G54D52*
X268622Y40830D03*
X213504Y40831D03*
G54D47*
X306750Y7750D03*
X8750Y8750D03*
X306750Y228250D03*
X8250Y227750D03*
G54D51*
X160847Y43653D03*
G54D50*
X254841Y51499D03*
X227282D03*
G54D53*
X176201Y7948D03*
X144706D03*
G54D48*
X288000Y230500D03*
X278000D03*
X268000D03*
X258000D03*
X248000D03*
X238000D03*
X228000D03*
G54D49*
X309500Y189000D03*
Y169000D03*
Y69000D03*
Y59000D03*
G54D54*
X33492Y26950D03*
X67508D03*
%LPD*%
G75*
G36*
G01X21000Y106000D02*
Y79000D01*
X21500Y78500D01*
X23000D01*
X24000Y77500D01*
Y66500D01*
X23500Y66000D01*
X8500D01*
X8000Y66500D01*
Y106000D01*
X8500Y106500D01*
X20500D01*
X21000Y106000D01*
G37*
G36*
G01X16500Y167500D02*
X26000D01*
X26500Y167000D01*
Y146500D01*
X26000Y146000D01*
X22027D01*
G03X22000Y146000I-28J-2000D01*
G03X21973Y146000I1J-2000D01*
G01X16500D01*
X16000Y146500D01*
Y167000D01*
X16500Y167500D01*
G37*
G36*
G01X34500Y72000D02*
X30000Y67500D01*
Y61500D01*
X29500Y61000D01*
X25500D01*
X25000Y61500D01*
Y78500D01*
X25500Y79000D01*
X29500D01*
X34500Y74000D01*
Y72000D01*
G37*
G36*
G01X24500Y141500D02*
X33000D01*
X33500Y141000D01*
Y136500D01*
X34500Y135500D01*
X61500D01*
X62500Y134500D01*
Y113000D01*
X62000Y112500D01*
X60000D01*
X59500Y112000D01*
Y108000D01*
X50500Y99000D01*
Y79000D01*
X49500D01*
Y80356D01*
X49500Y80360D01*
G03X49501Y80405I-999J45D01*
G01Y101001D01*
X53500Y105000D01*
Y110500D01*
X52500Y111500D01*
X42000D01*
X41500Y111000D01*
Y106000D01*
X45927Y101573D01*
Y79214D01*
X45712Y79000D01*
X44500D01*
Y99500D01*
X35500Y108500D01*
Y112000D01*
X35000Y112500D01*
X33000D01*
X32500Y113000D01*
Y121000D01*
X32000Y121500D01*
X24500D01*
X24000Y122000D01*
Y141000D01*
X24500Y141500D01*
G37*
G36*
G01X49500Y70000D02*
X50500D01*
Y54793D01*
X50500Y54500D01*
X53000Y52000D01*
Y41500D01*
X51500Y40000D01*
Y35000D01*
X51000Y34500D01*
X43000D01*
X42500Y34000D01*
Y27000D01*
X40000D01*
Y33000D01*
X39500Y33500D01*
X37500D01*
X36500Y34500D01*
Y42000D01*
X36000Y42500D01*
X32500D01*
X32000Y43000D01*
Y51000D01*
X33000Y52000D01*
X37000D01*
X38000Y53000D01*
Y59000D01*
X38500Y59500D01*
X40000D01*
X40500Y60000D01*
Y66000D01*
X41000Y66500D01*
X43500D01*
X45000Y68000D01*
Y70000D01*
X46000D01*
Y66500D01*
X46500D01*
X47500Y65500D01*
Y52500D01*
X45500Y50500D01*
X44000D01*
Y46000D01*
X44500Y45500D01*
X48500D01*
X49500Y46500D01*
Y49982D01*
G03X49500Y50000I-1000J20D01*
G01Y68594D01*
G03X49500Y68612I-1000J-2D01*
G01Y70000D01*
G37*
G36*
G01X31000Y105500D02*
X37500D01*
X44000Y99000D01*
Y78500D01*
X44000Y77000D01*
X41000D01*
X30500Y87500D01*
Y105000D01*
X31000Y105500D01*
G37*
G36*
G01X53500Y50827D02*
G02X54183Y51110I400J0D01*
G01X59110Y46183D01*
G02X58827Y45500I-283J-283D01*
G01X58793D01*
X58000Y44707D01*
Y32568D01*
X54830D01*
G03X54549Y32482I0J-500D01*
G02X54324I-112J165D01*
G03X54043Y32568I-281J-414D01*
G01X53877D01*
X53833Y32709D01*
G03X53611Y33077I-859J-268D01*
G01X53083Y33605D01*
G03X52447Y33868I-637J-636D01*
G01X52041D01*
G02X51759Y34551I0J400D01*
G01X52000Y34793D01*
Y39793D01*
X53500Y41293D01*
Y50827D01*
G37*
G36*
G01X52500Y70000D02*
X66500Y56000D01*
Y46500D01*
X66000Y46000D01*
X60000D01*
X51000Y55000D01*
Y70000D01*
X52500D01*
G37*
G36*
G01X58500Y106000D02*
X64500D01*
X65000Y105500D01*
Y88000D01*
X56500Y79500D01*
X51000D01*
Y98500D01*
X58500Y106000D01*
G37*
G36*
G01X59000Y45000D02*
X66000D01*
X66500Y44500D01*
Y41500D01*
X63000Y38000D01*
Y35000D01*
X61500Y33500D01*
Y32347D01*
X61476Y32303D01*
G03X61418Y32068I442J-235D01*
G01Y27000D01*
X58500D01*
Y44500D01*
X59000Y45000D01*
G37*
G36*
G01X73500Y43500D02*
Y71000D01*
X74500Y72000D01*
X79500D01*
X83500Y68000D01*
X93500D01*
X94000Y67500D01*
Y44500D01*
X92500Y43000D01*
X74000D01*
X73500Y43500D01*
G37*
G36*
G01X118528Y138000D02*
X122500D01*
X123000Y137500D01*
Y125500D01*
X124500Y124000D01*
X139500D01*
Y123000D01*
X131500D01*
Y122500D01*
X139500D01*
Y121500D01*
X131500D01*
Y121000D01*
X139500D01*
Y119682D01*
X136240D01*
G03X135935Y119579I0J-500D01*
G01X135881Y119537D01*
X128537D01*
G03X128006Y119317I0J-750D01*
G01X127263Y118574D01*
G02X126650Y118631I-283J283D01*
G03X125000Y119500I-1650J-1131D01*
G03Y115500I0J-2000D01*
G03X126854Y116750I0J2000D01*
G01X127250D01*
G03X127781Y116970I0J750D01*
G01X128848Y118037D01*
X135881D01*
X135935Y117995D01*
G03X136240Y117892I305J396D01*
G01X139500D01*
Y116533D01*
X136240D01*
G03X136088Y116510I0J-500D01*
G01X136058Y116500D01*
X129500D01*
X121500Y108500D01*
X97000D01*
X94500Y106000D01*
Y91500D01*
X95000Y91000D01*
X116000D01*
X116500Y91500D01*
Y103500D01*
X117000Y104000D01*
X120500D01*
X131000Y114500D01*
X139500D01*
Y113500D01*
X135500D01*
X135165Y113165D01*
X135138Y113151D01*
G03X134960Y113018I352J-663D01*
G01X134957Y113016D01*
G03X134923Y112984I496J-563D01*
G01X134393Y112454D01*
G03X134382Y112444I520J-541D01*
G01X128004Y106065D01*
G03X127979Y106038I531J-530D01*
G01X127963Y106021D01*
G03X127897Y105936I556J-503D01*
G01X127877Y105907D01*
G03X127846Y105857I623J-418D01*
G01X127833Y105833D01*
X121000Y99000D01*
Y88000D01*
X120500Y87500D01*
X95000D01*
X94500Y87000D01*
Y82500D01*
X94000Y82000D01*
X81500D01*
X80000Y80500D01*
Y77000D01*
X78500Y75500D01*
X73500D01*
X73000Y76000D01*
Y137500D01*
X73500Y138000D01*
X118473D01*
G03X118500Y138000I28J2000D01*
G03X118527Y138000I-1J2000D01*
G01X118528D01*
G37*
G36*
G01X89000Y151000D02*
X89500Y150500D01*
Y140500D01*
X89000Y140000D01*
X77000D01*
X76500Y140500D01*
Y150500D01*
X77000Y151000D01*
X89000D01*
G37*
G36*
G01X81000Y74500D02*
X99500D01*
X100000Y74000D01*
Y69000D01*
X99500Y68500D01*
X93707D01*
X84000Y68500D01*
X80000Y72500D01*
Y73500D01*
X81000Y74500D01*
G37*
G36*
G01X99500Y76000D02*
X81500D01*
X81000Y76500D01*
Y79500D01*
X82500Y81000D01*
X99500D01*
X100000Y80500D01*
Y76500D01*
X99500Y76000D01*
G37*
G36*
G01X130000Y116000D02*
X139500D01*
Y115000D01*
X130793D01*
X130500Y115000D01*
X120000Y104500D01*
X116793D01*
X105500Y104500D01*
X104000Y103000D01*
X99000D01*
X98500Y102500D01*
Y97000D01*
X100000Y95500D01*
X115500D01*
X116000Y95000D01*
Y92000D01*
X115500Y91500D01*
X95500D01*
X95000Y92000D01*
Y105500D01*
X97500Y108000D01*
X121707D01*
X122000Y108000D01*
X130000Y116000D01*
G37*
G36*
G01X106000Y104000D02*
X115500D01*
X116000Y103500D01*
Y96500D01*
X115500Y96000D01*
X100500D01*
X99000Y97500D01*
Y102000D01*
X99500Y102500D01*
X104207D01*
X104500Y102500D01*
X106000Y104000D01*
G37*
G36*
G01X105707D02*
X116000D01*
Y96000D01*
X100207D01*
X99000Y97207D01*
Y102293D01*
X99207Y102500D01*
X104207D01*
X105707Y104000D01*
G37*
G36*
G01X149000Y99500D02*
Y95000D01*
X143500Y89500D01*
X138500D01*
X137000Y88000D01*
Y76500D01*
X136500Y76000D01*
X130000D01*
X129750Y76250D01*
Y87189D01*
X133311Y90750D01*
X142988D01*
G03X143530Y90970I12J750D01*
G01X143561Y91000D01*
X144000D01*
X148500Y95500D01*
Y99517D01*
G02X148841Y99659I200J0D01*
G01X149000Y99500D01*
G37*
G36*
G01X157902Y215541D02*
G03X159008Y216186I-402J1959D01*
G02X159710Y215923I302J-263D01*
G01Y215404D01*
X159613Y215346D01*
G03X159370Y214917I257J-429D01*
G01Y209997D01*
G03X159870Y209497I500J0D01*
G01X161678D01*
Y207239D01*
X156048Y201609D01*
G03X156027Y201587I532J-529D01*
G01X156026Y201586D01*
G03X155987Y201540I550J-510D01*
G01X155969Y201517D01*
G03X155896Y201406I590J-463D01*
G01X155886Y201387D01*
G03X155831Y201253I662J-352D01*
G01X155825Y201234D01*
G03X155798Y201109I718J-218D01*
G01X155795Y201079D01*
G03X155789Y200986I744J-94D01*
G01Y200969D01*
G03X155789Y200953I750J-17D01*
G01Y198383D01*
G03X155788Y198367I750J-17D01*
G01Y180453D01*
X155783Y180429D01*
G03X155782Y180428I709J-237D01*
G01X155781Y180423D01*
G03X155779Y180414I731J-171D01*
G01X155778Y180410D01*
G03X155777Y180406I732J-165D01*
G01X155777Y180404D01*
G03X155767Y180348I732J-163D01*
G01X155762Y180316D01*
G03X155758Y180282I742J-107D01*
G01X155755Y180248D01*
G03X155752Y180211I747J-73D01*
G01X155750Y180179D01*
G03X155750Y180144I749J-35D01*
G01Y175559D01*
G02X155067Y175276I-400J0D01*
G01X153789Y176554D01*
Y180646D01*
G03X155039Y182500I-750J1854D01*
G03X153039Y184500I-2000J0D01*
G03X151581Y183869I0J-2000D01*
G02X150997I-292J274D01*
G03X148081I-1458J-1369D01*
G02X147497I-292J274D01*
G03X144581I-1458J-1369D01*
G02X143997I-292J274D01*
G03X142539Y184500I-1458J-1369D01*
G03X140539Y182500I0J-2000D01*
G03X141789Y180646I2000J0D01*
G01Y170420D01*
G02X141073Y170175I-400J0D01*
G03X139492Y170950I-1581J-1225D01*
G03X138034Y170318I0J-2000D01*
G02X137450I-292J274D01*
G03X134534I-1458J-1369D01*
G02X133950I-292J274D01*
G03X133842Y170426I-1459J-1369D01*
G02X133843Y171018I270J295D01*
G03X134500Y172500I-1343J1482D01*
G03X134386Y173165I-2000J0D01*
G01X134345Y173284D01*
X136530Y175470D01*
G03X136750Y176000I-531J531D01*
G01Y182189D01*
X153118Y198557D01*
G03X153337Y199087I-531J530D01*
G01Y209509D01*
X155145D01*
G03X155420Y209591I0J500D01*
G02X155645Y209588I110J-167D01*
G03X155933Y209497I288J409D01*
G01X157113D01*
G03X157613Y209997I0J500D01*
G01Y214917D01*
G03X157596Y215046I-500J0D01*
G02X157902Y215541I387J103D01*
G37*
G36*
G01X143289Y180646D02*
G03X143997Y181131I-750J1854D01*
G02X144581I292J-274D01*
G03X145289Y180646I1458J1369D01*
G01Y180250D01*
G03X145508Y179720I750J0D01*
G01X152750Y172478D01*
Y153528D01*
X152748Y153515D01*
G03X152744Y153482I744J-99D01*
G01X152738Y153417D01*
G03X152736Y153351I747J-66D01*
G01Y148118D01*
X152470Y147852D01*
G03X152459Y147841I531J-531D01*
G01X145797Y141179D01*
G02X145114Y141462I-283J283D01*
G01Y145369D01*
X146207Y146462D01*
G03X146500Y147169I-707J707D01*
G01Y147669D01*
X147270D01*
G03X147770Y148169I0J500D01*
G01Y148744D01*
X148512D01*
G03X150244Y147744I1732J1000D01*
G03Y151744I0J2000D01*
G03X148512Y150744I0J-2000D01*
G01X147770D01*
Y151319D01*
G03X147270Y151819I-500J0D01*
G01X143289D01*
Y180646D01*
G37*
G36*
G01X165146Y209497D02*
X165614D01*
Y178918D01*
X158933Y172237D01*
G02X158250Y172520I-283J283D01*
G01Y179629D01*
G03X158250Y179644I-750J17D01*
G01Y179991D01*
X158267Y180057D01*
G03X158289Y180238I-728J181D01*
G01Y197938D01*
G03X158289Y197953I-750J17D01*
G01Y200228D01*
X164927Y206866D01*
G03X165146Y207396I-531J530D01*
G01Y209497D01*
G37*
G36*
G01X177000Y96500D02*
X175500Y98000D01*
Y102000D01*
X179000D01*
X180500Y100500D01*
X185500D01*
X187000Y99000D01*
Y96500D01*
X177000D01*
G37*
G36*
G01X173790Y120768D02*
G03X174717Y121964I-1000J1732D01*
G01X174758Y122111D01*
X175110D01*
Y121542D01*
G03X175196Y121262I500J0D01*
G02Y121037I-166J-112D01*
G03X175110Y120757I414J-280D01*
G01Y119967D01*
G03X175196Y119687I500J0D01*
G02Y119462I-166J-112D01*
G03X175110Y119182I414J-280D01*
G01Y118392D01*
G03X175196Y118112I500J0D01*
G02Y117888I-166J-112D01*
G03X175110Y117608I415J-280D01*
G01Y116818D01*
G03X175196Y116538I500J0D01*
G02Y116313I-166J-112D01*
G03X175110Y116033I414J-280D01*
G01Y115243D01*
G03X175196Y114963I500J0D01*
G02Y114738I-166J-112D01*
G03X175110Y114458I414J-280D01*
G01Y113668D01*
G03X175610Y113168I500J0D01*
G01X178760D01*
G03X179065Y113271I0J500D01*
G01X179119Y113313D01*
X180563D01*
G03X181094Y113533I0J750D01*
G01X181531Y113969D01*
G03X181750Y114500I-531J531D01*
G01Y115189D01*
X183291Y116730D01*
X193056D01*
G03X193210Y116746I0J750D01*
G01X193230Y116750D01*
X195689D01*
X198750Y113689D01*
Y105500D01*
G03X198970Y104970I750J0D01*
G01X200230Y103709D01*
Y102797D01*
G02X199547Y102514I-400J0D01*
G01X197530Y104531D01*
G03X197000Y104750I-531J-531D01*
G01X192925D01*
G03X192914Y104750I-12J-750D01*
G01X187319D01*
Y107856D01*
X187962Y108498D01*
X188042Y108500D01*
G03X190000Y110500I-42J2000D01*
G03X188000Y112500I-2000J0D01*
G03X187766Y112486I0J-2000D01*
G02X187319Y112884I-47J397D01*
G01Y115770D01*
G03X186819Y116270I-500J0D01*
G01X183669D01*
G03X183169Y115770I0J-500D01*
G01Y113144D01*
X181938Y111913D01*
X175024D01*
X173790Y113147D01*
Y120768D01*
G37*
G36*
G01X186819Y101250D02*
X195775D01*
X199555Y97470D01*
G03X200086Y97250I530J531D01*
G01X207275D01*
X215250Y89275D01*
Y85029D01*
G02X214541Y84775I-400J0D01*
G03X213000Y85500I-1541J-1275D01*
G03X211350Y84631I0J-2000D01*
G02X210737Y84574I-330J226D01*
G01X207750Y87561D01*
Y89500D01*
G03X207531Y90030I-750J0D01*
G01X201530Y96030D01*
G03X201000Y96250I-530J-531D01*
G01X188658D01*
G03X188643Y96250I-17J-750D01*
G01X187500D01*
Y99207D01*
X186819Y99888D01*
Y101250D01*
G37*
G36*
G01X194000Y215500D02*
X197000D01*
X198500Y214000D01*
Y201500D01*
X197000Y200000D01*
X195000D01*
X193500Y201500D01*
Y215000D01*
X194000Y215500D01*
G37*
G36*
G01X296500Y171500D02*
Y161000D01*
X296000Y160500D01*
X284000D01*
X283500Y161000D01*
Y168000D01*
X284000Y168500D01*
X288000D01*
X289000Y169500D01*
Y171500D01*
X289500Y172000D01*
X296000D01*
X296500Y171500D01*
G37*
G36*
G01X284500Y176500D02*
X300500D01*
X301000Y176000D01*
Y170000D01*
X308000Y163000D01*
Y149000D01*
X307500Y148500D01*
X303500D01*
X303000Y149000D01*
Y161000D01*
X302500Y161500D01*
X298000D01*
X297000Y162500D01*
Y171707D01*
X297000Y173500D01*
X296500Y174000D01*
X289000D01*
X288500Y173500D01*
Y171707D01*
X288500Y169707D01*
X288293Y169500D01*
X284500D01*
X284000Y170000D01*
Y176000D01*
X284500Y176500D01*
G37*
%LPC*%
G75*
G36*
G01X110669Y114500D02*
Y115270D01*
G02X111169Y115770I500J0D01*
G01X114319D01*
G02X114819Y115270I0J-500D01*
G01Y111730D01*
G02X114319Y111230I-500J0D01*
G01X111169D01*
G02X110669Y111730I0J500D01*
G01Y112500D01*
X108732D01*
G02X107000Y111500I-1732J1000D01*
G02Y115500I0J2000D01*
G02X108732Y114500I0J-2000D01*
G01X110669D01*
G37*
G36*
G01Y121500D02*
Y122270D01*
G02X111169Y122770I500J0D01*
G01X114319D01*
G02X114819Y122270I0J-500D01*
G01Y118730D01*
G02X114319Y118230I-500J0D01*
G01X111169D01*
G02X110669Y118730I0J500D01*
G01Y119500D01*
X108732D01*
G02X107000Y118500I-1732J1000D01*
G02Y122500I0J2000D01*
G02X108732Y121500I0J-2000D01*
G01X110669D01*
G37*
G36*
G01Y128500D02*
Y129270D01*
G02X111169Y129770I500J0D01*
G01X114319D01*
G02X114819Y129270I0J-500D01*
G01Y125730D01*
G02X114319Y125230I-500J0D01*
G01X111169D01*
G02X110669Y125730I0J500D01*
G01Y126500D01*
X108732D01*
G02X107000Y125500I-1732J1000D01*
G02Y129500I0J2000D01*
G02X108732Y128500I0J-2000D01*
G01X110669D01*
G37*
G36*
G01Y135500D02*
Y136270D01*
G02X111169Y136770I500J0D01*
G01X114319D01*
G02X114819Y136270I0J-500D01*
G01Y132730D01*
G02X114319Y132230I-500J0D01*
G01X111169D01*
G02X110669Y132730I0J500D01*
G01Y133500D01*
X108732D01*
G02X107000Y132500I-1732J1000D01*
G02Y136500I0J2000D01*
G02X108732Y135500I0J-2000D01*
G01X110669D01*
G37*
%LPD*%
G75*
G54D10*
X8750Y8750D03*
X8250Y227750D03*
X306750Y7750D03*
Y228250D03*
G54D20*
X38492Y29508D03*
X37311D03*
X41642D03*
X43610D03*
X45579D03*
X40461D03*
X47547D03*
X51484D03*
X49516D03*
X53453D03*
X57390D03*
X59358Y29507D03*
X55420Y29508D03*
X62508D03*
X60540Y29507D03*
X63689Y29508D03*
G54D11*
G01X46034Y210000D02*
X41500D01*
G01X72466D02*
X77000D01*
G01X109034Y180500D02*
X102000D01*
G01X109034Y186500D02*
X101500D01*
G01X109034Y192500D02*
X101500D01*
G01X109034Y198500D02*
X101500D01*
G01X109244Y205000D02*
X102000D01*
G01X109034Y186500D02*
Y180500D01*
G01Y192500D02*
Y186500D01*
G01Y198500D02*
Y192500D01*
G01X195756Y107744D02*
X191500D01*
X190756Y107000D01*
G01Y114000D02*
X195500D01*
G01X198000Y121000D02*
X190756D01*
G01X202000Y118244D02*
X200756D01*
X198000Y121000D01*
G01X208500Y117534D02*
X202710D01*
X202000Y118244D01*
G01X208500Y136966D02*
X202710D01*
X202000Y136256D01*
G01X208500Y136966D02*
X215034D01*
X218488Y133512D01*
X219000D01*
G01X208500Y136966D02*
Y141500D01*
G01X214756Y110000D02*
Y103000D01*
G01D02*
X220500D01*
G01X221034Y110000D02*
X214756D01*
X6500Y58000D03*
Y63000D03*
X7000Y116000D03*
Y121000D03*
Y178000D03*
Y183000D03*
X11500Y58000D03*
Y63000D03*
X12000Y69000D03*
Y77000D03*
Y73000D03*
Y116000D03*
Y121000D03*
Y178000D03*
Y183000D03*
X20034Y25966D03*
X19000Y47500D03*
X14000Y52500D03*
X19000D03*
X16000Y69000D03*
Y73000D03*
Y77000D03*
X17500Y115000D03*
Y119000D03*
X18500Y161500D03*
Y165000D03*
X20000Y174500D03*
Y179500D03*
Y184500D03*
Y189500D03*
Y194500D03*
X27000Y35500D03*
Y40000D03*
X25500Y90500D03*
Y95000D03*
Y99500D03*
Y104500D03*
Y109500D03*
X22000Y115000D03*
Y119000D03*
X26500Y144000D03*
X22000D03*
X25000Y174500D03*
Y179500D03*
Y184500D03*
Y189500D03*
Y194500D03*
X27500Y56000D03*
X31000Y144000D03*
X30000Y174500D03*
Y179500D03*
Y184500D03*
Y189500D03*
Y194500D03*
X38500Y42500D03*
X37000Y69500D03*
Y76500D03*
X36000Y128000D03*
X40000D03*
X36000Y132000D03*
X40000D03*
X35000Y174500D03*
X40000D03*
X35000Y179500D03*
X40000D03*
X35000Y184500D03*
X40000D03*
X35000Y189500D03*
Y194500D03*
X40000Y189500D03*
Y194500D03*
X39000Y220000D03*
X41000Y7000D03*
X46000D03*
X41000Y12000D03*
X46000D03*
X42500Y42500D03*
X46500D03*
X44000Y128000D03*
Y132000D03*
X45000Y150500D03*
Y155500D03*
Y160500D03*
Y174500D03*
Y179500D03*
Y184500D03*
Y189500D03*
Y194500D03*
X41500Y210000D03*
X45000Y232040D03*
X47547Y25047D03*
X50500Y42500D03*
X48500Y74500D03*
X48000Y128000D03*
X52000D03*
X48000Y132000D03*
X52000D03*
X50000Y150500D03*
Y155500D03*
Y160500D03*
Y174500D03*
Y179500D03*
Y184500D03*
Y189500D03*
Y194500D03*
X51966Y205000D03*
X54500Y6500D03*
X59500D03*
X54500Y11500D03*
X59500D03*
X54500Y23500D03*
X55500Y44000D03*
X56000Y128000D03*
X60000D03*
X56000Y132000D03*
X60000D03*
X55000Y150500D03*
Y155500D03*
X60000Y150500D03*
Y155500D03*
X55000Y160500D03*
X60000D03*
X55000Y174500D03*
X60000D03*
X55000Y179500D03*
X60000D03*
X55000Y184500D03*
X60000D03*
X55000Y189500D03*
Y194500D03*
X60000Y189500D03*
Y194500D03*
X59000Y232512D03*
X60500Y43000D03*
X64500D03*
X60500Y68000D03*
Y78500D03*
X65000Y150500D03*
Y155500D03*
Y160500D03*
Y174500D03*
Y179500D03*
Y184500D03*
Y189500D03*
Y194500D03*
X66534Y205034D03*
X70000Y45500D03*
Y49500D03*
Y53500D03*
X69000Y94500D03*
Y98500D03*
Y102500D03*
Y107000D03*
Y111000D03*
X68000Y142500D03*
X73000D03*
X68000Y147500D03*
X73000D03*
X70000Y175000D03*
Y180000D03*
X69500Y184500D03*
Y189500D03*
X76000Y5000D03*
Y10000D03*
X79000Y159500D03*
X75000Y175000D03*
Y180000D03*
X74500Y184500D03*
Y189500D03*
X77000Y210000D03*
X74500Y225500D03*
X79500D03*
X74500Y230500D03*
X79500D03*
X81000Y5000D03*
Y10000D03*
X80466Y27466D03*
X84000Y57000D03*
Y60500D03*
X82500Y145000D03*
X86000Y159500D03*
X82500Y176000D03*
Y181000D03*
X84500Y225500D03*
Y230500D03*
X92000Y57000D03*
X88000D03*
Y60500D03*
X92000D03*
X89500Y225500D03*
Y230500D03*
X97000Y60000D03*
X99500Y93500D03*
X96000Y214500D03*
Y219500D03*
X94500Y225500D03*
X99500D03*
X94500Y230500D03*
X99500D03*
X105500Y67500D03*
Y72500D03*
X103034Y84966D03*
X103000Y93500D03*
X100500Y151000D03*
Y156000D03*
X105500Y151000D03*
Y156000D03*
X102000Y180500D03*
X101500Y186500D03*
Y192500D03*
Y198500D03*
X102000Y205000D03*
X101000Y214500D03*
Y219500D03*
X110500Y14500D03*
Y19500D03*
X108000Y39000D03*
X110500Y67500D03*
Y72500D03*
X110000Y93500D03*
X106500D03*
X107500Y98000D03*
Y101500D03*
X107000Y113500D03*
Y120500D03*
Y127500D03*
Y134500D03*
X109000Y215000D03*
X115500Y14500D03*
Y19500D03*
X116000Y48000D03*
Y53000D03*
X118534Y71034D03*
X114000Y82000D03*
Y77500D03*
X113500Y93500D03*
X118500Y140000D03*
X114966Y174534D03*
X113500Y209500D03*
X121000Y48000D03*
Y53000D03*
X124000Y94500D03*
Y98500D03*
X125000Y117500D03*
X120000Y143500D03*
X121500Y223500D03*
Y228500D03*
X131744Y15256D03*
X129809Y31809D03*
X131500Y77526D03*
X132000Y103500D03*
X132492Y168950D03*
X132500Y176000D03*
Y172500D03*
Y179500D03*
X126500Y223500D03*
Y228500D03*
X137256Y15756D03*
X137000Y37500D03*
Y42500D03*
X136000Y50500D03*
Y55500D03*
X135000Y67000D03*
X137500Y98500D03*
X133000Y99000D03*
X137500Y143500D03*
X138000Y160000D03*
X135992Y168950D03*
X136500Y201500D03*
X133500Y197500D03*
X137000Y207000D03*
X133500Y217500D03*
X137000Y223500D03*
X142000Y37500D03*
Y42500D03*
X141000Y50500D03*
Y55500D03*
X139500Y69000D03*
X145500Y65500D03*
X142000D03*
X139500Y72500D03*
Y76000D03*
Y80000D03*
X139492Y168950D03*
X142539Y182500D03*
X140000Y201500D03*
X150000Y16500D03*
Y31500D03*
Y36500D03*
X147855Y56355D03*
X152185Y56315D03*
X152500Y65500D03*
X149000D03*
X147500Y108000D03*
X152500D03*
X147500Y113000D03*
X152500D03*
X147500Y118000D03*
Y123000D03*
X152500Y118000D03*
Y123000D03*
X147500Y128000D03*
X152500D03*
X150244Y149744D03*
X148500Y159000D03*
X149539Y182500D03*
X146039D03*
X155000Y16500D03*
Y31500D03*
Y36500D03*
X156516Y56484D03*
X159000Y69000D03*
X156000Y65500D03*
X159000Y72500D03*
Y76500D03*
Y80500D03*
X157500Y108000D03*
Y113000D03*
Y118000D03*
Y123000D03*
Y128000D03*
X153039Y182500D03*
X156500Y206000D03*
X157500Y217500D03*
X155500Y220500D03*
X160000Y16500D03*
X165000D03*
X160000Y31500D03*
Y36500D03*
X165000Y31500D03*
Y36500D03*
X160847Y43653D03*
X165177Y56323D03*
X165000Y77500D03*
X162500Y108000D03*
Y113000D03*
Y118000D03*
Y123000D03*
Y128000D03*
X161500Y195500D03*
X160500Y223000D03*
X170000Y16500D03*
Y31500D03*
Y36500D03*
X169508Y43508D03*
X172000Y77500D03*
X167500Y108000D03*
Y113000D03*
Y118000D03*
Y123000D03*
Y128000D03*
X178170Y55330D03*
X173839Y55339D03*
X179000Y77500D03*
X178000Y98000D03*
X172790Y122500D03*
X174500Y160500D03*
X177539Y186000D03*
X173000Y194000D03*
X174500Y201000D03*
X173000Y208000D03*
X176000Y217500D03*
X183000Y30000D03*
Y35000D03*
X185244Y121000D03*
X182744Y149244D03*
X181256Y154756D03*
X185500Y171500D03*
X184539Y182500D03*
X181039D03*
X183500Y191000D03*
Y194500D03*
Y198000D03*
X184000Y229500D03*
X188000Y30000D03*
Y35000D03*
Y77500D03*
Y110500D03*
X188039Y182500D03*
X188000Y229500D03*
X196000Y34000D03*
Y39000D03*
X195000Y77500D03*
X194000Y99000D03*
X195756Y107744D03*
X195500Y114000D03*
X198000Y121000D03*
X196000Y201500D03*
X192500Y229500D03*
X200500Y10500D03*
Y15500D03*
X201000Y34000D03*
Y39000D03*
X199500Y48500D03*
X204500D03*
X199500Y53500D03*
X204500D03*
X202500Y147500D03*
Y152500D03*
X200000Y158000D03*
X205000D03*
X200000Y163000D03*
X205000D03*
X199534Y217466D03*
X205500Y10500D03*
Y15500D03*
X208500Y141500D03*
X207500Y147500D03*
Y152500D03*
X205500Y168500D03*
X210500D03*
X205500Y173500D03*
X210500D03*
X205500Y183500D03*
Y188500D03*
X210500Y183500D03*
Y188500D03*
X214000Y6500D03*
Y11500D03*
X213000Y62500D03*
Y59000D03*
Y69500D03*
Y66000D03*
Y73000D03*
Y76500D03*
Y80000D03*
Y83500D03*
X219000Y6500D03*
X225000Y15500D03*
X219000Y11500D03*
X225000Y20500D03*
X222500Y72000D03*
Y77000D03*
X220500Y90000D03*
Y95000D03*
Y103000D03*
X222000Y125500D03*
X221500Y203500D03*
X219500Y222500D03*
X224500D03*
X230000Y15500D03*
Y20500D03*
Y25500D03*
X227500Y72000D03*
Y77000D03*
X225500Y90000D03*
Y95000D03*
X226500Y100500D03*
X230500Y163500D03*
Y179000D03*
Y222500D03*
X235000Y15500D03*
Y20500D03*
Y30500D03*
Y25500D03*
Y35500D03*
X232500Y46000D03*
X237000D03*
X233500Y74500D03*
Y79500D03*
X237500Y161000D03*
X234000Y163500D03*
X237500Y166000D03*
X234000Y179000D03*
X236500Y203500D03*
X240000Y35500D03*
X245000D03*
X241000Y46000D03*
X244500D03*
X238500Y74500D03*
Y79500D03*
X241000Y150500D03*
Y155500D03*
X242500Y161000D03*
Y166000D03*
X241500Y189000D03*
X242500Y203500D03*
X248000Y46000D03*
X249000Y74000D03*
X251000Y97000D03*
Y102000D03*
Y131000D03*
Y136000D03*
X248500Y140500D03*
X252500Y37000D03*
X257500D03*
X252500Y42000D03*
X257500D03*
X256000Y97000D03*
Y102000D03*
X256500Y119000D03*
Y124000D03*
X256000Y131000D03*
X258000Y139500D03*
X255488Y164012D03*
X257500Y181500D03*
Y186500D03*
X261500Y119000D03*
Y124000D03*
X263000Y134500D03*
Y139500D03*
X260500Y160500D03*
Y165500D03*
X262500Y181500D03*
Y186500D03*
X269000Y114000D03*
Y119000D03*
Y124000D03*
Y129000D03*
Y134000D03*
X265500Y160500D03*
Y165500D03*
X278000Y36000D03*
Y41000D03*
X277500Y46500D03*
Y51500D03*
X274000Y114000D03*
Y119000D03*
Y124000D03*
Y129000D03*
Y134000D03*
X283000Y36000D03*
Y41000D03*
X282500Y46500D03*
Y51500D03*
X284000Y96000D03*
Y100500D03*
X279000Y114000D03*
X284000D03*
X279000Y119000D03*
X284000D03*
X279000Y124000D03*
Y129000D03*
X284000Y124000D03*
Y129000D03*
X279000Y134000D03*
X284000D03*
X291000Y96000D03*
X289000Y114000D03*
Y119000D03*
Y124000D03*
Y129000D03*
Y134000D03*
X291000Y171500D03*
X286500Y175000D03*
X286000Y181500D03*
X291000D03*
X286000Y186500D03*
X291000D03*
X285000Y191500D03*
X290000D03*
X285000Y196500D03*
X290000D03*
X297000Y135500D03*
Y140500D03*
X294500Y171500D03*
X302500Y109500D03*
Y114500D03*
X302000Y135500D03*
Y140500D03*
X299000Y175000D03*
X310493Y89993D03*
X305500Y101500D03*
X307500Y109500D03*
Y114500D03*
X310493Y144507D03*
G54D12*
X20034Y21000D03*
X25966D03*
X21034Y63500D03*
X26966D03*
X21034Y69500D03*
X26966D03*
X33034Y225500D03*
X40534Y48000D03*
X38966Y225500D03*
X46466Y48000D03*
X46034Y210000D03*
X51966D03*
X66534D03*
X72466D03*
X74534Y21000D03*
X80466D03*
X109034Y180500D03*
Y186500D03*
Y192500D03*
Y198500D03*
X114966Y180500D03*
Y186500D03*
Y192500D03*
Y198500D03*
X125534Y84500D03*
X131466D03*
X221034Y110000D03*
X226966D03*
X254534Y74000D03*
X260466D03*
X280534Y171500D03*
X286466D03*
G54D21*
X45351Y68594D03*
X45352Y80405D03*
X51650Y68594D03*
X50075D03*
X48500D03*
X46926D03*
X46927Y80405D03*
X48501D03*
X50076D03*
X51651D03*
G54D30*
X137815Y101465D03*
Y103039D03*
Y104614D03*
Y106189D03*
Y107764D03*
Y109339D03*
Y110913D03*
Y112488D03*
Y114063D03*
Y115638D03*
Y117213D03*
Y118787D03*
Y120362D03*
Y121937D03*
Y123512D03*
Y125087D03*
Y126661D03*
Y128236D03*
Y129811D03*
Y131386D03*
Y132961D03*
Y134535D03*
X177185Y101465D03*
Y107764D03*
Y106189D03*
Y104614D03*
Y103039D03*
Y115638D03*
Y114063D03*
Y112488D03*
Y110913D03*
Y109339D03*
Y121937D03*
Y120362D03*
Y118787D03*
Y117213D03*
Y128236D03*
Y126661D03*
Y125087D03*
Y123512D03*
Y134535D03*
Y132961D03*
Y131386D03*
Y129811D03*
G54D22*
X48501Y74499D03*
X309500Y39000D03*
Y199000D03*
G54D31*
X144669Y72055D03*
Y78945D03*
X153331Y72055D03*
Y78945D03*
G54D40*
X245493Y82568D03*
Y153433D03*
X250493Y82568D03*
Y153433D03*
X255493Y82568D03*
Y153433D03*
X265493Y82568D03*
X260493D03*
Y153433D03*
X265493D03*
X270492Y82568D03*
Y153433D03*
X275492Y82568D03*
Y153433D03*
X280492Y82568D03*
Y153433D03*
X290492Y82568D03*
X285492D03*
Y153433D03*
X290492D03*
X295492Y82568D03*
Y153433D03*
X300492Y82568D03*
Y153433D03*
X310493Y82568D03*
X305492D03*
Y153433D03*
X310493D03*
G54D13*
X18063Y83500D03*
X20063Y125000D03*
X25937Y83500D03*
X27937Y125000D03*
X23063Y155500D03*
X32563Y37500D03*
X33563Y56000D03*
X29063Y116500D03*
X30937Y155500D03*
X40437Y37500D03*
X41437Y56000D03*
X36937Y116500D03*
X58063D03*
X65937D03*
X69063Y64500D03*
Y83500D03*
X76937Y64500D03*
Y83500D03*
G54D14*
X17516Y96500D03*
X33484D03*
X63016Y51000D03*
X62016Y96500D03*
X78984Y51000D03*
X77984Y96500D03*
G54D41*
X255488Y171500D03*
X271512D03*
G54D23*
X42595Y71349D03*
Y72924D03*
Y74499D03*
Y76074D03*
Y77649D03*
X54406Y76074D03*
Y74499D03*
Y72924D03*
Y71349D03*
Y77649D03*
G54D32*
X144114Y98315D03*
X142539D03*
X140965D03*
Y137685D03*
X142539D03*
X144114D03*
X150413Y98315D03*
X148839D03*
X147264D03*
X145689D03*
Y137685D03*
X147264D03*
X148839D03*
X150413D03*
X158287Y98315D03*
X156713D03*
X155138D03*
X153563D03*
X151988D03*
Y137685D03*
X153563D03*
X155138D03*
X156713D03*
X158287D03*
X164587Y98315D03*
X163012D03*
X161437D03*
X159862D03*
X161437Y137685D03*
X163012D03*
X164587D03*
X159862D03*
X170886Y98315D03*
X169311D03*
X167736D03*
X166161D03*
Y137685D03*
X167736D03*
X169311D03*
X170886D03*
X174035Y98315D03*
X172461D03*
Y137685D03*
X174035D03*
G54D24*
X44500Y108534D03*
Y114466D03*
X50500Y108534D03*
Y114466D03*
X79000Y136034D03*
Y141966D03*
Y148034D03*
Y153966D03*
X91000Y65534D03*
Y71466D03*
Y79034D03*
Y84966D03*
X97000Y65534D03*
Y71466D03*
Y79034D03*
Y84966D03*
X124500Y76966D03*
Y71034D03*
X165000Y67034D03*
Y72966D03*
X172000Y67034D03*
Y72966D03*
X179000Y67034D03*
Y72966D03*
X188000Y67034D03*
Y72966D03*
X195000Y67034D03*
Y72966D03*
X208500Y123466D03*
Y117534D03*
Y131034D03*
Y136966D03*
X218500Y211534D03*
X212500D03*
X218500Y217466D03*
X212500D03*
X224500Y211534D03*
Y217466D03*
X230500Y211534D03*
Y217466D03*
X236500Y211534D03*
Y217466D03*
X242500Y211534D03*
Y217466D03*
G54D15*
X26756Y76000D03*
X21244D03*
Y132500D03*
X26756D03*
X24244Y163000D03*
X28244Y48000D03*
X33756D03*
X32744Y109000D03*
X29756Y163000D03*
X36744Y63500D03*
X38256Y109000D03*
X42256Y63500D03*
X48244Y37000D03*
X53756D03*
X56744Y109000D03*
X60744Y36500D03*
X66256D03*
X62256Y109000D03*
X112744Y113500D03*
Y120500D03*
Y127500D03*
Y134500D03*
X109244Y205000D03*
X118756Y101500D03*
X113244D03*
X118256Y113500D03*
Y120500D03*
Y127500D03*
Y134500D03*
X114756Y205000D03*
X131744Y9500D03*
X137256D03*
X146256Y86000D03*
X140744D03*
X158756D03*
X153244D03*
X184744Y99000D03*
X185244Y107000D03*
Y114000D03*
Y121000D03*
X190256Y99000D03*
X190756Y107000D03*
Y114000D03*
Y121000D03*
X195244Y205500D03*
X200756D03*
X209244Y103000D03*
Y110000D03*
X214756Y103000D03*
Y110000D03*
X280244Y165000D03*
X285756D03*
X293244D03*
X298756D03*
G54D33*
X141500Y102000D03*
X141590Y106090D03*
X141500Y111500D03*
X157019Y89462D03*
G54D42*
X279114Y123708D03*
G54D16*
X26500Y138638D03*
X22760Y148362D03*
X30240D03*
G54D43*
X309500Y49000D03*
Y59000D03*
Y69000D03*
Y169000D03*
Y179000D03*
Y189000D03*
G54D25*
X52000Y216488D03*
Y232512D03*
X66000Y216488D03*
Y232512D03*
X219000Y117488D03*
Y133512D03*
G54D34*
X157500Y118000D03*
G54D44*
G01X39000Y220000D02*
Y223016D01*
X38966Y223050D01*
Y225500D01*
G01X33050Y232020D02*
Y227966D01*
X33034Y227950D01*
Y225500D01*
G01X51966Y210000D02*
Y205000D01*
G01X52000Y216488D02*
Y212484D01*
X51966Y212450D01*
Y210000D01*
G01X66534D02*
Y205034D01*
G01X66000Y216488D02*
X66534Y215954D01*
Y210000D01*
G01X114966Y192500D02*
Y192390D01*
X111500Y188924D01*
Y147000D01*
X118500Y140000D01*
G01X109000Y215000D02*
X111531Y212469D01*
X119114D01*
G01X118000Y31809D02*
Y38500D01*
X119500Y40000D01*
X128500D01*
X129000Y40500D01*
Y87500D01*
X133000Y91500D01*
X143000D01*
X147264Y95764D01*
Y98315D01*
G01X113000Y31809D02*
Y40000D01*
X114000Y41000D01*
X127500D01*
X128000Y41500D01*
Y87914D01*
X132586Y92500D01*
X142500D01*
X145689Y95689D01*
Y98315D01*
G01X114000Y82000D02*
X114500Y81500D01*
X121500D01*
X122000Y82000D01*
Y87000D01*
X130500Y95500D01*
X140475D01*
X140965Y95990D01*
Y98315D01*
G01X114000Y77500D02*
X117000Y80500D01*
X122000D01*
X123000Y81500D01*
Y86500D01*
X131000Y94500D01*
X141049D01*
X142539Y95990D01*
Y98315D01*
G01X120000Y143500D02*
X112500Y151000D01*
Y183924D01*
X114966Y186390D01*
Y186500D01*
G01Y180500D02*
Y174534D01*
G01Y180500D02*
X122000D01*
X126000Y184500D01*
Y202500D01*
X130929Y207429D01*
Y212469D01*
G01X114966Y186500D02*
X123000D01*
X125000Y188500D01*
Y203000D01*
X126991Y204991D01*
Y212469D01*
G01X123052D02*
Y193552D01*
X122000Y192500D01*
X114966D01*
G01X121083Y208000D02*
Y200583D01*
X119000Y198500D01*
X114966D01*
G01X114756Y205000D02*
X118083D01*
X121083Y208000D01*
G01X113500Y209500D02*
Y206256D01*
X114756Y205000D01*
G01X125534Y84500D02*
Y80340D01*
X124500Y79306D01*
Y76966D01*
G01X137815Y110913D02*
X135490D01*
X129500Y104923D01*
Y96500D01*
X127500Y94500D01*
X124000D01*
G01X137815Y112488D02*
X135490D01*
X135456Y112454D01*
X135454D01*
X134913Y111913D01*
X128535Y105535D01*
X128520Y105518D01*
X128500Y105489D01*
Y99000D01*
X128000Y98500D01*
X124000D01*
G01X121083Y208000D02*
Y212469D01*
G01X125534Y84500D02*
Y87034D01*
X132000Y93500D01*
X141624D01*
X144114Y95990D01*
Y98315D01*
G01X137815Y118787D02*
X128537D01*
X127250Y117500D01*
X125000D01*
G01X138806Y212469D02*
Y208376D01*
X139250Y207932D01*
Y206068D01*
X137182Y204000D01*
X133500D01*
X130000Y200500D01*
Y135000D01*
X135189Y129811D01*
X137815D01*
G01Y125087D02*
X135413D01*
X127000Y133500D01*
Y202000D01*
X134867Y209867D01*
Y212469D01*
G01X132492Y168950D02*
Y167492D01*
X131000Y166000D01*
Y135500D01*
X135114Y131386D01*
X137815D01*
G01X136836Y212469D02*
Y210165D01*
X128000Y201329D01*
Y134000D01*
X135339Y126661D01*
X137815D01*
G01X137000Y207000D02*
X135086D01*
X129000Y200914D01*
Y134500D01*
X135264Y128236D01*
X137815D01*
G01Y101465D02*
Y98815D01*
X137500Y98500D01*
G01X133000Y99000D02*
X135000Y101000D01*
Y104124D01*
X135490Y104614D01*
X137815D01*
G01X141590Y106090D02*
Y107410D01*
X141236Y107764D01*
X137815D01*
G01Y106189D02*
X132439D01*
X132000Y105750D01*
Y103500D01*
G01X141500Y102000D02*
Y102500D01*
X140961Y103039D01*
X137815D01*
G01X141500Y111500D02*
Y110000D01*
X140839Y109339D01*
X137815D01*
G01X139492Y168950D02*
X133000Y162458D01*
Y137025D01*
X135490Y134535D01*
X137815D01*
G01X135992Y168950D02*
X132000Y164958D01*
Y136000D01*
X135039Y132961D01*
X137815D01*
G01X152587Y212469D02*
Y199087D01*
X136000Y182500D01*
Y176000D01*
X132500Y172500D01*
G01X150619Y212470D02*
Y198533D01*
X135000Y182914D01*
Y178500D01*
X132500Y176000D01*
G01Y179500D02*
Y182000D01*
X148651Y198151D01*
Y212466D01*
G01X144713Y212469D02*
Y201213D01*
X142750Y199250D01*
X138750D01*
X136500Y201500D01*
G01X133500Y197500D02*
X143500D01*
X146682Y200682D01*
Y212464D01*
G01X133500Y217500D02*
X132898Y216898D01*
Y212469D01*
G01X142539Y137685D02*
Y182500D01*
G01X140000Y201500D02*
X142744Y204244D01*
Y212469D01*
G01X147855Y56355D02*
X154000Y62500D01*
X165500D01*
X168500Y65500D01*
Y68500D01*
G01X149539Y182500D02*
Y178329D01*
X154000Y173868D01*
Y173867D01*
X154500Y173368D01*
Y153381D01*
X154486Y153299D01*
Y147393D01*
X154000Y146907D01*
Y146746D01*
X147264Y140010D01*
Y137685D01*
G01X153039Y182500D02*
Y176243D01*
X155000Y174282D01*
X155500Y173782D01*
Y153297D01*
X155486Y153214D01*
Y146978D01*
X155000Y146493D01*
Y146171D01*
X148839Y140010D01*
Y137685D01*
G01X162428Y212457D02*
Y206928D01*
X156578Y201078D01*
X156577Y201077D01*
X156559Y201054D01*
X156549Y201035D01*
X156543Y201015D01*
X156539Y200986D01*
Y200953D01*
X156539Y198367D01*
X156539Y180360D01*
X156512Y180252D01*
X156510Y180247D01*
X156510Y180243D01*
X156509Y180241D01*
X156505Y180209D01*
X156501Y180175D01*
X156500Y180144D01*
Y153213D01*
X156486Y153130D01*
Y146564D01*
X156000Y146078D01*
Y145597D01*
X150413Y140010D01*
Y137685D01*
G01X145689D02*
Y140010D01*
X153000Y147321D01*
X153486Y147807D01*
Y153351D01*
X153492Y153416D01*
X153500Y153465D01*
Y172789D01*
X146039Y180250D01*
Y182500D01*
G01X152185Y56315D02*
X157370Y61500D01*
X171500D01*
X175500Y65500D01*
Y68084D01*
G01X156516Y56484D02*
X160532Y60500D01*
X178500D01*
X182500Y64500D01*
Y68084D01*
G01X168500Y68500D02*
Y82000D01*
X168000Y82500D01*
X167000D01*
X153563Y95937D01*
Y98315D01*
G01X175500Y68084D02*
Y83000D01*
X175000Y83500D01*
X168414D01*
X167500Y83500D01*
X155138Y95862D01*
Y98315D01*
G01X156713D02*
Y95787D01*
X168000Y84500D01*
X168828D01*
X168829Y84500D01*
X181500D01*
X182500Y83500D01*
Y68084D01*
G01X166364Y212457D02*
Y178607D01*
X158500Y170743D01*
Y151326D01*
X158486Y151312D01*
Y145146D01*
X153563Y140223D01*
Y137685D01*
G01X164396Y212457D02*
Y207396D01*
X157539Y200539D01*
Y197953D01*
X157539Y180238D01*
X157500Y180082D01*
Y179644D01*
X157500Y152799D01*
X157486Y152785D01*
Y146150D01*
X157000Y145664D01*
Y145074D01*
X151988Y140062D01*
Y137685D01*
G01X168332Y212454D02*
Y179161D01*
X159500Y170329D01*
Y150912D01*
X159486Y150898D01*
Y144732D01*
X155138Y140384D01*
Y137685D01*
G01X170300Y212453D02*
Y179714D01*
X160500Y169914D01*
Y150498D01*
X160486Y150484D01*
Y144318D01*
X156713Y140545D01*
Y137685D01*
G01X157500Y217500D02*
Y217000D01*
X156523Y216023D01*
Y212457D01*
G01X154555Y212469D02*
Y219555D01*
X155500Y220500D01*
G01X198500Y68000D02*
Y86500D01*
X197500Y87500D01*
X170072D01*
X170071Y87500D01*
X169500D01*
X161437Y95563D01*
Y98315D01*
G01X191500Y68084D02*
Y85500D01*
X190520Y86480D01*
X183434D01*
X183414Y86500D01*
X169657D01*
X169000Y86500D01*
X159862Y95638D01*
Y98315D01*
G01X165177Y56323D02*
X168354Y59500D01*
X179000D01*
X184000Y64500D01*
Y84500D01*
X183000Y85500D01*
X169243D01*
X168500Y85500D01*
X158287Y95713D01*
Y98315D01*
G01X164587D02*
Y95413D01*
X170500Y89500D01*
X198500D01*
X200758Y87242D01*
Y72492D01*
X210750Y62500D01*
X213000D01*
G01Y59000D02*
X210750D01*
X199758Y69992D01*
Y86742D01*
X198000Y88500D01*
X170486D01*
X170000Y88500D01*
X163012Y95488D01*
Y98315D01*
G01X188039Y182500D02*
X165500Y159961D01*
Y148426D01*
X165486Y148412D01*
Y142246D01*
X164587Y141347D01*
Y137685D01*
G01X177539Y186000D02*
Y183539D01*
X162500Y168500D01*
Y149669D01*
X162486Y149655D01*
Y143489D01*
X159862Y140865D01*
Y137685D01*
G01X173000Y194000D02*
Y181000D01*
X161500Y169500D01*
Y150083D01*
X161486Y150069D01*
Y143903D01*
X158287Y140704D01*
Y137685D01*
G01X184539Y182500D02*
X164500Y162461D01*
Y148840D01*
X164486Y148826D01*
Y142660D01*
X163012Y141186D01*
Y137685D01*
G01X181039Y182500D02*
X163500Y164961D01*
Y149255D01*
X163486Y149241D01*
Y143075D01*
X161437Y141026D01*
Y137685D01*
G01X160460Y212457D02*
Y220710D01*
X160500Y220750D01*
Y223000D01*
G01X168500Y68500D02*
X167034Y67034D01*
X165000D01*
G01X167736Y98315D02*
Y95264D01*
X171500Y91500D01*
X199343D01*
X202758Y88085D01*
Y77492D01*
X210750Y69500D01*
X213000D01*
G01X166161Y98315D02*
Y95339D01*
X171000Y90500D01*
X198929D01*
X201758Y87671D01*
Y74992D01*
X210750Y66000D01*
X213000D01*
G01X169311Y98315D02*
Y95189D01*
X172000Y92500D01*
X199757D01*
X204000Y88257D01*
Y79750D01*
X210750Y73000D01*
X213000D01*
G01X170886Y98315D02*
Y95114D01*
X172500Y93500D01*
X187814D01*
X200171Y93500D01*
X205000Y88671D01*
Y82250D01*
X210750Y76500D01*
X213000D01*
G01X185500Y171500D02*
X178500D01*
X166500Y159500D01*
Y148012D01*
X166486Y147998D01*
Y141832D01*
X166161Y141507D01*
Y137685D01*
G01X173839Y55339D02*
X177000Y58500D01*
X187500D01*
X191500Y62500D01*
Y68084D01*
G01X172000Y67034D02*
X174450D01*
X175500Y68084D01*
G01X172461Y98315D02*
Y95000D01*
X172961Y94500D01*
X188229D01*
X200586Y94500D01*
X206000Y89086D01*
Y84500D01*
X210500Y80000D01*
X213000D01*
G01Y83500D02*
X210750D01*
X207000Y87250D01*
Y89500D01*
X201000Y95500D01*
X188643D01*
X174525Y95500D01*
X174035Y95990D01*
Y98315D01*
G01X177185Y103039D02*
X178147D01*
X178577Y103469D01*
X180702D01*
X182171Y102000D01*
X196086D01*
X200086Y98000D01*
X207586D01*
X216000Y89586D01*
Y69586D01*
X219086Y66500D01*
X239648D01*
X240562Y65586D01*
Y54937D01*
X237125Y51500D01*
G01X177185Y104614D02*
X178018D01*
X178163Y104469D01*
X181117D01*
X182586Y103000D01*
X196500D01*
X200500Y99000D01*
X208000D01*
X217000Y90000D01*
Y70000D01*
X219500Y67500D01*
X240062D01*
X241562Y66000D01*
Y54937D01*
X244999Y51500D01*
G01X177185Y106189D02*
X180811D01*
X183000Y104000D01*
X192914D01*
X197000Y104000D01*
X201000Y100000D01*
X211500D01*
X212000Y100500D01*
Y113913D01*
X215575Y117488D01*
X219000D01*
G01X177185Y114063D02*
X180563D01*
X181000Y114500D01*
Y115500D01*
X182980Y117480D01*
X193056D01*
X193076Y117500D01*
X196000D01*
X199500Y114000D01*
Y105500D01*
X201256Y103744D01*
X202500D01*
G01Y109256D02*
Y113000D01*
X197000Y118500D01*
X192662D01*
X192642Y118480D01*
X183358D01*
X183338Y118500D01*
X181000D01*
X180500Y118000D01*
Y116628D01*
X179510Y115638D01*
X177185D01*
G01X202000Y123756D02*
X196244D01*
X194500Y125500D01*
X183000D01*
X181012Y123512D01*
X177185D01*
G01Y126661D02*
X195397D01*
X199480Y130744D01*
X202000D01*
G01X174237Y212456D02*
Y210311D01*
X175500Y209048D01*
Y205500D01*
X174500Y204500D01*
Y201000D01*
G01X173000Y208000D02*
X172269Y208731D01*
Y212457D01*
G01X178170Y55330D02*
X180340Y57500D01*
X194500D01*
X198500Y61500D01*
Y68000D01*
G01X182500Y68084D02*
X181450Y67034D01*
X179000D01*
G01X183500Y191000D02*
X187000Y194500D01*
Y201000D01*
X182109Y205891D01*
Y212457D01*
G01X180141D02*
Y206359D01*
X185750Y200750D01*
Y196750D01*
X183500Y194500D01*
G01X178173Y212457D02*
Y199827D01*
X180000Y198000D01*
X183500D01*
G01X184000Y229500D02*
Y215744D01*
X184077Y215667D01*
Y212457D01*
G01X191500Y68084D02*
X190450Y67034D01*
X188000D01*
G01X189982Y212457D02*
Y201518D01*
X196000Y195500D01*
X236500D01*
X240000Y199000D01*
Y215076D01*
X242390Y217466D01*
X242500D01*
G01X192500Y229500D02*
X188014Y225014D01*
Y212457D01*
G01X188000Y229500D02*
X186046Y227546D01*
Y212457D01*
G01X198500Y68000D02*
X197534Y67034D01*
X195000D01*
G01X191950Y212457D02*
Y201050D01*
X196000Y197000D01*
X231500D01*
X233500Y199000D01*
Y214576D01*
X236390Y217466D01*
X236500D01*
G01X209244Y103000D02*
X205764D01*
X205020Y103744D01*
X202500D01*
G01X209244Y110000D02*
X205764D01*
X205020Y109256D01*
X202500D01*
G01X202000Y123756D02*
X205760D01*
X206050Y123466D01*
X208500D01*
G01Y131034D02*
X204810D01*
X204520Y130744D01*
X202000D01*
G01X212500Y217466D02*
X199534D01*
G01X219500Y222500D02*
Y218466D01*
X218500Y217466D01*
G01X226500Y100500D02*
X239508D01*
G01X239507Y135500D02*
X234622D01*
X228000Y142122D01*
Y181500D01*
X235500Y189000D01*
X241500D01*
G01X230500Y163500D02*
Y179000D01*
G01Y217466D02*
Y222500D01*
G01X224500Y217466D02*
Y222500D01*
G01X234000Y163500D02*
Y179000D01*
G01X294500Y7000D02*
X287000Y14500D01*
Y62500D01*
X283000Y66500D01*
X248500D01*
X245493Y69507D01*
Y82568D01*
G01X309500Y199000D02*
X265000D01*
X245493Y179493D01*
Y153433D01*
G01X250493D02*
Y174493D01*
X255000Y179000D01*
X309500D01*
G01X260493Y82568D02*
Y76477D01*
X260466Y76450D01*
Y74000D01*
G01X265493Y82568D02*
Y84833D01*
X281160Y100500D01*
X284000D01*
G01X270492Y82568D02*
Y87453D01*
X281289Y98250D01*
X288750D01*
X291000Y96000D01*
G01X275492Y82568D02*
Y87492D01*
X284000Y96000D01*
G01X280534Y171500D02*
X271512D01*
G01X280244Y165000D02*
Y161256D01*
X282000Y159500D01*
X299310D01*
X300492Y158318D01*
Y153433D01*
G01X280244Y165000D02*
Y171210D01*
X280534Y171500D01*
G01X290492Y82568D02*
Y43508D01*
X295000Y39000D01*
X309500D01*
G01X295492Y82568D02*
Y52008D01*
X298500Y49000D01*
X309500D01*
G01X305500Y101500D02*
Y87461D01*
X305492Y87453D01*
Y82568D01*
G01X0Y231220D02*
Y5000D01*
G03X5000Y0I5000J0D01*
G01X309961D01*
G03X314961Y5000I0J5000D01*
G01Y231220D01*
G03X309961Y236220I-5000J0D01*
G01X5000D01*
G03X0Y231220I0J-5000D01*
G54D17*
X33492Y10492D03*
X67508D03*
G54D26*
X84500Y65744D03*
Y71256D03*
Y79244D03*
Y84756D03*
X86000Y136244D03*
Y141756D03*
Y148744D03*
Y154256D03*
X102000Y99244D03*
Y104756D03*
X135000Y72744D03*
Y78256D03*
X138000Y149744D03*
Y155256D03*
X145500Y149744D03*
Y155256D03*
X169500Y149244D03*
Y154756D03*
X176500Y149244D03*
Y154756D03*
X202500Y103744D03*
Y109256D03*
X202000Y118244D03*
Y123756D03*
Y130744D03*
Y136256D03*
G54D35*
X213504Y40831D03*
X268622Y40830D03*
G54D45*
G01X26966Y69500D02*
Y69610D01*
X30280Y72924D01*
G01D02*
X42595D01*
G01X49516Y29508D02*
Y26472D01*
X49947Y26041D01*
Y17815D01*
X51762Y16000D01*
X98689D01*
X101150Y18462D01*
Y25624D01*
X103000Y27474D01*
Y31809D01*
G01X98000D02*
Y27474D01*
X99850Y25624D01*
Y19000D01*
X98150Y17300D01*
X52300D01*
X51247Y18353D01*
Y25345D01*
G01X47547Y29508D02*
Y25047D01*
G01X51247Y25345D02*
X51484Y25582D01*
Y29508D01*
G01X51247Y25345D02*
X51545Y25047D01*
X52953D01*
X54500Y23500D01*
G01X49516Y29508D02*
X49994Y29986D01*
Y32441D01*
X50521Y32968D01*
X52447D01*
X52974Y32441D01*
Y29987D01*
X53453Y29508D01*
G01X54406Y74499D02*
X79560D01*
X84305Y79244D01*
G01X80162Y72924D02*
X54406D01*
G01X91000Y71466D02*
X87380D01*
X87170Y71256D01*
X84500D01*
G01D02*
X81830D01*
X80162Y72924D01*
G01X84500Y79244D02*
X87170D01*
X87380Y79034D01*
X91000D01*
G01X84305Y79244D02*
X84500D01*
G01X97000Y71466D02*
X91000D01*
G01Y79034D02*
X97000D01*
G01X146256Y86000D02*
Y85805D01*
X148467Y83594D01*
Y75459D01*
X145064Y72055D01*
X144669D01*
G01X150413Y98315D02*
Y90913D01*
X149000Y89500D01*
X147086D01*
X146256Y88670D01*
Y86000D01*
G01X153244D02*
Y82292D01*
X153331Y82205D01*
Y78945D01*
G01X151988Y98315D02*
Y89926D01*
X153244Y88670D01*
Y86000D01*
G54D36*
X218000Y230500D03*
X284500Y7000D03*
G54D18*
X33492Y26950D03*
X67508D03*
G54D27*
X88000Y9191D03*
Y31809D03*
X98000Y9191D03*
X93000D03*
Y31809D03*
X98000D03*
X103000Y9191D03*
Y31809D03*
X108000Y9191D03*
Y31809D03*
X118000Y9191D03*
X113000D03*
Y31809D03*
X118000D03*
X123000Y9191D03*
Y31809D03*
G54D46*
G01X25966Y21000D02*
X39964D01*
X45579Y26615D01*
Y29508D01*
G01X20034Y21000D02*
Y25966D01*
G01X21034Y63500D02*
Y63390D01*
X23331Y61093D01*
Y60169D01*
X27500Y56000D01*
G01X46927Y80405D02*
Y103517D01*
X44500Y105944D01*
Y108534D01*
G01X39350Y232040D02*
X45000D01*
G01D02*
X47853D01*
X48325Y232512D01*
X52000D01*
G01X48500Y68594D02*
Y50000D01*
X46500Y48000D01*
X46466D01*
G01X50500Y108534D02*
Y105500D01*
X48501Y103501D01*
Y80405D01*
G01X52000Y232512D02*
X59000D01*
G01X74534Y21000D02*
X60000D01*
X57390Y23610D01*
Y29508D01*
G01X53756Y37000D02*
Y40842D01*
X55500Y42586D01*
Y44000D01*
G01X59000Y232512D02*
X66000D01*
G01X80466Y21000D02*
Y27466D01*
G01X79000Y153966D02*
Y159500D01*
G01X86000Y154256D02*
Y159500D01*
G01Y154256D02*
X86244D01*
G01X97000Y65534D02*
Y60000D01*
G01Y84966D02*
X103034D01*
G01X107500Y98000D02*
X107000D01*
X105756Y99244D01*
X102000D01*
G01X108000Y31809D02*
Y39000D01*
G01X113244Y101500D02*
X107500D01*
G01X112744Y113500D02*
X107000D01*
G01X112744Y120500D02*
X107000D01*
G01X112744Y127500D02*
X107000D01*
G01X112744Y134500D02*
X107000D01*
G01X124500Y71034D02*
X118534D01*
G01X123000Y9191D02*
X128860D01*
X129169Y9500D01*
X131744D01*
G01X123000Y31809D02*
X129809D01*
G01X131744Y9500D02*
Y15256D01*
G01X135000Y78256D02*
X132230D01*
X131500Y77526D01*
G01X137256Y9500D02*
Y15756D01*
G01X135000Y72744D02*
Y67000D01*
G01Y78256D02*
Y86914D01*
X138086Y90000D01*
X143453D01*
X143498Y90004D01*
X143535Y90035D01*
X148839Y95339D01*
Y98315D01*
G01X138000Y149744D02*
Y144000D01*
X137500Y143500D01*
G01X140965Y137685D02*
Y146974D01*
X138195Y149744D01*
X138000D01*
G01Y155256D02*
Y160000D01*
G01X140775Y212469D02*
Y219725D01*
X137000Y223500D01*
G01X145500Y65500D02*
X142000D01*
G01X139500Y69000D02*
Y72500D01*
G01Y76000D02*
Y80000D01*
G01Y72500D02*
Y76000D01*
G01X140744Y86000D02*
Y81244D01*
X139500Y80000D01*
G01D02*
X143614D01*
X144669Y78945D01*
G01X144114Y137685D02*
Y145783D01*
X145500Y147169D01*
Y149744D01*
G01X149000Y65500D02*
X145500D01*
G01X152500D02*
X149000D01*
G01X145500Y155256D02*
X145695D01*
X148500Y158061D01*
Y159000D01*
G01X145500Y149744D02*
X150244D01*
G01X159000Y69000D02*
Y68500D01*
X156000Y65500D01*
G01D02*
X152500D01*
G01X159000Y72500D02*
X153776D01*
X153331Y72055D01*
G01X158500Y72000D02*
X158445Y72055D01*
X153331D01*
G01X158756Y86195D02*
X156474Y88477D01*
G01X158756Y86195D02*
Y86244D01*
X156000Y89000D01*
X157019D01*
Y89462D01*
G01X162500Y113000D02*
X157500Y118000D01*
G01X158492Y212457D02*
Y207992D01*
X156500Y206000D01*
G01X159000Y72500D02*
Y69000D01*
G01Y76500D02*
Y72500D01*
G01X158756Y81756D02*
Y86000D01*
G01X159000Y80500D02*
Y76500D01*
G01Y80500D02*
X158756Y80744D01*
Y81756D01*
G01D02*
X158500Y81500D01*
G01X158756Y86000D02*
Y86195D01*
G01X168536Y110500D02*
X165000D01*
X162500Y113000D01*
G01X165000Y72966D02*
Y77500D01*
G01X169311Y137685D02*
Y142311D01*
X172500Y145500D01*
Y148014D01*
X173730Y149244D01*
G01X167736Y137685D02*
Y144905D01*
X169500Y146669D01*
Y149244D01*
G01Y154756D02*
X169695D01*
X174500Y159561D01*
Y160500D01*
G01X169500Y149244D02*
X173730D01*
G01X172000Y72966D02*
Y77500D01*
G01X178000Y98000D02*
X183744D01*
G01D02*
X185244D01*
Y98195D01*
X184244Y99195D01*
X180635D01*
X178365Y101465D01*
X177185D01*
G01Y107764D02*
X181905D01*
X182669Y107000D01*
X185244D01*
G01X172790Y122500D02*
Y112733D01*
X174610Y110913D01*
X177185D01*
G01D02*
X182352D01*
X185244Y113805D01*
Y114000D01*
G01X177185Y121937D02*
X180563D01*
X181500Y121000D01*
X185244D01*
G01X176500Y154756D02*
X181256D01*
G01X173730Y149244D02*
X176500D01*
G01D02*
X182744D01*
G01X176000Y217500D02*
Y212659D01*
X176205Y212454D01*
G01X179000Y72966D02*
Y77500D01*
G01X184744Y99000D02*
X183744Y98000D01*
G01X188000Y72966D02*
Y77500D01*
G01X190256Y99000D02*
X194000D01*
G01X188000Y110500D02*
Y109951D01*
X185244Y107195D01*
Y107000D01*
G01X195000Y72966D02*
Y77500D01*
G01X196000Y201500D02*
X195244Y202256D01*
Y205500D01*
G01X212500Y211534D02*
X218500D01*
G01X226966Y110000D02*
Y120534D01*
X222000Y125500D01*
G01X221500Y211534D02*
Y203500D01*
G01X224500Y211534D02*
X221500D01*
G01D02*
X218500D01*
G01X224500D02*
X230500D01*
G01X236500D02*
Y203500D01*
G01X239507Y140500D02*
X248500D01*
G01X242500Y211534D02*
Y203500D01*
G01X254534Y74000D02*
X249000D01*
G01X254841Y47844D02*
Y51499D01*
G01D02*
Y55154D01*
G01X251186Y51499D02*
X254841D01*
G01D02*
X258496D01*
G01X255488Y171500D02*
Y164012D01*
G01X280255Y7000D02*
X284500D01*
G01Y2755D02*
Y7000D01*
G01D02*
Y11245D01*
G01Y7000D02*
X288745D01*
G01X288000Y226255D02*
Y230500D01*
G01D02*
Y234745D01*
G01X283755Y230500D02*
X288000D01*
G01D02*
X292245D01*
G01X309500Y54955D02*
Y59000D01*
G01D02*
Y63045D01*
G01X305455Y59000D02*
X309500D01*
G01D02*
X313545D01*
G01X310493Y82568D02*
Y89993D01*
G01Y153433D02*
Y144507D01*
G54D28*
X112382Y225547D03*
X202618D03*
G54D37*
X227282Y51499D03*
X237125Y51500D03*
X244999D03*
X254841Y51499D03*
G54D19*
X33050Y232020D03*
X39350Y232040D03*
G54D29*
X119114Y212469D03*
X121083D03*
X123052D03*
X125022D03*
X126991D03*
X128960D03*
X130929D03*
X132898D03*
X134867D03*
X136836D03*
X138806D03*
X140775D03*
X142744D03*
X144713D03*
X146682Y212464D03*
X148651Y212466D03*
X150619Y212470D03*
X152587Y212469D03*
X154555D03*
X156523Y212457D03*
X158492D03*
X160460D03*
X162428D03*
X164396D03*
X166364D03*
X168332Y212454D03*
X170300Y212453D03*
X172269Y212457D03*
X174237Y212456D03*
X176205Y212454D03*
X178173Y212457D03*
X180141D03*
X182109D03*
X184077D03*
X186046D03*
X188014D03*
X189982D03*
X191950D03*
X193918D03*
X195886D03*
G54D38*
X228000Y230500D03*
X238000D03*
X248000D03*
X258000D03*
X268000D03*
X278000D03*
X288000D03*
X294500Y7000D03*
G54D39*
X239508Y95500D03*
Y100500D03*
Y105500D03*
Y110500D03*
Y115500D03*
X239507Y120500D03*
Y125500D03*
Y130500D03*
Y135500D03*
Y140500D03*
M02*
