G04 ================== begin FILE IDENTIFICATION RECORD ==================*
G04 Layout Name:  F:/OneDrive/Projects/PCB/f1c200s/allegro/f1c200s.brd*
G04 Film Name:    02_GND*
G04 File Format:  Gerber RS274X*
G04 File Origin:  Cadence Allegro 17.4-S037*
G04 Origin Date:  Fri Jun 21 00:18:07 2024*
G04 *
G04 Layer:  BOARD GEOMETRY/DESIGN_OUTLINE*
G04 Layer:  ETCH/GND*
G04 Layer:  PIN/GND*
G04 Layer:  VIA CLASS/GND*
G04 *
G04 Offset:    (0.000 0.000)*
G04 Mirror:    No*
G04 Mode:      Positive*
G04 Rotation:  0*
G04 FullContactRelief:  No*
G04 UndefLineWidth:     5.000*
G04 ================== end FILE IDENTIFICATION RECORD ====================*
%FSLAX25Y25*MOIN*%
%IR0*IPPOS*OFA0.00000B0.00000*MIA0B0*SFA1.00000B1.00000*%
%ADD15C,.122*%
%ADD10C,.126*%
%ADD11C,.03*%
%ADD14C,.024*%
%ADD12O,.047201X.070902*%
%ADD18C,.070902*%
%ADD13O,.047201X.078701*%
%ADD20C,.066902*%
%ADD16R,.070902X.070902*%
%ADD19R,.066902X.066902*%
%ADD17C,.059098*%
%ADD21C,.01*%
%ADD22C,.005*%
%ADD29C,.132004*%
%ADD23C,.136004*%
%ADD24C,.040004*%
%ADD27C,.034004*%
%ADD28C,.069102*%
%ADD31C,.053344*%
%ADD25C,.080906*%
%ADD30C,.037584*%
%ADD26C,.076906*%
%ADD32O,.057204X.088704*%
G75*
%LPD*%
G75*
G36*
G01X5000Y0D02*
G02X0Y5000I0J5000D01*
G01Y231220D01*
G02X5000Y236220I5000J0D01*
G01X309961D01*
G02X314961Y231220I0J-5000D01*
G01Y5000D01*
G02X309961Y0I-5000J0D01*
G01X5000D01*
G37*
%LPC*%
G75*
G36*
G01X150389Y57195D02*
G02X152185Y58315I1796J-880D01*
G02X153956Y57245I0J-2000D01*
G03X154678Y57273I354J186D01*
G02X156516Y58484I1838J-789D01*
G02Y54484I0J-2000D01*
G02X154745Y55554I0J2000D01*
G03X154023Y55526I-354J-186D01*
G02X152185Y54315I-1838J789D01*
G02X150373Y55468I0J2000D01*
G03X149651Y55475I-362J-169D01*
G02X147855Y54355I-1796J880D01*
G02Y58355I0J2000D01*
G02X149667Y57202I0J-2000D01*
G03X150389Y57195I362J169D01*
G37*
G36*
G01X175642Y54473D02*
G02X173839Y53339I-1803J866D01*
G02Y57339I0J2000D01*
G02X175645Y56198I0J-2000D01*
G03X176367Y56196I361J172D01*
G02X178170Y57330I1803J-866D01*
G02Y53330I0J-2000D01*
G02X176364Y54471I0J2000D01*
G03X175642Y54473I-361J-172D01*
G37*
G36*
G01X186333Y228394D02*
G03X185667I-333J-221D01*
G02X184000Y227500I-1667J1106D01*
G02Y231500I0J2000D01*
G02X185667Y230606I0J-2000D01*
G03X186333I333J221D01*
G02X188000Y231500I1667J-1106D01*
G02Y227500I0J-2000D01*
G02X186333Y228394I0J2000D01*
G37*
G36*
G01X155568Y218018D02*
G03X155235Y218518I-386J104D01*
G02X153500Y220500I265J1982D01*
G02X157500I2000J0D01*
G02X157432Y219982I-2000J0D01*
G03X157765Y219482I386J-104D01*
G02X159500Y217500I-265J-1982D01*
G02X155500I-2000J0D01*
G02X155568Y218018I2000J0D01*
G37*
G36*
G01X138542Y200131D02*
G03X137958I-292J-274D01*
G02X136500Y199500I-1458J1369D01*
G02Y203500I0J2000D01*
G02X137958Y202869I0J-2000D01*
G03X138542I292J274D01*
G02X140000Y203500I1458J-1369D01*
G02Y199500I0J-2000D01*
G02X138542Y200131I0J2000D01*
G37*
G36*
G01X182131Y195958D02*
G03Y196542I-274J292D01*
G02X181500Y198000I1369J1458D01*
G02X185500I2000J0D01*
G02X184869Y196542I-2000J0D01*
G03Y195958I274J-292D01*
G02Y193042I-1369J-1458D01*
G03Y192458I274J-292D01*
G02X185500Y191000I-1369J-1458D01*
G02X181500I-2000J0D01*
G02X182131Y192458I2000J0D01*
G03Y193042I-274J292D01*
G02Y195958I1369J1458D01*
G37*
G36*
G01X182497Y183869D02*
G03X183081I292J274D01*
G02X185997I1458J-1369D01*
G03X186581I292J274D01*
G02X188039Y184500I1458J-1369D01*
G02Y180500I0J-2000D01*
G02X186581Y181131I0J2000D01*
G03X185997I-292J-274D01*
G02X183081I-1458J1369D01*
G03X182497I-292J-274D01*
G02X181039Y180500I-1458J1369D01*
G02Y184500I0J2000D01*
G02X182497Y183869I0J-2000D01*
G37*
G36*
G01X147497D02*
G03X148081I292J274D01*
G02X150997I1458J-1369D01*
G03X151581I292J274D01*
G02X153039Y184500I1458J-1369D01*
G02Y180500I0J-2000D01*
G02X151581Y181131I0J2000D01*
G03X150997I-292J-274D01*
G02X148081I-1458J1369D01*
G03X147497I-292J-274D01*
G02X144581I-1458J1369D01*
G03X143997I-292J-274D01*
G02X142539Y180500I-1458J1369D01*
G02Y184500I0J2000D01*
G02X143997Y183869I0J-2000D01*
G03X144581I292J274D01*
G02X147497I1458J-1369D01*
G37*
G36*
G01X131131Y177458D02*
G03Y178042I-274J292D01*
G02X130500Y179500I1369J1458D01*
G02X134500I2000J0D01*
G02X133869Y178042I-2000J0D01*
G03Y177458I274J-292D01*
G02Y174542I-1369J-1458D01*
G03Y173958I274J-292D01*
G02X134500Y172500I-1369J-1458D01*
G02X133843Y171018I-2000J0D01*
G03X133842Y170426I269J-296D01*
G02X133950Y170318I-1350J-1476D01*
G03X134534I292J274D01*
G02X137450I1458J-1369D01*
G03X138034I292J274D01*
G02X139492Y170950I1458J-1369D01*
G02Y166949I0J-2000D01*
G02X138034Y167581I0J2000D01*
G03X137450I-292J-274D01*
G02X134534I-1458J1369D01*
G03X133950I-292J-274D01*
G02X132492Y166949I-1458J1369D01*
G02X130492Y168950I0J2000D01*
G02X131149Y170432I2000J0D01*
G03X131150Y171024I-269J296D01*
G02X130500Y172500I1350J1476D01*
G02X131131Y173958I2000J0D01*
G03Y174542I-274J292D01*
G02Y177458I1369J1458D01*
G37*
G36*
G01X232542Y177631D02*
G03X231958I-292J-274D01*
G02X230500Y177000I-1458J1369D01*
G02Y181000I0J2000D01*
G02X231958Y180369I0J-2000D01*
G03X232542I292J274D01*
G02X234000Y181000I1458J-1369D01*
G02Y177000I0J-2000D01*
G02X232542Y177631I0J2000D01*
G37*
G36*
G01X17131Y162958D02*
G03Y163542I-274J292D01*
G02X16500Y165000I1369J1458D01*
G02X20500I2000J0D01*
G02X19869Y163542I-2000J0D01*
G03Y162958I274J-292D01*
G02X20500Y161500I-1369J-1458D01*
G02X16500I-2000J0D01*
G02X17131Y162958I2000J0D01*
G37*
G36*
G01X232542Y162131D02*
G03X231958I-292J-274D01*
G02X230500Y161500I-1458J1369D01*
G02Y165500I0J2000D01*
G02X231958Y164869I0J-2000D01*
G03X232542I292J274D01*
G02X234000Y165500I1458J-1369D01*
G02Y161500I0J-2000D01*
G02X232542Y162131I0J2000D01*
G37*
G36*
G01X118006Y141938D02*
G03X118256Y142521I-99J388D01*
G02X118000Y143500I1745J979D01*
G02X122000I2000J0D01*
G02X120494Y141562I-2000J0D01*
G03X120244Y140979I99J-388D01*
G02X120500Y140000I-1745J-979D01*
G02X116500I-2000J0D01*
G02X118006Y141938I2000J0D01*
G37*
G36*
G01X53667Y133106D02*
G03X54333I333J221D01*
G02X57667I1667J-1106D01*
G03X58333I333J221D01*
G02X60000Y134000I1667J-1106D01*
G02X62000Y132000I0J-2000D01*
G02X61106Y130333I-2000J0D01*
G03Y129667I221J-333D01*
G02X62000Y128000I-1106J-1667D01*
G02X60000Y126000I-2000J0D01*
G02X58333Y126894I0J2000D01*
G03X57667I-333J-221D01*
G02X54333I-1667J1106D01*
G03X53667I-333J-221D01*
G02X50333I-1667J1106D01*
G03X49667I-333J-221D01*
G02X46333I-1667J1106D01*
G03X45667I-333J-221D01*
G02X42333I-1667J1106D01*
G03X41667I-333J-221D01*
G02X38333I-1667J1106D01*
G03X37667I-333J-221D01*
G02X36000Y126000I-1667J1106D01*
G02X34000Y128000I0J2000D01*
G02X34894Y129667I2000J0D01*
G03Y130333I-221J333D01*
G02X34000Y132000I1106J1667D01*
G02X36000Y134000I2000J0D01*
G02X37667Y133106I0J-2000D01*
G03X38333I333J221D01*
G02X41667I1667J-1106D01*
G03X42333I333J221D01*
G02X45667I1667J-1106D01*
G03X46333I333J221D01*
G02X49667I1667J-1106D01*
G03X50333I333J221D01*
G02X53667I1667J-1106D01*
G37*
G36*
G01X122894Y96167D02*
G03Y96833I-221J333D01*
G02X122000Y98500I1106J1667D01*
G02X126000I2000J0D01*
G02X125106Y96833I-2000J0D01*
G03Y96167I221J-333D01*
G02X126000Y94500I-1106J-1667D01*
G02X122000I-2000J0D01*
G02X122894Y96167I2000J0D01*
G37*
G36*
G01X107958Y94869D02*
G03X108542I292J274D01*
G02X111458I1458J-1369D01*
G03X112042I292J274D01*
G02X113500Y95500I1458J-1369D01*
G02Y91500I0J-2000D01*
G02X112042Y92131I0J2000D01*
G03X111458I-292J-274D01*
G02X108542I-1458J1369D01*
G03X107958I-292J-274D01*
G02X105042I-1458J1369D01*
G03X104458I-292J-274D01*
G02X101542I-1458J1369D01*
G03X100958I-292J-274D01*
G02X99500Y91500I-1458J1369D01*
G02Y95500I0J2000D01*
G02X100958Y94869I0J-2000D01*
G03X101542I292J274D01*
G02X104458I1458J-1369D01*
G03X105042I292J274D01*
G02X107958I1458J-1369D01*
G37*
G36*
G01X211631Y81458D02*
G03Y82042I-274J292D01*
G02X211000Y83500I1369J1458D01*
G02X215000I2000J0D01*
G02X214369Y82042I-2000J0D01*
G03Y81458I274J-292D01*
G02Y78542I-1369J-1458D01*
G03Y77958I274J-292D01*
G02Y75042I-1369J-1458D01*
G03Y74458I274J-292D01*
G02Y71542I-1369J-1458D01*
G03Y70958I274J-292D01*
G02Y68042I-1369J-1458D01*
G03Y67458I274J-292D01*
G02Y64542I-1369J-1458D01*
G03Y63958I274J-292D01*
G02Y61042I-1369J-1458D01*
G03Y60458I274J-292D01*
G02X215000Y59000I-1369J-1458D01*
G02X211000I-2000J0D01*
G02X211631Y60458I2000J0D01*
G03Y61042I-274J292D01*
G02Y63958I1369J1458D01*
G03Y64542I-274J292D01*
G02Y67458I1369J1458D01*
G03Y68042I-274J292D01*
G02Y70958I1369J1458D01*
G03Y71542I-274J292D01*
G02Y74458I1369J1458D01*
G03Y75042I-274J292D01*
G02Y77958I1369J1458D01*
G03Y78542I-274J292D01*
G02Y81458I1369J1458D01*
G37*
G36*
G01X10894Y74667D02*
G03Y75333I-221J333D01*
G02X10000Y77000I1106J1667D01*
G02X12000Y79000I2000J0D01*
G02X13667Y78106I0J-2000D01*
G03X14333I333J221D01*
G02X16000Y79000I1667J-1106D01*
G02X18000Y77000I0J-2000D01*
G02X17106Y75333I-2000J0D01*
G03Y74667I221J-333D01*
G02Y71333I-1106J-1667D01*
G03Y70667I221J-333D01*
G02X18000Y69000I-1106J-1667D01*
G02X16000Y67000I-2000J0D01*
G02X14333Y67894I0J2000D01*
G03X13667I-333J-221D01*
G02X12000Y67000I-1667J1106D01*
G02X10000Y69000I0J2000D01*
G02X10894Y70667I2000J0D01*
G03Y71333I-221J333D01*
G02Y74667I1106J1667D01*
G37*
G36*
G01X85667Y61606D02*
G03X86333I333J221D01*
G02X89667I1667J-1106D01*
G03X90333I333J221D01*
G02X92000Y62500I1667J-1106D01*
G02X94000Y60500I0J-2000D01*
G02X93369Y59042I-2000J0D01*
G03Y58458I274J-292D01*
G02X94000Y57000I-1369J-1458D01*
G02X92000Y55000I-2000J0D01*
G02X90333Y55894I0J2000D01*
G03X89667I-333J-221D01*
G02X86333I-1667J1106D01*
G03X85667I-333J-221D01*
G02X84000Y55000I-1667J1106D01*
G02X82000Y57000I0J2000D01*
G02X82631Y58458I2000J0D01*
G03Y59042I-274J292D01*
G02X82000Y60500I1369J1458D01*
G02X84000Y62500I2000J0D01*
G02X85667Y61606I0J-2000D01*
G37*
G36*
G01X62833Y41894D02*
G03X62167I-333J-221D01*
G02X60500Y41000I-1667J1106D01*
G02Y45000I0J2000D01*
G02X62167Y44106I0J-2000D01*
G03X62833I333J221D01*
G02X64500Y45000I1667J-1106D01*
G02Y41000I0J-2000D01*
G02X62833Y41894I0J2000D01*
G37*
G36*
G01X44167Y43606D02*
G03X44833I333J221D01*
G02X48167I1667J-1106D01*
G03X48833I333J221D01*
G02X50500Y44500I1667J-1106D01*
G02Y40500I0J-2000D01*
G02X48833Y41394I0J2000D01*
G03X48167I-333J-221D01*
G02X44833I-1667J1106D01*
G03X44167I-333J-221D01*
G02X40833I-1667J1106D01*
G03X40167I-333J-221D01*
G02X38500Y40500I-1667J1106D01*
G02Y44500I0J2000D01*
G02X40167Y43606I0J-2000D01*
G03X40833I333J221D01*
G02X44167I1667J-1106D01*
G37*
G36*
G01X150000Y91000D02*
Y100000D01*
X152500D01*
Y91500D01*
X158500Y85500D01*
Y69500D01*
X156000Y67000D01*
X143000D01*
X141000Y69000D01*
Y86000D01*
X145000Y90000D01*
X149000D01*
X150000Y91000D01*
G37*
G36*
G01X30632Y9307D02*
Y11677D01*
G02X36352I2860J0D01*
G01Y9307D01*
G02X30632I-2860J0D01*
G37*
G36*
G01X64648D02*
Y11677D01*
G02X70368I2860J0D01*
G01Y9307D01*
G02X64648I-2860J0D01*
G37*
G36*
G01X280455Y3455D02*
Y10545D01*
G02X280955Y11045I500J0D01*
G01X288045D01*
G02X288545Y10545I0J-500D01*
G01Y3455D01*
G02X288045Y2955I-500J0D01*
G01X280955D01*
G02X280455Y3455I0J500D01*
G37*
G36*
G01X305655Y35655D02*
Y42345D01*
G02X306155Y42845I500J0D01*
G01X312845D01*
G02X313345Y42345I0J-500D01*
G01Y35655D01*
G02X312845Y35155I-500J0D01*
G01X306155D01*
G02X305655Y35655I0J500D01*
G37*
G36*
G01Y195655D02*
Y202345D01*
G02X306155Y202845I500J0D01*
G01X312845D01*
G02X313345Y202345I0J-500D01*
G01Y195655D01*
G02X312845Y195155I-500J0D01*
G01X306155D01*
G02X305655Y195655I0J500D01*
G37*
G36*
G01X213955Y226955D02*
Y234045D01*
G02X214455Y234545I500J0D01*
G01X221545D01*
G02X222045Y234045I0J-500D01*
G01Y226955D01*
G02X221545Y226455I-500J0D01*
G01X214455D01*
G02X213955Y226955I0J500D01*
G37*
G54D29*
X268622Y40830D03*
X213504Y40831D03*
G54D23*
X306750Y7750D03*
X8750Y8750D03*
X306750Y228250D03*
X8250Y227750D03*
G54D24*
X192500Y229500D03*
X230500Y222500D03*
X224500D03*
X219500D03*
X160500Y223000D03*
X199534Y217466D03*
X133500Y217500D03*
X39000Y220000D03*
X113500Y209500D03*
X109000Y215000D03*
X77000Y210000D03*
X41500D03*
X173000Y208000D03*
X137000Y207000D03*
X66534Y205034D03*
X51966Y205000D03*
X196000Y201500D03*
X174500Y201000D03*
X133500Y197500D03*
X101500Y198500D03*
X173000Y194000D03*
X101500Y192500D03*
X241500Y189000D03*
X177539Y186000D03*
X101500Y186500D03*
X102000Y180500D03*
X299000Y175000D03*
X286500D03*
X185500Y171500D03*
X114966Y174534D03*
X150244Y149744D03*
X182744Y149244D03*
X137500Y143500D03*
X82500Y145000D03*
X222000Y125500D03*
X185244Y121000D03*
X172790Y122500D03*
X125000Y117500D03*
X188000Y110500D03*
X132000Y103500D03*
X305500Y101500D03*
X284000Y100500D03*
X226500D03*
X178000Y98000D03*
X133000Y99000D03*
X137500Y98500D03*
X291000Y96000D03*
X284000D03*
X195000Y77500D03*
X188000D03*
X179000D03*
X172000D03*
X165000D03*
X131500Y77526D03*
X114000Y77500D03*
Y82000D03*
X249000Y74000D03*
X165177Y56323D03*
X160847Y43653D03*
X108000Y39000D03*
X47547Y25047D03*
X54500Y23500D03*
X131744Y15256D03*
G54D27*
X141500Y111500D03*
X141590Y106090D03*
X141500Y102000D03*
G54D28*
X254841Y51499D03*
X244999Y51500D03*
X237125D03*
X227282Y51499D03*
G54D31*
X176201Y7948D03*
X144706D03*
G54D25*
X288000Y230500D03*
X278000D03*
X268000D03*
X258000D03*
X248000D03*
X238000D03*
X228000D03*
X294500Y7000D03*
G54D30*
X61877Y24861D03*
X39122D03*
G54D26*
X309500Y189000D03*
Y179000D03*
Y169000D03*
Y69000D03*
Y59000D03*
Y49000D03*
G54D32*
X33492Y26950D03*
X67508D03*
%LPD*%
G75*
G54D10*
X8750Y8750D03*
X8250Y227750D03*
X306750Y7750D03*
Y228250D03*
G54D20*
X309500Y49000D03*
Y59000D03*
Y69000D03*
Y169000D03*
Y179000D03*
Y189000D03*
G54D11*
X6500Y58000D03*
Y63000D03*
X7000Y116000D03*
Y121000D03*
Y178000D03*
Y183000D03*
X11500Y58000D03*
Y63000D03*
X12000Y69000D03*
Y77000D03*
Y73000D03*
Y116000D03*
Y121000D03*
Y178000D03*
Y183000D03*
X20034Y25966D03*
X19000Y47500D03*
X14000Y52500D03*
X19000D03*
X16000Y69000D03*
Y73000D03*
Y77000D03*
X17500Y115000D03*
Y119000D03*
X18500Y161500D03*
Y165000D03*
X20000Y174500D03*
Y179500D03*
Y184500D03*
Y189500D03*
Y194500D03*
X27000Y35500D03*
Y40000D03*
X25500Y90500D03*
Y95000D03*
Y99500D03*
Y104500D03*
Y109500D03*
X22000Y115000D03*
Y119000D03*
X26500Y144000D03*
X22000D03*
X25000Y174500D03*
Y179500D03*
Y184500D03*
Y189500D03*
Y194500D03*
X27500Y56000D03*
X31000Y144000D03*
X30000Y174500D03*
Y179500D03*
Y184500D03*
Y189500D03*
Y194500D03*
X38500Y42500D03*
X37000Y69500D03*
Y76500D03*
X36000Y128000D03*
X40000D03*
X36000Y132000D03*
X40000D03*
X35000Y174500D03*
X40000D03*
X35000Y179500D03*
X40000D03*
X35000Y184500D03*
X40000D03*
X35000Y189500D03*
Y194500D03*
X40000Y189500D03*
Y194500D03*
X39000Y220000D03*
X41000Y7000D03*
X46000D03*
X41000Y12000D03*
X46000D03*
X42500Y42500D03*
X46500D03*
X44000Y128000D03*
Y132000D03*
X45000Y150500D03*
Y155500D03*
Y160500D03*
Y174500D03*
Y179500D03*
Y184500D03*
Y189500D03*
Y194500D03*
X41500Y210000D03*
X45000Y232040D03*
X47547Y25047D03*
X50500Y42500D03*
X48500Y74500D03*
X48000Y128000D03*
X52000D03*
X48000Y132000D03*
X52000D03*
X50000Y150500D03*
Y155500D03*
Y160500D03*
Y174500D03*
Y179500D03*
Y184500D03*
Y189500D03*
Y194500D03*
X51966Y205000D03*
X54500Y6500D03*
X59500D03*
X54500Y11500D03*
X59500D03*
X54500Y23500D03*
X55500Y44000D03*
X56000Y128000D03*
X60000D03*
X56000Y132000D03*
X60000D03*
X55000Y150500D03*
Y155500D03*
X60000Y150500D03*
Y155500D03*
X55000Y160500D03*
X60000D03*
X55000Y174500D03*
X60000D03*
X55000Y179500D03*
X60000D03*
X55000Y184500D03*
X60000D03*
X55000Y189500D03*
Y194500D03*
X60000Y189500D03*
Y194500D03*
X59000Y232512D03*
X60500Y43000D03*
X64500D03*
X60500Y68000D03*
Y78500D03*
X65000Y150500D03*
Y155500D03*
Y160500D03*
Y174500D03*
Y179500D03*
Y184500D03*
Y189500D03*
Y194500D03*
X66534Y205034D03*
X70000Y45500D03*
Y49500D03*
Y53500D03*
X69000Y94500D03*
Y98500D03*
Y102500D03*
Y107000D03*
Y111000D03*
X68000Y142500D03*
X73000D03*
X68000Y147500D03*
X73000D03*
X70000Y175000D03*
Y180000D03*
X69500Y184500D03*
Y189500D03*
X76000Y5000D03*
Y10000D03*
X79000Y159500D03*
X75000Y175000D03*
Y180000D03*
X74500Y184500D03*
Y189500D03*
X77000Y210000D03*
X74500Y225500D03*
X79500D03*
X74500Y230500D03*
X79500D03*
X81000Y5000D03*
Y10000D03*
X80466Y27466D03*
X84000Y57000D03*
Y60500D03*
X82500Y145000D03*
X86000Y159500D03*
X82500Y176000D03*
Y181000D03*
X84500Y225500D03*
Y230500D03*
X92000Y57000D03*
X88000D03*
Y60500D03*
X92000D03*
X89500Y225500D03*
Y230500D03*
X97000Y60000D03*
X99500Y93500D03*
X96000Y214500D03*
Y219500D03*
X94500Y225500D03*
X99500D03*
X94500Y230500D03*
X99500D03*
X105500Y67500D03*
Y72500D03*
X103034Y84966D03*
X103000Y93500D03*
X100500Y151000D03*
Y156000D03*
X105500Y151000D03*
Y156000D03*
X102000Y180500D03*
X101500Y186500D03*
Y192500D03*
Y198500D03*
X102000Y205000D03*
X101000Y214500D03*
Y219500D03*
X110500Y14500D03*
Y19500D03*
X108000Y39000D03*
X110500Y67500D03*
Y72500D03*
X110000Y93500D03*
X106500D03*
X107500Y98000D03*
Y101500D03*
X107000Y113500D03*
Y120500D03*
Y127500D03*
Y134500D03*
X109000Y215000D03*
X115500Y14500D03*
Y19500D03*
X116000Y48000D03*
Y53000D03*
X118534Y71034D03*
X114000Y82000D03*
Y77500D03*
X113500Y93500D03*
X118500Y140000D03*
X114966Y174534D03*
X113500Y209500D03*
X121000Y48000D03*
Y53000D03*
X124000Y94500D03*
Y98500D03*
X125000Y117500D03*
X120000Y143500D03*
X121500Y223500D03*
Y228500D03*
X131744Y15256D03*
X129809Y31809D03*
X131500Y77526D03*
X132000Y103500D03*
X132492Y168950D03*
X132500Y176000D03*
Y172500D03*
Y179500D03*
X126500Y223500D03*
Y228500D03*
X137256Y15756D03*
X137000Y37500D03*
Y42500D03*
X136000Y50500D03*
Y55500D03*
X135000Y67000D03*
X137500Y98500D03*
X133000Y99000D03*
X137500Y143500D03*
X138000Y160000D03*
X135992Y168950D03*
X136500Y201500D03*
X133500Y197500D03*
X137000Y207000D03*
X133500Y217500D03*
X137000Y223500D03*
X142000Y37500D03*
Y42500D03*
X141000Y50500D03*
Y55500D03*
X139500Y69000D03*
X145500Y65500D03*
X142000D03*
X139500Y72500D03*
Y76000D03*
Y80000D03*
X139492Y168950D03*
X142539Y182500D03*
X140000Y201500D03*
X150000Y16500D03*
Y31500D03*
Y36500D03*
X147855Y56355D03*
X152185Y56315D03*
X152500Y65500D03*
X149000D03*
X147500Y108000D03*
X152500D03*
X147500Y113000D03*
X152500D03*
X147500Y118000D03*
Y123000D03*
X152500Y118000D03*
Y123000D03*
X147500Y128000D03*
X152500D03*
X150244Y149744D03*
X148500Y159000D03*
X149539Y182500D03*
X146039D03*
X155000Y16500D03*
Y31500D03*
Y36500D03*
X156516Y56484D03*
X159000Y69000D03*
X156000Y65500D03*
X159000Y72500D03*
Y76500D03*
Y80500D03*
X157500Y108000D03*
Y113000D03*
Y118000D03*
Y123000D03*
Y128000D03*
X153039Y182500D03*
X156500Y206000D03*
X157500Y217500D03*
X155500Y220500D03*
X160000Y16500D03*
X165000D03*
X160000Y31500D03*
Y36500D03*
X165000Y31500D03*
Y36500D03*
X160847Y43653D03*
X165177Y56323D03*
X165000Y77500D03*
X162500Y108000D03*
Y113000D03*
Y118000D03*
Y123000D03*
Y128000D03*
X161500Y195500D03*
X160500Y223000D03*
X170000Y16500D03*
Y31500D03*
Y36500D03*
X169508Y43508D03*
X172000Y77500D03*
X167500Y108000D03*
Y113000D03*
Y118000D03*
Y123000D03*
Y128000D03*
X178170Y55330D03*
X173839Y55339D03*
X179000Y77500D03*
X178000Y98000D03*
X172790Y122500D03*
X174500Y160500D03*
X177539Y186000D03*
X173000Y194000D03*
X174500Y201000D03*
X173000Y208000D03*
X176000Y217500D03*
X183000Y30000D03*
Y35000D03*
X185244Y121000D03*
X182744Y149244D03*
X181256Y154756D03*
X185500Y171500D03*
X184539Y182500D03*
X181039D03*
X183500Y191000D03*
Y194500D03*
Y198000D03*
X184000Y229500D03*
X188000Y30000D03*
Y35000D03*
Y77500D03*
Y110500D03*
X188039Y182500D03*
X188000Y229500D03*
X196000Y34000D03*
Y39000D03*
X195000Y77500D03*
X194000Y99000D03*
X195756Y107744D03*
X195500Y114000D03*
X198000Y121000D03*
X196000Y201500D03*
X192500Y229500D03*
X200500Y10500D03*
Y15500D03*
X201000Y34000D03*
Y39000D03*
X199500Y48500D03*
X204500D03*
X199500Y53500D03*
X204500D03*
X202500Y147500D03*
Y152500D03*
X200000Y158000D03*
X205000D03*
X200000Y163000D03*
X205000D03*
X199534Y217466D03*
X205500Y10500D03*
Y15500D03*
X208500Y141500D03*
X207500Y147500D03*
Y152500D03*
X205500Y168500D03*
X210500D03*
X205500Y173500D03*
X210500D03*
X205500Y183500D03*
Y188500D03*
X210500Y183500D03*
Y188500D03*
X214000Y6500D03*
Y11500D03*
X213000Y62500D03*
Y59000D03*
Y69500D03*
Y66000D03*
Y73000D03*
Y76500D03*
Y80000D03*
Y83500D03*
X219000Y6500D03*
X225000Y15500D03*
X219000Y11500D03*
X225000Y20500D03*
X222500Y72000D03*
Y77000D03*
X220500Y90000D03*
Y95000D03*
Y103000D03*
X222000Y125500D03*
X221500Y203500D03*
X219500Y222500D03*
X224500D03*
X230000Y15500D03*
Y20500D03*
Y25500D03*
X227500Y72000D03*
Y77000D03*
X225500Y90000D03*
Y95000D03*
X226500Y100500D03*
X230500Y163500D03*
Y179000D03*
Y222500D03*
X235000Y15500D03*
Y20500D03*
Y30500D03*
Y25500D03*
Y35500D03*
X232500Y46000D03*
X237000D03*
X233500Y74500D03*
Y79500D03*
X237500Y161000D03*
X234000Y163500D03*
X237500Y166000D03*
X234000Y179000D03*
X236500Y203500D03*
X240000Y35500D03*
X245000D03*
X241000Y46000D03*
X244500D03*
X238500Y74500D03*
Y79500D03*
X241000Y150500D03*
Y155500D03*
X242500Y161000D03*
Y166000D03*
X241500Y189000D03*
X242500Y203500D03*
X248000Y46000D03*
X249000Y74000D03*
X251000Y97000D03*
Y102000D03*
Y131000D03*
Y136000D03*
X248500Y140500D03*
X252500Y37000D03*
X257500D03*
X252500Y42000D03*
X257500D03*
X256000Y97000D03*
Y102000D03*
X256500Y119000D03*
Y124000D03*
X256000Y131000D03*
X258000Y139500D03*
X255488Y164012D03*
X257500Y181500D03*
Y186500D03*
X261500Y119000D03*
Y124000D03*
X263000Y134500D03*
Y139500D03*
X260500Y160500D03*
Y165500D03*
X262500Y181500D03*
Y186500D03*
X269000Y114000D03*
Y119000D03*
Y124000D03*
Y129000D03*
Y134000D03*
X265500Y160500D03*
Y165500D03*
X278000Y36000D03*
Y41000D03*
X277500Y46500D03*
Y51500D03*
X274000Y114000D03*
Y119000D03*
Y124000D03*
Y129000D03*
Y134000D03*
X283000Y36000D03*
Y41000D03*
X282500Y46500D03*
Y51500D03*
X284000Y96000D03*
Y100500D03*
X279000Y114000D03*
X284000D03*
X279000Y119000D03*
X284000D03*
X279000Y124000D03*
Y129000D03*
X284000Y124000D03*
Y129000D03*
X279000Y134000D03*
X284000D03*
X291000Y96000D03*
X289000Y114000D03*
Y119000D03*
Y124000D03*
Y129000D03*
Y134000D03*
X291000Y171500D03*
X286500Y175000D03*
X286000Y181500D03*
X291000D03*
X286000Y186500D03*
X291000D03*
X285000Y191500D03*
X290000D03*
X285000Y196500D03*
X290000D03*
X297000Y135500D03*
Y140500D03*
X294500Y171500D03*
X302500Y109500D03*
Y114500D03*
X302000Y135500D03*
Y140500D03*
X299000Y175000D03*
X310493Y89993D03*
X305500Y101500D03*
X307500Y109500D03*
Y114500D03*
X310493Y144507D03*
G54D21*
G01X254841Y47844D02*
Y51499D01*
G01D02*
Y55154D01*
G01X251186Y51499D02*
X254841D01*
G01D02*
X258496D01*
G01X280255Y7000D02*
X284500D01*
G01Y2755D02*
Y7000D01*
G01D02*
Y11245D01*
G01Y7000D02*
X288745D01*
G01X288000Y226255D02*
Y230500D01*
G01D02*
Y234745D01*
G01X283755Y230500D02*
X288000D01*
G01D02*
X292245D01*
G01X309500Y54955D02*
Y59000D01*
G01D02*
Y63045D01*
G01X305455Y59000D02*
X309500D01*
G01D02*
X313545D01*
G54D12*
X33492Y10492D03*
X67508D03*
G54D22*
G01X0Y231220D02*
Y5000D01*
G03X5000Y0I5000J0D01*
G01X309961D01*
G03X314961Y5000I0J5000D01*
G01Y231220D01*
G03X309961Y236220I-5000J0D01*
G01X5000D01*
G03X0Y231220I0J-5000D01*
G54D13*
X33492Y26950D03*
X67508D03*
G54D14*
X141500Y102000D03*
X141590Y106090D03*
X141500Y111500D03*
X157019Y89462D03*
G54D15*
X213504Y40831D03*
X268622Y40830D03*
G54D16*
X218000Y230500D03*
X284500Y7000D03*
G54D17*
X227282Y51499D03*
X237125Y51500D03*
X244999D03*
X254841Y51499D03*
G54D18*
X228000Y230500D03*
X238000D03*
X248000D03*
X258000D03*
X268000D03*
X278000D03*
X288000D03*
X294500Y7000D03*
G54D19*
X309500Y39000D03*
Y199000D03*
M02*
