G04 ================== begin FILE IDENTIFICATION RECORD ==================*
G04 Layout Name:  F:/OneDrive/Projects/PCB/f1c200s/allegro/f1c200s.brd*
G04 Film Name:    03_POWER*
G04 File Format:  Gerber RS274X*
G04 File Origin:  Cadence Allegro 17.4-S037*
G04 Origin Date:  Fri Jun 21 00:18:07 2024*
G04 *
G04 Layer:  BOARD GEOMETRY/DESIGN_OUTLINE*
G04 Layer:  ETCH/POWER*
G04 Layer:  PIN/POWER*
G04 Layer:  VIA CLASS/POWER*
G04 *
G04 Offset:    (0.000 0.000)*
G04 Mirror:    No*
G04 Mode:      Positive*
G04 Rotation:  0*
G04 FullContactRelief:  No*
G04 UndefLineWidth:     5.000*
G04 ================== end FILE IDENTIFICATION RECORD ====================*
%FSLAX25Y25*MOIN*%
%IR0*IPPOS*OFA0.00000B0.00000*MIA0B0*SFA1.00000B1.00000*%
%ADD15C,.122*%
%ADD10C,.126*%
%ADD11C,.03*%
%ADD14C,.024*%
%ADD12O,.047201X.070902*%
%ADD18C,.070902*%
%ADD13O,.047201X.078701*%
%ADD20C,.066902*%
%ADD16R,.070902X.070902*%
%ADD19R,.066902X.066902*%
%ADD17C,.059098*%
%ADD21C,.01*%
%ADD22C,.005*%
%ADD25C,.132004*%
%ADD23C,.040004*%
%ADD29C,.034004*%
%ADD24C,.069102*%
%ADD27C,.053344*%
%ADD26C,.037584*%
%ADD28O,.057204X.088704*%
G75*
%LPD*%
G75*
G36*
G01X292245Y232220D02*
X300498D01*
G02X300845Y231622I0J-400D01*
G03X299950Y228250I5905J-3372D01*
G03X306750Y221450I6800J0D01*
G03X310349Y222480I0J6800D01*
G02X310961Y222141I212J-339D01*
G01Y202845D01*
X306155D01*
G03X305655Y202345I0J-500D01*
G01Y195655D01*
G03X306155Y195155I500J0D01*
G01X310961D01*
Y193111D01*
G02X310461Y192723I-400J0D01*
G03X309500Y192845I-961J-3723D01*
G03X309500Y185155I0J-3845D01*
G03X310461Y185277I0J3845D01*
G02X310961Y184889I100J-387D01*
G01Y183111D01*
G02X310461Y182723I-400J0D01*
G03X309500Y182845I-961J-3723D01*
G03X309500Y175155I0J-3845D01*
G03X310461Y175277I0J3845D01*
G02X310961Y174889I100J-387D01*
G01Y173111D01*
G02X310461Y172723I-400J0D01*
G03X309500Y172845I-961J-3723D01*
G03X309500Y165155I0J-3845D01*
G03X310461Y165277I0J3845D01*
G02X310961Y164889I100J-387D01*
G01Y146906D01*
G02X310549Y146506I-400J0D01*
G03X310493Y146507I-57J-1999D01*
G03Y142507I0J-2000D01*
G03X310549Y142508I0J2000D01*
G02X310961Y142108I11J-400D01*
G01Y92392D01*
G02X310549Y91992I-400J0D01*
G03X310493Y91993I-57J-1999D01*
G03Y87993I0J-2000D01*
G03X310549Y87994I0J2000D01*
G02X310961Y87594I11J-400D01*
G01Y73111D01*
G02X310461Y72723I-400J0D01*
G03X309500Y72845I-961J-3723D01*
G03X309500Y65155I0J-3845D01*
G03X310461Y65277I0J3845D01*
G02X310961Y64889I100J-387D01*
G01Y63111D01*
G02X310461Y62723I-400J0D01*
G03X309500Y62845I-961J-3723D01*
G03X309500Y55155I0J-3845D01*
G03X310461Y55277I0J3845D01*
G02X310961Y54889I100J-387D01*
G01Y53111D01*
G02X310461Y52723I-400J0D01*
G03X309500Y52845I-961J-3723D01*
G03X309500Y45155I0J-3845D01*
G03X310461Y45277I0J3845D01*
G02X310961Y44889I100J-387D01*
G01Y42845D01*
X306155D01*
G03X305655Y42345I0J-500D01*
G01Y35655D01*
G03X306155Y35155I500J0D01*
G01X310961D01*
Y13859D01*
G02X310349Y13520I-400J0D01*
G03X306750Y14550I-3599J-5770D01*
G03X299950Y7750I0J-6800D01*
G03X300731Y4586I6800J0D01*
G02X300377Y4000I-354J-186D01*
G01X298106D01*
G02X297781Y4634I0J400D01*
G03X298545Y7000I-3281J2366D01*
G03X290455I-4045J0D01*
G03X291219Y4634I4045J0D01*
G02X290894Y4000I-324J-234D01*
G01X288545D01*
Y10545D01*
G03X288045Y11045I-500J0D01*
G01X280955D01*
G03X280455Y10545I0J-500D01*
G01Y4000D01*
X83324D01*
G02X82937Y4500I0J400D01*
G03X83000Y5000I-1937J500D01*
G03X79000I-2000J0D01*
G03X79063Y4500I2000J0D01*
G02X78676Y4000I-387J-100D01*
G01X78324D01*
G02X77937Y4500I0J400D01*
G03X78000Y5000I-1937J500D01*
G03X74000I-2000J0D01*
G03X74063Y4500I2000J0D01*
G02X73676Y4000I-387J-100D01*
G01X14488D01*
G02X14169Y4642I0J400D01*
G03X15550Y8750I-5419J4108D01*
G03X8750Y15550I-6800J0D01*
G03X4642Y14169I0J-6800D01*
G02X4000Y14488I-242J319D01*
G01Y221666D01*
G02X4614Y222004I400J0D01*
G03X8250Y220950I3636J5746D01*
G03X15050Y227750I0J6800D01*
G03X13859Y231594I-6800J0D01*
G02X14189Y232220I330J226D01*
G01X42998D01*
X43000Y232022D01*
G03X47000I2000J18D01*
G01X47002Y232220D01*
X57015D01*
X57050Y232065D01*
G03X60950I1950J447D01*
G01X60985Y232220D01*
X72496D01*
G02X72830Y231600I0J-400D01*
G03X72500Y230500I1670J-1100D01*
G03X76500I2000J0D01*
G03X76170Y231600I-2000J0D01*
G02X76504Y232220I334J220D01*
G01X77496D01*
G02X77830Y231600I0J-400D01*
G03X77500Y230500I1670J-1100D01*
G03X81500I2000J0D01*
G03X81170Y231600I-2000J0D01*
G02X81504Y232220I334J220D01*
G01X82496D01*
G02X82830Y231600I0J-400D01*
G03X82500Y230500I1670J-1100D01*
G03X86500I2000J0D01*
G03X86170Y231600I-2000J0D01*
G02X86504Y232220I334J220D01*
G01X87496D01*
G02X87830Y231600I0J-400D01*
G03X87500Y230500I1670J-1100D01*
G03X91500I2000J0D01*
G03X91170Y231600I-2000J0D01*
G02X91504Y232220I334J220D01*
G01X92496D01*
G02X92830Y231600I0J-400D01*
G03X92500Y230500I1670J-1100D01*
G03X96500I2000J0D01*
G03X96170Y231600I-2000J0D01*
G02X96504Y232220I334J220D01*
G01X97496D01*
G02X97830Y231600I0J-400D01*
G03X97500Y230500I1670J-1100D01*
G03X101500I2000J0D01*
G03X101170Y231600I-2000J0D01*
G02X101504Y232220I334J220D01*
G01X213955D01*
Y226955D01*
G03X214455Y226455I500J0D01*
G01X221545D01*
G03X222045Y226955I0J500D01*
G01Y232220D01*
X223755D01*
G02X224137Y231702I0J-400D01*
G03X223955Y230500I3863J-1202D01*
G03X232045Y230500I4045J0D01*
G03X231863Y231702I-4045J0D01*
G02X232245Y232220I382J119D01*
G01X233755D01*
G02X234137Y231702I0J-400D01*
G03X233955Y230500I3863J-1202D01*
G03X242045Y230500I4045J0D01*
G03X241863Y231702I-4045J0D01*
G02X242245Y232220I382J119D01*
G01X243755D01*
G02X244137Y231702I0J-400D01*
G03X243955Y230500I3863J-1202D01*
G03X252045Y230500I4045J0D01*
G03X251863Y231702I-4045J0D01*
G02X252245Y232220I382J119D01*
G01X253755D01*
G02X254137Y231702I0J-400D01*
G03X253955Y230500I3863J-1202D01*
G03X262045Y230500I4045J0D01*
G03X261863Y231702I-4045J0D01*
G02X262245Y232220I382J119D01*
G01X263755D01*
G02X264137Y231702I0J-400D01*
G03X263955Y230500I3863J-1202D01*
G03X272045Y230500I4045J0D01*
G03X271863Y231702I-4045J0D01*
G02X272245Y232220I382J119D01*
G01X273755D01*
G02X274137Y231702I0J-400D01*
G03X273955Y230500I3863J-1202D01*
G03X282045Y230500I4045J0D01*
G03X281863Y231702I-4045J0D01*
G02X282245Y232220I382J119D01*
G01X283755D01*
G02X284137Y231702I0J-400D01*
G03X283955Y230500I3863J-1202D01*
G03X292045Y230500I4045J0D01*
G03X291863Y231702I-4045J0D01*
G02X292245Y232220I382J119D01*
G37*
%LPC*%
G75*
G36*
G01X235525Y165681D02*
G02X235500Y166000I1975J319D01*
G02X237500Y164000I2000J0D01*
G02X236558Y164236I0J2000D01*
G03X235975Y163819I-188J-353D01*
G02X236000Y163500I-1975J-319D01*
G02X235975Y163181I-2000J0D01*
G03X236558Y162764I395J-64D01*
G02X237500Y163000I942J-1764D01*
G02X235500Y161000I0J-2000D01*
G02X235525Y161319I2000J0D01*
G03X234942Y161736I-395J64D01*
G02X234000Y161500I-942J1764D01*
G02X232542Y162131I0J2000D01*
G03X231958I-292J-274D01*
G02X230500Y161500I-1458J1369D01*
G02Y165500I0J2000D01*
G02X231958Y164869I0J-2000D01*
G03X232542I292J274D01*
G02X234000Y165500I1458J-1369D01*
G02X234942Y165264I0J-2000D01*
G03X235525Y165681I188J353D01*
G37*
G36*
G01X65588Y148588D02*
G02X65000Y148500I-588J1912D01*
G02X67000Y150500I0J2000D01*
G02X66912Y149912I-2000J0D01*
G03X67412Y149412I382J-118D01*
G02X68000Y149500I588J-1912D01*
G02X66000Y147500I0J-2000D01*
G02X66088Y148088I2000J0D01*
G03X65588Y148588I-382J118D01*
G37*
G36*
G01X150389Y57195D02*
G02X152185Y58315I1796J-880D01*
G02X153956Y57245I0J-2000D01*
G03X154678Y57273I354J186D01*
G02X156516Y58484I1838J-789D01*
G02Y54484I0J-2000D01*
G02X154745Y55554I0J2000D01*
G03X154023Y55526I-354J-186D01*
G02X152185Y54315I-1838J789D01*
G02X150373Y55468I0J2000D01*
G03X149651Y55475I-362J-169D01*
G02X147855Y54355I-1796J880D01*
G02Y58355I0J2000D01*
G02X149667Y57202I0J-2000D01*
G03X150389Y57195I362J169D01*
G37*
G36*
G01X175642Y54473D02*
G02X173839Y53339I-1803J866D01*
G02Y57339I0J2000D01*
G02X175645Y56198I0J-2000D01*
G03X176367Y56196I361J172D01*
G02X178170Y57330I1803J-866D01*
G02Y53330I0J-2000D01*
G02X176364Y54471I0J2000D01*
G03X175642Y54473I-361J-172D01*
G37*
G36*
G01X243444Y48415D02*
G02X241544Y51500I1555J3085D01*
G02X248454I3455J0D01*
G02X245973Y48185I-3455J0D01*
G03X245822Y47501I113J-384D01*
G02X245958Y47369I-1322J-1501D01*
G03X246542I292J274D01*
G02X248000Y48000I1458J-1369D01*
G02Y44000I0J-2000D01*
G02X246542Y44631I0J2000D01*
G03X245958I-292J-274D01*
G02X243042I-1458J1369D01*
G03X242458I-292J-274D01*
G02X241000Y44000I-1458J1369D01*
G02X239333Y44894I0J2000D01*
G03X238667I-333J-221D01*
G02X237000Y44000I-1667J1106D01*
G02X235000Y46000I0J2000D01*
G02X235840Y47630I2000J0D01*
G03X235766Y48323I-232J326D01*
G02X233670Y51500I1359J3177D01*
G02X240580I3455J0D01*
G02X238338Y48265I-3455J0D01*
G03X238232Y47575I140J-375D01*
G02X238667Y47106I-1232J-1576D01*
G03X239333I333J221D01*
G02X241000Y48000I1667J-1106D01*
G02X242458Y47369I0J-2000D01*
G03X243042I292J274D01*
G02X243470Y47715I1458J-1369D01*
G03X243444Y48415I-206J343D01*
G37*
G36*
G01X186333Y228394D02*
G03X185667I-333J-221D01*
G02X184000Y227500I-1667J1106D01*
G02Y231500I0J2000D01*
G02X185667Y230606I0J-2000D01*
G03X186333I333J221D01*
G02X188000Y231500I1667J-1106D01*
G02Y227500I0J-2000D01*
G02X186333Y228394I0J2000D01*
G37*
G36*
G01X155568Y218018D02*
G03X155235Y218518I-386J104D01*
G02X153500Y220500I265J1982D01*
G02X157500I2000J0D01*
G02X157432Y219982I-2000J0D01*
G03X157765Y219482I386J-104D01*
G02X159500Y217500I-265J-1982D01*
G02X155500I-2000J0D01*
G02X155568Y218018I2000J0D01*
G37*
G36*
G01X136121Y212500D02*
X137536Y213914D01*
G02X138950Y214500I1414J-1414D01*
G01X185000D01*
G02X186414Y213914I0J-2000D01*
G01X197414Y202914D01*
G02X198000Y201500I-1414J-1414D01*
G02X196000Y199500I-2000J0D01*
G02X194586Y200086I0J2000D01*
G01X184172Y210500D01*
X139778D01*
X138335Y209056D01*
G03X138348Y208478I283J-283D01*
G02X139000Y207000I-1348J-1478D01*
G02X137000Y205000I-2000J0D01*
G02X135522Y205652I0J2000D01*
G03X134944Y205665I-296J-270D01*
G01X112224Y182946D01*
Y174724D01*
G02X111638Y173310I-2000J0D01*
G01X107914Y169586D01*
G02X106500Y169000I-1414J1414D01*
G01X15828D01*
X14000Y167172D01*
Y131829D01*
X15828Y130000D01*
X28000D01*
Y138707D01*
X29293Y140000D01*
X66207D01*
X69000Y137207D01*
Y113000D01*
G02X71000Y111000I0J-2000D01*
G02X70106Y109333I-2000J0D01*
G03Y108667I221J-333D01*
G02X71000Y107000I-1106J-1667D01*
G02X69000Y105000I-2000J0D01*
G01Y104500D01*
G02X71000Y102500I0J-2000D01*
G02X70106Y100833I-2000J0D01*
G03Y100167I221J-333D01*
G02Y96833I-1106J-1667D01*
G03Y96167I221J-333D01*
G02X71000Y94500I-1106J-1667D01*
G02X69000Y92500I-2000J0D01*
G01Y55824D01*
G03X69500Y55437I400J0D01*
G02X70000Y55500I500J-1937D01*
G02X72000Y53500I0J-2000D01*
G02X71106Y51833I-2000J0D01*
G03Y51167I221J-333D01*
G02Y47833I-1106J-1667D01*
G03Y47167I221J-333D01*
G02X72000Y45500I-1106J-1667D01*
G02X70000Y43500I-2000J0D01*
G02X69500Y43563I0J2000D01*
G03X69000Y43176I-100J-387D01*
G01Y41328D01*
X70828Y39500D01*
X75382D01*
G02X76796Y38914I0J-2000D01*
G01X90210Y25500D01*
X218172D01*
X225282Y32611D01*
Y48682D01*
G02X223827Y51499I2000J2817D01*
G02X230737I3455J0D01*
G02X229282Y48682I-3455J0D01*
G01Y31782D01*
G02X228696Y30368I-2000J0D01*
G01X220414Y22086D01*
G02X219000Y21500I-1414J1414D01*
G01X117289D01*
G03X116991Y20833I0J-400D01*
G02X117500Y19500I-1491J-1333D01*
G02X113500I-2000J0D01*
G02X114009Y20833I2000J0D01*
G03X113711Y21500I-298J267D01*
G01X112289D01*
G03X111991Y20833I0J-400D01*
G02X112500Y19500I-1491J-1333D01*
G02X108500I-2000J0D01*
G02X109009Y20833I2000J0D01*
G03X108711Y21500I-298J267D01*
G01X89382D01*
G02X87968Y22086I0J2000D01*
G01X83035Y27018D01*
G03X82371Y26857I-283J-283D01*
G02X80466Y25466I-1905J609D01*
G02X78466Y27466I0J2000D01*
G02X79857Y29371I2000J0D01*
G03X80018Y30035I-122J381D01*
G01X74553Y35500D01*
X70000D01*
G02X68586Y36086I0J2000D01*
G01X66439Y38232D01*
X65707Y37500D01*
X29793D01*
X28702Y38590D01*
G03X28419Y38590I-141J-141D01*
G02X27000Y38000I-1419J1410D01*
G02Y42000I0J2000D01*
G02X27500Y41937I0J-2000D01*
G03X28000Y42324I100J387D01*
G01Y53602D01*
G03X27583Y54002I-400J0D01*
G02X27500Y54000I-82J1999D01*
G02Y58000I0J2000D01*
G02X27583Y57998I1J-2000D01*
G03X28000Y58398I17J400D01*
G01Y126000D01*
X15000D01*
G02X13586Y126586I0J2000D01*
G01X10586Y129586D01*
G02X10000Y131000I1414J1414D01*
G01Y168000D01*
G02X10586Y169414I2000J0D01*
G01X13586Y172414D01*
G02X15000Y173000I1414J-1414D01*
G01X17867D01*
G03X18222Y173584I0J400D01*
G02X18000Y174500I1778J916D01*
G02X22000I2000J0D01*
G02X21778Y173584I-2000J0D01*
G03X22133Y173000I356J-183D01*
G01X22867D01*
G03X23222Y173584I0J400D01*
G02X23000Y174500I1778J916D01*
G02X27000I2000J0D01*
G02X26778Y173584I-2000J0D01*
G03X27133Y173000I356J-183D01*
G01X27867D01*
G03X28222Y173584I0J400D01*
G02X28000Y174500I1778J916D01*
G02X32000I2000J0D01*
G02X31778Y173584I-2000J0D01*
G03X32133Y173000I356J-183D01*
G01X32867D01*
G03X33222Y173584I0J400D01*
G02X33000Y174500I1778J916D01*
G02X37000I2000J0D01*
G02X36778Y173584I-2000J0D01*
G03X37133Y173000I356J-183D01*
G01X37867D01*
G03X38222Y173584I0J400D01*
G02X38000Y174500I1778J916D01*
G02X42000I2000J0D01*
G02X41778Y173584I-2000J0D01*
G03X42133Y173000I356J-183D01*
G01X42867D01*
G03X43222Y173584I0J400D01*
G02X43000Y174500I1778J916D01*
G02X47000I2000J0D01*
G02X46778Y173584I-2000J0D01*
G03X47133Y173000I356J-183D01*
G01X47867D01*
G03X48222Y173584I0J400D01*
G02X48000Y174500I1778J916D01*
G02X52000I2000J0D01*
G02X51778Y173584I-2000J0D01*
G03X52133Y173000I356J-183D01*
G01X52867D01*
G03X53222Y173584I0J400D01*
G02X53000Y174500I1778J916D01*
G02X57000I2000J0D01*
G02X56778Y173584I-2000J0D01*
G03X57133Y173000I356J-183D01*
G01X57867D01*
G03X58222Y173584I0J400D01*
G02X58000Y174500I1778J916D01*
G02X62000I2000J0D01*
G02X61778Y173584I-2000J0D01*
G03X62133Y173000I356J-183D01*
G01X62867D01*
G03X63222Y173584I0J400D01*
G02X63000Y174500I1778J916D01*
G02X67000I2000J0D01*
G02X66778Y173584I-2000J0D01*
G03X67133Y173000I356J-183D01*
G01X68211D01*
G03X68509Y173667I0J400D01*
G02X68000Y175000I1491J1333D01*
G02X72000I2000J0D01*
G02X71491Y173667I-2000J0D01*
G03X71789Y173000I298J-267D01*
G01X73211D01*
G03X73509Y173667I0J400D01*
G02X73000Y175000I1491J1333D01*
G02X77000I2000J0D01*
G02X76491Y173667I-2000J0D01*
G03X76789Y173000I298J-267D01*
G01X105671D01*
X108224Y175552D01*
Y183774D01*
G02X108810Y185188I2000J0D01*
G01X131500Y207879D01*
Y208450D01*
G02X132086Y209864I2000J0D01*
G01X134136Y211914D01*
G02X135550Y212500I1414J-1414D01*
G01X136121D01*
G37*
G36*
G01X138542Y200131D02*
G03X137958I-292J-274D01*
G02X136500Y199500I-1458J1369D01*
G02Y203500I0J2000D01*
G02X137958Y202869I0J-2000D01*
G03X138542I292J274D01*
G02X140000Y203500I1458J-1369D01*
G02Y199500I0J-2000D01*
G02X138542Y200131I0J2000D01*
G37*
G36*
G01X182131Y195958D02*
G03Y196542I-274J292D01*
G02X181500Y198000I1369J1458D01*
G02X185500I2000J0D01*
G02X184869Y196542I-2000J0D01*
G03Y195958I274J-292D01*
G02Y193042I-1369J-1458D01*
G03Y192458I274J-292D01*
G02X185500Y191000I-1369J-1458D01*
G02X181500I-2000J0D01*
G02X182131Y192458I2000J0D01*
G03Y193042I-274J292D01*
G02Y195958I1369J1458D01*
G37*
G36*
G01X182497Y183869D02*
G03X183081I292J274D01*
G02X185997I1458J-1369D01*
G03X186581I292J274D01*
G02X188039Y184500I1458J-1369D01*
G02Y180500I0J-2000D01*
G02X186581Y181131I0J2000D01*
G03X185997I-292J-274D01*
G02X183081I-1458J1369D01*
G03X182497I-292J-274D01*
G02X181039Y180500I-1458J1369D01*
G02Y184500I0J2000D01*
G02X182497Y183869I0J-2000D01*
G37*
G36*
G01X147497D02*
G03X148081I292J274D01*
G02X150997I1458J-1369D01*
G03X151581I292J274D01*
G02X153039Y184500I1458J-1369D01*
G02Y180500I0J-2000D01*
G02X151581Y181131I0J2000D01*
G03X150997I-292J-274D01*
G02X148081I-1458J1369D01*
G03X147497I-292J-274D01*
G02X144581I-1458J1369D01*
G03X143997I-292J-274D01*
G02X142539Y180500I-1458J1369D01*
G02Y184500I0J2000D01*
G02X143997Y183869I0J-2000D01*
G03X144581I292J274D01*
G02X147497I1458J-1369D01*
G37*
G36*
G01X131131Y177458D02*
G03Y178042I-274J292D01*
G02X130500Y179500I1369J1458D01*
G02X134500I2000J0D01*
G02X133869Y178042I-2000J0D01*
G03Y177458I274J-292D01*
G02Y174542I-1369J-1458D01*
G03Y173958I274J-292D01*
G02X134500Y172500I-1369J-1458D01*
G02X133843Y171018I-2000J0D01*
G03X133842Y170426I269J-296D01*
G02X133950Y170318I-1350J-1476D01*
G03X134534I292J274D01*
G02X137450I1458J-1369D01*
G03X138034I292J274D01*
G02X139492Y170950I1458J-1369D01*
G02X141492Y168950I0J-2000D01*
G02X141020Y167658I-2000J0D01*
G03X141325Y167000I306J-258D01*
G01X180000D01*
G02X181414Y166414I0J-2000D01*
G01X194914Y152914D01*
G02X195500Y151500I-1414J-1414D01*
G01Y124000D01*
G02X194914Y122586I-2000J0D01*
G01X191914Y119586D01*
G02X190500Y119000I-1414J1414D01*
G01X185244D01*
G02Y123000I0J2000D01*
G01X189672D01*
X191500Y124829D01*
Y150672D01*
X179172Y163000D01*
X20633D01*
G03X20278Y162416I0J-400D01*
G02X20500Y161500I-1778J-916D01*
G02X16500I-2000J0D01*
G02X17131Y162958I2000J0D01*
G03Y163542I-274J292D01*
G02X16500Y165000I1369J1458D01*
G02X18500Y167000I2000J0D01*
G01X130659D01*
G03X130964Y167658I0J400D01*
G02X130492Y168950I1528J1291D01*
G02X131149Y170432I2000J0D01*
G03X131150Y171024I-269J296D01*
G02X130500Y172500I1350J1476D01*
G02X131131Y173958I2000J0D01*
G03Y174542I-274J292D01*
G02Y177458I1369J1458D01*
G37*
G36*
G01X232542Y177631D02*
G03X231958I-292J-274D01*
G02X230500Y177000I-1458J1369D01*
G02Y181000I0J2000D01*
G02X231958Y180369I0J-2000D01*
G03X232542I292J274D01*
G02X234000Y181000I1458J-1369D01*
G02Y177000I0J-2000D01*
G02X232542Y177631I0J2000D01*
G37*
G36*
G01X293042Y170131D02*
G03X292458I-292J-274D01*
G02X291000Y169500I-1458J1369D01*
G02Y173500I0J2000D01*
G02X292458Y172869I0J-2000D01*
G03X293042I292J274D01*
G02X294500Y173500I1458J-1369D01*
G02Y169500I0J-2000D01*
G02X293042Y170131I0J2000D01*
G37*
G36*
G01X134500Y121207D02*
Y153207D01*
X135793Y154500D01*
X142207D01*
X143000Y153707D01*
Y119707D01*
X144823Y117885D01*
G03X145505Y118140I283J283D01*
G02X147500Y120000I1995J-139D01*
G02X149500Y118000I0J-2000D01*
G02X147640Y116005I-2000J0D01*
G03X147385Y115323I28J-399D01*
G01X147718Y114989D01*
X147784Y114980D01*
G02X149480Y113284I-284J-1980D01*
G01X149489Y113218D01*
X149707Y113000D01*
X150492D01*
X150508Y113182D01*
G02X154492I1992J-182D01*
G01X154508Y113000D01*
X155492D01*
X155508Y113182D01*
G02X159492I1992J-182D01*
G01X159508Y113000D01*
X160492D01*
X160508Y113182D01*
G02X164492I1992J-182D01*
G01X164508Y113000D01*
X165492D01*
X165508Y113182D01*
G02X169492I1992J-182D01*
G01X169509Y113000D01*
X191707D01*
X192500Y112207D01*
Y102793D01*
X191707Y101999D01*
X143210D01*
X143191Y101820D01*
G02X139809I-1691J180D01*
G01X139790Y101999D01*
X133322D01*
G02X130678I-1322J1501D01*
G01X124707D01*
X123885Y101177D01*
G03X124140Y100495I283J-283D01*
G02X126000Y98500I-139J-1995D01*
G02X125106Y96833I-2000J0D01*
G03Y96167I221J-333D01*
G02X126000Y94500I-1106J-1667D01*
G02X122000I-2000J0D01*
G02X122894Y96167I2000J0D01*
G03Y96833I-221J333D01*
G02X122005Y98360I1106J1667D01*
G03X121323Y98615I-399J-28D01*
G01X115264Y92556D01*
G02X114444Y91736I-1764J944D01*
G01X113500Y90793D01*
Y84398D01*
G03X113917Y83998I400J0D01*
G02X114000Y84000I82J-1999D01*
G02Y80000I0J-2000D01*
G02X113728Y80018I0J2000D01*
G01X113714Y80020D01*
X113500D01*
Y79480D01*
X113714D01*
X113728Y79482D01*
G02X114000Y79500I273J-1981D01*
G02Y75500I0J-2000D01*
G02X113917Y75502I-1J2000D01*
G03X113500Y75102I-17J-400D01*
G01Y55793D01*
X110707Y53000D01*
X82293D01*
X81000Y54293D01*
Y107707D01*
X81793Y108500D01*
X121793D01*
X134500Y121207D01*
G37*
G36*
G01X118006Y141938D02*
G03X118256Y142521I-99J388D01*
G02X118000Y143500I1745J979D01*
G02X122000I2000J0D01*
G02X120494Y141562I-2000J0D01*
G03X120244Y140979I99J-388D01*
G02X120500Y140000I-1745J-979D01*
G02X116500I-2000J0D01*
G02X118006Y141938I2000J0D01*
G37*
G36*
G01X20894Y116667D02*
G03Y117333I-221J333D01*
G02X20000Y119000I1106J1667D01*
G02X24000I2000J0D01*
G02X23106Y117333I-2000J0D01*
G03Y116667I221J-333D01*
G02X24000Y115000I-1106J-1667D01*
G02X20000I-2000J0D01*
G02X20894Y116667I2000J0D01*
G37*
G36*
G01X16394D02*
G03Y117333I-221J333D01*
G02X15500Y119000I1106J1667D01*
G02X19500I2000J0D01*
G02X18606Y117333I-2000J0D01*
G03Y116667I221J-333D01*
G02X19500Y115000I-1106J-1667D01*
G02X15500I-2000J0D01*
G02X16394Y116667I2000J0D01*
G37*
G36*
G01X149000Y94707D02*
Y96207D01*
X149793Y97000D01*
X152707D01*
X160000Y89707D01*
Y82232D01*
G02Y78768I-1000J-1732D01*
G01Y78232D01*
G02Y74768I-1000J-1732D01*
G01Y74232D01*
G02X161000Y72500I-1000J-1732D01*
G02X160369Y71042I-2000J0D01*
G03Y70458I274J-292D01*
G02X161000Y69000I-1369J-1458D01*
G02X160000Y67268I-2000J0D01*
G01Y65000D01*
X157942D01*
X157896Y64863D01*
G02X156000Y63500I-1896J637D01*
G02X154542Y64131I0J2000D01*
G03X153958I-292J-274D01*
G02X151042I-1458J1369D01*
G03X150458I-292J-274D01*
G02X147542I-1458J1369D01*
G03X146958I-292J-274D01*
G02X144042I-1458J1369D01*
G03X143458I-292J-274D01*
G02X142000Y63500I-1458J1369D01*
G02X140104Y64863I0J2000D01*
G01X140058Y65000D01*
X139500D01*
Y67000D01*
G02X137500Y69000I0J2000D01*
G02X138131Y70458I2000J0D01*
G03Y71042I-274J292D01*
G02Y73958I1369J1458D01*
G03Y74542I-274J292D01*
G02X137500Y76000I1369J1458D01*
G02X138394Y77667I2000J0D01*
G03Y78333I-221J333D01*
G02X137500Y80000I1106J1667D01*
G02X139500Y82000I2000J0D01*
G01Y89500D01*
X143793D01*
X149000Y94707D01*
G37*
G36*
G01X211631Y81458D02*
G03Y82042I-274J292D01*
G02X211000Y83500I1369J1458D01*
G02X215000I2000J0D01*
G02X214369Y82042I-2000J0D01*
G03Y81458I274J-292D01*
G02Y78542I-1369J-1458D01*
G03Y77958I274J-292D01*
G02Y75042I-1369J-1458D01*
G03Y74458I274J-292D01*
G02Y71542I-1369J-1458D01*
G03Y70958I274J-292D01*
G02Y68042I-1369J-1458D01*
G03Y67458I274J-292D01*
G02Y64542I-1369J-1458D01*
G03Y63958I274J-292D01*
G02Y61042I-1369J-1458D01*
G03Y60458I274J-292D01*
G02X215000Y59000I-1369J-1458D01*
G02X211000I-2000J0D01*
G02X211631Y60458I2000J0D01*
G03Y61042I-274J292D01*
G02Y63958I1369J1458D01*
G03Y64542I-274J292D01*
G02Y67458I1369J1458D01*
G03Y68042I-274J292D01*
G02Y70958I1369J1458D01*
G03Y71542I-274J292D01*
G02Y74458I1369J1458D01*
G03Y75042I-274J292D01*
G02Y77958I1369J1458D01*
G03Y78542I-274J292D01*
G02Y81458I1369J1458D01*
G37*
G36*
G01X30632Y9307D02*
Y11677D01*
G02X36352I2860J0D01*
G01Y9307D01*
G02X30632I-2860J0D01*
G37*
G36*
G01X64648D02*
Y11677D01*
G02X70368I2860J0D01*
G01Y9307D01*
G02X64648I-2860J0D01*
G37*
G36*
G01X104671Y143000D02*
X82500D01*
G02Y147000I0J2000D01*
G01X105500D01*
G02X106914Y146414I0J-2000D01*
G01X126414Y126914D01*
G02X127000Y125500I-1414J-1414D01*
G01Y117500D01*
G02X123000I-2000J0D01*
G01Y124672D01*
X104671Y143000D01*
G37*
G54D25*
X268622Y40830D03*
X213504Y40831D03*
G54D23*
X192500Y229500D03*
X230500Y222500D03*
X224500D03*
X219500D03*
X160500Y223000D03*
X137000Y223500D03*
X126500Y228500D03*
Y223500D03*
X121500Y228500D03*
Y223500D03*
X99500Y225500D03*
X94500D03*
X89500D03*
X84500D03*
X79500D03*
X74500D03*
X199534Y217466D03*
X176000Y217500D03*
X133500D03*
X101000Y219500D03*
X96000D03*
X39000Y220000D03*
X113500Y209500D03*
X109000Y215000D03*
X101000Y214500D03*
X96000D03*
X242500Y203500D03*
X236500D03*
X221500D03*
X173000Y208000D03*
X156500Y206000D03*
X102000Y205000D03*
X66534Y205034D03*
X51966Y205000D03*
X290000Y196500D03*
X285000D03*
X174500Y201000D03*
X133500Y197500D03*
X290000Y191500D03*
X285000D03*
X173000Y194000D03*
X161500Y195500D03*
X74500Y189500D03*
X69500D03*
X65000Y194500D03*
Y189500D03*
X60000Y194500D03*
Y189500D03*
X55000Y194500D03*
Y189500D03*
X50000Y194500D03*
Y189500D03*
X45000Y194500D03*
Y189500D03*
X40000Y194500D03*
Y189500D03*
X35000Y194500D03*
Y189500D03*
X30000Y194500D03*
Y189500D03*
X25000Y194500D03*
Y189500D03*
X20000Y194500D03*
Y189500D03*
X291000Y186500D03*
X286000D03*
X262500D03*
X257500D03*
X241500Y189000D03*
X210500Y188500D03*
Y183500D03*
X205500Y188500D03*
Y183500D03*
X177539Y186000D03*
X74500Y184500D03*
X69500D03*
X65000D03*
X60000D03*
X55000D03*
X50000D03*
X45000D03*
X40000D03*
X35000D03*
X30000D03*
X25000D03*
X20000D03*
X12000Y183000D03*
X7000D03*
X291000Y181500D03*
X286000D03*
X262500D03*
X257500D03*
X82500Y181000D03*
X75000Y180000D03*
X70000D03*
X65000Y179500D03*
X60000D03*
X55000D03*
X50000D03*
X45000D03*
X40000D03*
X35000D03*
X30000D03*
X25000D03*
X20000D03*
X12000Y178000D03*
X7000D03*
X210500Y173500D03*
X205500D03*
X185500Y171500D03*
X114966Y174534D03*
X82500Y176000D03*
X265500Y165500D03*
X260500D03*
X255488Y164012D03*
X242500Y166000D03*
X210500Y168500D03*
X205500D03*
X205000Y163000D03*
X200000D03*
X265500Y160500D03*
X260500D03*
X242500Y161000D03*
X205000Y158000D03*
X200000D03*
X174500Y160500D03*
X148500Y159000D03*
X138000Y160000D03*
X86000Y159500D03*
X79000D03*
X65000Y160500D03*
X60000D03*
X55000D03*
X50000D03*
X45000D03*
X241000Y155500D03*
Y150500D03*
X207500Y152500D03*
X202500D03*
X181256Y154756D03*
X105500Y156000D03*
Y151000D03*
X100500Y156000D03*
Y151000D03*
X65000Y155500D03*
X60000D03*
Y150500D03*
X55000Y155500D03*
Y150500D03*
X50000Y155500D03*
Y150500D03*
X45000Y155500D03*
Y150500D03*
X207500Y147500D03*
X202500D03*
X73000D03*
X31000Y144000D03*
X22000D03*
X26500D03*
X302000Y140500D03*
X297000D03*
X263000Y139500D03*
X258000D03*
X248500Y140500D03*
X208500Y141500D03*
X73000Y142500D03*
X68000D03*
X302000Y135500D03*
X297000D03*
X289000Y134000D03*
X284000D03*
X279000D03*
X274000D03*
X269000D03*
X263000Y134500D03*
X256000Y131000D03*
X251000Y136000D03*
Y131000D03*
X107000Y134500D03*
X289000Y129000D03*
Y124000D03*
X284000Y129000D03*
Y124000D03*
X279000Y129000D03*
Y124000D03*
X274000Y129000D03*
Y124000D03*
X269000Y129000D03*
Y124000D03*
X261500D03*
X256500D03*
X167500Y128000D03*
X162500D03*
X157500D03*
X152500D03*
X147500D03*
X107000Y127500D03*
X289000Y119000D03*
X284000D03*
X279000D03*
X274000D03*
X269000D03*
X261500D03*
X256500D03*
X198000Y121000D03*
X167500Y123000D03*
Y118000D03*
X162500Y123000D03*
Y118000D03*
X157500Y123000D03*
Y118000D03*
X152500Y123000D03*
Y118000D03*
X147500Y123000D03*
X107000Y120500D03*
X12000Y121000D03*
X7000D03*
X307500Y114500D03*
X302500D03*
X289000Y114000D03*
X284000D03*
X279000D03*
X274000D03*
X269000D03*
X195500D03*
X107000Y113500D03*
X12000Y116000D03*
X7000D03*
X307500Y109500D03*
X302500D03*
X195756Y107744D03*
X25500Y109500D03*
Y104500D03*
X305500Y101500D03*
X284000Y100500D03*
X256000Y102000D03*
Y97000D03*
X251000Y102000D03*
Y97000D03*
X226500Y100500D03*
X220500Y103000D03*
X194000Y99000D03*
X133000D03*
X137500Y98500D03*
X25500Y99500D03*
X291000Y96000D03*
X284000D03*
X225500Y95000D03*
X220500D03*
X25500D03*
Y90500D03*
X225500Y90000D03*
X220500D03*
X238500Y79500D03*
X233500D03*
X238500Y74500D03*
X233500D03*
X227500Y77000D03*
Y72000D03*
X222500Y77000D03*
Y72000D03*
X118534Y71034D03*
X135000Y67000D03*
X11500Y63000D03*
Y58000D03*
X6500Y63000D03*
Y58000D03*
X282500Y51500D03*
X277500D03*
X204500Y53500D03*
X199500D03*
X165177Y56323D03*
X141000Y55500D03*
X136000D03*
X121000Y53000D03*
X116000D03*
X19000Y52500D03*
X14000D03*
X282500Y46500D03*
X277500D03*
X232500Y46000D03*
X204500Y48500D03*
X199500D03*
X141000Y50500D03*
X136000D03*
X121000Y48000D03*
X116000D03*
X19000Y47500D03*
X283000Y41000D03*
X278000D03*
X257500Y42000D03*
X252500D03*
X201000Y39000D03*
X196000D03*
X169508Y43508D03*
X142000Y42500D03*
Y37500D03*
X137000Y42500D03*
Y37500D03*
X283000Y36000D03*
X278000D03*
X257500Y37000D03*
X252500D03*
X245000Y35500D03*
X240000D03*
X235000D03*
X201000Y34000D03*
X196000D03*
X188000Y35000D03*
X183000D03*
X170000Y36500D03*
Y31500D03*
X165000Y36500D03*
Y31500D03*
X160000Y36500D03*
Y31500D03*
X155000Y36500D03*
Y31500D03*
X150000Y36500D03*
Y31500D03*
X129809Y31809D03*
X27000Y35500D03*
X235000Y25500D03*
Y30500D03*
X230000Y25500D03*
X188000Y30000D03*
X183000D03*
X47547Y25047D03*
X20034Y25966D03*
X235000Y20500D03*
X230000D03*
X225000D03*
X54500Y23500D03*
X235000Y15500D03*
X230000D03*
X219000Y11500D03*
X225000Y15500D03*
X214000Y11500D03*
X205500Y15500D03*
X200500D03*
X170000Y16500D03*
X165000D03*
X160000D03*
X155000D03*
X150000D03*
X137256Y15756D03*
X115500Y14500D03*
X110500D03*
X59500Y11500D03*
X54500D03*
X46000Y12000D03*
X41000D03*
X219000Y6500D03*
X214000D03*
X205500Y10500D03*
X200500D03*
X81000Y10000D03*
X76000D03*
X59500Y6500D03*
X54500D03*
X46000Y7000D03*
X41000D03*
G54D24*
X254841Y51499D03*
G54D27*
X176201Y7948D03*
X144706D03*
G54D26*
X61877Y24861D03*
X39122D03*
G54D28*
X33492Y26950D03*
X67508D03*
%LPD*%
G75*
G36*
G01X29500Y139500D02*
X66000D01*
X68500Y137000D01*
Y112942D01*
X68364Y112896D01*
G03X67000Y111000I636J-1896D01*
G03X67894Y109333I2000J0D01*
G02Y108667I-221J-333D01*
G03X67000Y107000I1106J-1667D01*
G03X68364Y105104I2000J0D01*
G01X68500Y105058D01*
Y104442D01*
X68364Y104396D01*
G03X67000Y102500I636J-1896D01*
G03X67894Y100833I2000J0D01*
G02Y100167I-221J-333D01*
G03Y96833I1106J-1667D01*
G02Y96167I-221J-333D01*
G03X67000Y94500I1106J-1667D01*
G03X68364Y92604I2000J0D01*
G01X68500Y92558D01*
Y54823D01*
G03Y52177I1500J-1323D01*
G01Y50823D01*
G03Y48177I1500J-1323D01*
G01Y46823D01*
G03Y44177I1500J-1323D01*
G01Y41000D01*
X65500Y38000D01*
X30000D01*
X28826Y39174D01*
X28872Y39295D01*
G03X29000Y40000I-1872J705D01*
G03X28500Y41323I-2000J0D01*
G01Y54268D01*
G03Y57732I-1000J1732D01*
G01Y138500D01*
X29500Y139500D01*
G37*
G36*
G01X136000Y154000D02*
X142000D01*
X142500Y153500D01*
Y119500D01*
X146618Y115382D01*
G02X146530Y114749I-283J-283D01*
G03X145500Y113000I970J-1749D01*
G03X147500Y111000I2000J0D01*
G03X149396Y112364I0J2000D01*
G01X149442Y112500D01*
X150558D01*
X150604Y112364D01*
G03X154396I1896J636D01*
G01X154442Y112500D01*
X155558D01*
X155604Y112364D01*
G03X159396I1896J636D01*
G01X159442Y112500D01*
X160558D01*
X160604Y112364D01*
G03X164396I1896J636D01*
G01X164442Y112500D01*
X165558D01*
X165604Y112364D01*
G03X169396I1896J636D01*
G01X169442Y112500D01*
X191500D01*
X192000Y112000D01*
Y103000D01*
X191500Y102500D01*
X143131D01*
X143081Y102626D01*
G03X139919I-1581J-626D01*
G01X139869Y102500D01*
X134324D01*
G02X133937Y103000I0J400D01*
G03X134000Y103500I-1937J500D01*
G03X130000I-2000J0D01*
G03X130063Y103000I2000J0D01*
G02X129676Y102500I-387J-100D01*
G01X124500D01*
X113000Y91000D01*
Y83732D01*
G03Y80268I1000J-1732D01*
G01Y79232D01*
G03Y75768I1000J-1732D01*
G01Y56000D01*
X110500Y53500D01*
X82500D01*
X81500Y54500D01*
Y107500D01*
X82000Y108000D01*
X122000D01*
X135000Y121000D01*
Y153000D01*
X136000Y154000D01*
G37*
G36*
G01X152500Y96500D02*
X159500Y89500D01*
Y65500D01*
X140000D01*
Y89000D01*
X144000D01*
X149500Y94500D01*
Y96000D01*
X150000Y96500D01*
X152500D01*
G37*
%LPC*%
G75*
G36*
G01X106131Y99458D02*
G03Y100042I-274J292D01*
G02X105500Y101500I1369J1458D01*
G02X109500I2000J0D01*
G02X108869Y100042I-2000J0D01*
G03Y99458I274J-292D01*
G02X109500Y98000I-1369J-1458D01*
G02X105500I-2000J0D01*
G02X106131Y99458I2000J0D01*
G37*
G54D23*
X55500Y44000D03*
X37000Y69500D03*
X60500Y68000D03*
X37000Y76500D03*
X48500Y74500D03*
X60500Y78500D03*
X97000Y60000D03*
X105500Y67500D03*
X110500D03*
X105500Y72500D03*
X110500D03*
X103034Y84966D03*
X147500Y108000D03*
X152500D03*
X157500D03*
X162500D03*
X167500D03*
G54D29*
X141590Y106090D03*
X141500Y111500D03*
%LPD*%
G75*
G54D10*
X8750Y8750D03*
X8250Y227750D03*
X306750Y7750D03*
Y228250D03*
G54D20*
X309500Y49000D03*
Y59000D03*
Y69000D03*
Y169000D03*
Y179000D03*
Y189000D03*
G54D11*
G01X36000Y128000D02*
X15000D01*
X12000Y131000D01*
Y168000D01*
X15000Y171000D01*
X106500D01*
X110224Y174724D01*
Y183774D01*
X133500Y207050D01*
Y208450D01*
X135550Y210500D01*
X136950D01*
X138950Y212500D01*
X185000D01*
X196000Y201500D01*
G01X185244Y121000D02*
X190500D01*
X193500Y124000D01*
Y151500D01*
X180000Y165000D01*
X18500D01*
G01X64500Y43000D02*
X70000Y37500D01*
X75382D01*
X89382Y23500D01*
X219000D01*
X227282Y31782D01*
Y51499D01*
G01X82500Y145000D02*
X105500D01*
X125000Y125500D01*
Y117500D01*
X6500Y58000D03*
Y63000D03*
X7000Y116000D03*
Y121000D03*
Y178000D03*
Y183000D03*
X11500Y58000D03*
Y63000D03*
X12000Y69000D03*
Y77000D03*
Y73000D03*
Y116000D03*
Y121000D03*
Y178000D03*
Y183000D03*
X20034Y25966D03*
X19000Y47500D03*
X14000Y52500D03*
X19000D03*
X16000Y69000D03*
Y73000D03*
Y77000D03*
X17500Y115000D03*
Y119000D03*
X18500Y161500D03*
Y165000D03*
X20000Y174500D03*
Y179500D03*
Y184500D03*
Y189500D03*
Y194500D03*
X27000Y35500D03*
Y40000D03*
X25500Y90500D03*
Y95000D03*
Y99500D03*
Y104500D03*
Y109500D03*
X22000Y115000D03*
Y119000D03*
X26500Y144000D03*
X22000D03*
X25000Y174500D03*
Y179500D03*
Y184500D03*
Y189500D03*
Y194500D03*
X27500Y56000D03*
X31000Y144000D03*
X30000Y174500D03*
Y179500D03*
Y184500D03*
Y189500D03*
Y194500D03*
X38500Y42500D03*
X37000Y69500D03*
Y76500D03*
X36000Y128000D03*
X40000D03*
X36000Y132000D03*
X40000D03*
X35000Y174500D03*
X40000D03*
X35000Y179500D03*
X40000D03*
X35000Y184500D03*
X40000D03*
X35000Y189500D03*
Y194500D03*
X40000Y189500D03*
Y194500D03*
X39000Y220000D03*
X41000Y7000D03*
X46000D03*
X41000Y12000D03*
X46000D03*
X42500Y42500D03*
X46500D03*
X44000Y128000D03*
Y132000D03*
X45000Y150500D03*
Y155500D03*
Y160500D03*
Y174500D03*
Y179500D03*
Y184500D03*
Y189500D03*
Y194500D03*
X41500Y210000D03*
X45000Y232040D03*
X47547Y25047D03*
X50500Y42500D03*
X48500Y74500D03*
X48000Y128000D03*
X52000D03*
X48000Y132000D03*
X52000D03*
X50000Y150500D03*
Y155500D03*
Y160500D03*
Y174500D03*
Y179500D03*
Y184500D03*
Y189500D03*
Y194500D03*
X51966Y205000D03*
X54500Y6500D03*
X59500D03*
X54500Y11500D03*
X59500D03*
X54500Y23500D03*
X55500Y44000D03*
X56000Y128000D03*
X60000D03*
X56000Y132000D03*
X60000D03*
X55000Y150500D03*
Y155500D03*
X60000Y150500D03*
Y155500D03*
X55000Y160500D03*
X60000D03*
X55000Y174500D03*
X60000D03*
X55000Y179500D03*
X60000D03*
X55000Y184500D03*
X60000D03*
X55000Y189500D03*
Y194500D03*
X60000Y189500D03*
Y194500D03*
X59000Y232512D03*
X60500Y43000D03*
X64500D03*
X60500Y68000D03*
Y78500D03*
X65000Y150500D03*
Y155500D03*
Y160500D03*
Y174500D03*
Y179500D03*
Y184500D03*
Y189500D03*
Y194500D03*
X66534Y205034D03*
X70000Y45500D03*
Y49500D03*
Y53500D03*
X69000Y94500D03*
Y98500D03*
Y102500D03*
Y107000D03*
Y111000D03*
X68000Y142500D03*
X73000D03*
X68000Y147500D03*
X73000D03*
X70000Y175000D03*
Y180000D03*
X69500Y184500D03*
Y189500D03*
X76000Y5000D03*
Y10000D03*
X79000Y159500D03*
X75000Y175000D03*
Y180000D03*
X74500Y184500D03*
Y189500D03*
X77000Y210000D03*
X74500Y225500D03*
X79500D03*
X74500Y230500D03*
X79500D03*
X81000Y5000D03*
Y10000D03*
X80466Y27466D03*
X84000Y57000D03*
Y60500D03*
X82500Y145000D03*
X86000Y159500D03*
X82500Y176000D03*
Y181000D03*
X84500Y225500D03*
Y230500D03*
X92000Y57000D03*
X88000D03*
Y60500D03*
X92000D03*
X89500Y225500D03*
Y230500D03*
X97000Y60000D03*
X99500Y93500D03*
X96000Y214500D03*
Y219500D03*
X94500Y225500D03*
X99500D03*
X94500Y230500D03*
X99500D03*
X105500Y67500D03*
Y72500D03*
X103034Y84966D03*
X103000Y93500D03*
X100500Y151000D03*
Y156000D03*
X105500Y151000D03*
Y156000D03*
X102000Y180500D03*
X101500Y186500D03*
Y192500D03*
Y198500D03*
X102000Y205000D03*
X101000Y214500D03*
Y219500D03*
X110500Y14500D03*
Y19500D03*
X108000Y39000D03*
X110500Y67500D03*
Y72500D03*
X110000Y93500D03*
X106500D03*
X107500Y98000D03*
Y101500D03*
X107000Y113500D03*
Y120500D03*
Y127500D03*
Y134500D03*
X109000Y215000D03*
X115500Y14500D03*
Y19500D03*
X116000Y48000D03*
Y53000D03*
X118534Y71034D03*
X114000Y82000D03*
Y77500D03*
X113500Y93500D03*
X118500Y140000D03*
X114966Y174534D03*
X113500Y209500D03*
X121000Y48000D03*
Y53000D03*
X124000Y94500D03*
Y98500D03*
X125000Y117500D03*
X120000Y143500D03*
X121500Y223500D03*
Y228500D03*
X131744Y15256D03*
X129809Y31809D03*
X131500Y77526D03*
X132000Y103500D03*
X132492Y168950D03*
X132500Y176000D03*
Y172500D03*
Y179500D03*
X126500Y223500D03*
Y228500D03*
X137256Y15756D03*
X137000Y37500D03*
Y42500D03*
X136000Y50500D03*
Y55500D03*
X135000Y67000D03*
X137500Y98500D03*
X133000Y99000D03*
X137500Y143500D03*
X138000Y160000D03*
X135992Y168950D03*
X136500Y201500D03*
X133500Y197500D03*
X137000Y207000D03*
X133500Y217500D03*
X137000Y223500D03*
X142000Y37500D03*
Y42500D03*
X141000Y50500D03*
Y55500D03*
X139500Y69000D03*
X145500Y65500D03*
X142000D03*
X139500Y72500D03*
Y76000D03*
Y80000D03*
X139492Y168950D03*
X142539Y182500D03*
X140000Y201500D03*
X150000Y16500D03*
Y31500D03*
Y36500D03*
X147855Y56355D03*
X152185Y56315D03*
X152500Y65500D03*
X149000D03*
X147500Y108000D03*
X152500D03*
X147500Y113000D03*
X152500D03*
X147500Y118000D03*
Y123000D03*
X152500Y118000D03*
Y123000D03*
X147500Y128000D03*
X152500D03*
X150244Y149744D03*
X148500Y159000D03*
X149539Y182500D03*
X146039D03*
X155000Y16500D03*
Y31500D03*
Y36500D03*
X156516Y56484D03*
X159000Y69000D03*
X156000Y65500D03*
X159000Y72500D03*
Y76500D03*
Y80500D03*
X157500Y108000D03*
Y113000D03*
Y118000D03*
Y123000D03*
Y128000D03*
X153039Y182500D03*
X156500Y206000D03*
X157500Y217500D03*
X155500Y220500D03*
X160000Y16500D03*
X165000D03*
X160000Y31500D03*
Y36500D03*
X165000Y31500D03*
Y36500D03*
X160847Y43653D03*
X165177Y56323D03*
X165000Y77500D03*
X162500Y108000D03*
Y113000D03*
Y118000D03*
Y123000D03*
Y128000D03*
X161500Y195500D03*
X160500Y223000D03*
X170000Y16500D03*
Y31500D03*
Y36500D03*
X169508Y43508D03*
X172000Y77500D03*
X167500Y108000D03*
Y113000D03*
Y118000D03*
Y123000D03*
Y128000D03*
X178170Y55330D03*
X173839Y55339D03*
X179000Y77500D03*
X178000Y98000D03*
X172790Y122500D03*
X174500Y160500D03*
X177539Y186000D03*
X173000Y194000D03*
X174500Y201000D03*
X173000Y208000D03*
X176000Y217500D03*
X183000Y30000D03*
Y35000D03*
X185244Y121000D03*
X182744Y149244D03*
X181256Y154756D03*
X185500Y171500D03*
X184539Y182500D03*
X181039D03*
X183500Y191000D03*
Y194500D03*
Y198000D03*
X184000Y229500D03*
X188000Y30000D03*
Y35000D03*
Y77500D03*
Y110500D03*
X188039Y182500D03*
X188000Y229500D03*
X196000Y34000D03*
Y39000D03*
X195000Y77500D03*
X194000Y99000D03*
X195756Y107744D03*
X195500Y114000D03*
X198000Y121000D03*
X196000Y201500D03*
X192500Y229500D03*
X200500Y10500D03*
Y15500D03*
X201000Y34000D03*
Y39000D03*
X199500Y48500D03*
X204500D03*
X199500Y53500D03*
X204500D03*
X202500Y147500D03*
Y152500D03*
X200000Y158000D03*
X205000D03*
X200000Y163000D03*
X205000D03*
X199534Y217466D03*
X205500Y10500D03*
Y15500D03*
X208500Y141500D03*
X207500Y147500D03*
Y152500D03*
X205500Y168500D03*
X210500D03*
X205500Y173500D03*
X210500D03*
X205500Y183500D03*
Y188500D03*
X210500Y183500D03*
Y188500D03*
X214000Y6500D03*
Y11500D03*
X213000Y62500D03*
Y59000D03*
Y69500D03*
Y66000D03*
Y73000D03*
Y76500D03*
Y80000D03*
Y83500D03*
X219000Y6500D03*
X225000Y15500D03*
X219000Y11500D03*
X225000Y20500D03*
X222500Y72000D03*
Y77000D03*
X220500Y90000D03*
Y95000D03*
Y103000D03*
X222000Y125500D03*
X221500Y203500D03*
X219500Y222500D03*
X224500D03*
X230000Y15500D03*
Y20500D03*
Y25500D03*
X227500Y72000D03*
Y77000D03*
X225500Y90000D03*
Y95000D03*
X226500Y100500D03*
X230500Y163500D03*
Y179000D03*
Y222500D03*
X235000Y15500D03*
Y20500D03*
Y30500D03*
Y25500D03*
Y35500D03*
X232500Y46000D03*
X237000D03*
X233500Y74500D03*
Y79500D03*
X237500Y161000D03*
X234000Y163500D03*
X237500Y166000D03*
X234000Y179000D03*
X236500Y203500D03*
X240000Y35500D03*
X245000D03*
X241000Y46000D03*
X244500D03*
X238500Y74500D03*
Y79500D03*
X241000Y150500D03*
Y155500D03*
X242500Y161000D03*
Y166000D03*
X241500Y189000D03*
X242500Y203500D03*
X248000Y46000D03*
X249000Y74000D03*
X251000Y97000D03*
Y102000D03*
Y131000D03*
Y136000D03*
X248500Y140500D03*
X252500Y37000D03*
X257500D03*
X252500Y42000D03*
X257500D03*
X256000Y97000D03*
Y102000D03*
X256500Y119000D03*
Y124000D03*
X256000Y131000D03*
X258000Y139500D03*
X255488Y164012D03*
X257500Y181500D03*
Y186500D03*
X261500Y119000D03*
Y124000D03*
X263000Y134500D03*
Y139500D03*
X260500Y160500D03*
Y165500D03*
X262500Y181500D03*
Y186500D03*
X269000Y114000D03*
Y119000D03*
Y124000D03*
Y129000D03*
Y134000D03*
X265500Y160500D03*
Y165500D03*
X278000Y36000D03*
Y41000D03*
X277500Y46500D03*
Y51500D03*
X274000Y114000D03*
Y119000D03*
Y124000D03*
Y129000D03*
Y134000D03*
X283000Y36000D03*
Y41000D03*
X282500Y46500D03*
Y51500D03*
X284000Y96000D03*
Y100500D03*
X279000Y114000D03*
X284000D03*
X279000Y119000D03*
X284000D03*
X279000Y124000D03*
Y129000D03*
X284000Y124000D03*
Y129000D03*
X279000Y134000D03*
X284000D03*
X291000Y96000D03*
X289000Y114000D03*
Y119000D03*
Y124000D03*
Y129000D03*
Y134000D03*
X291000Y171500D03*
X286500Y175000D03*
X286000Y181500D03*
X291000D03*
X286000Y186500D03*
X291000D03*
X285000Y191500D03*
X290000D03*
X285000Y196500D03*
X290000D03*
X297000Y135500D03*
Y140500D03*
X294500Y171500D03*
X302500Y109500D03*
Y114500D03*
X302000Y135500D03*
Y140500D03*
X299000Y175000D03*
X310493Y89993D03*
X305500Y101500D03*
X307500Y109500D03*
Y114500D03*
X310493Y144507D03*
G54D21*
G01X213755Y230500D02*
X218000D01*
G01Y226255D02*
Y230500D01*
G01D02*
X222245D01*
G01X309500Y64955D02*
Y69000D01*
G01D02*
Y73045D01*
G01X305455Y69000D02*
X309500D01*
G54D12*
X33492Y10492D03*
X67508D03*
G54D22*
G01X0Y231220D02*
Y5000D01*
G03X5000Y0I5000J0D01*
G01X309961D01*
G03X314961Y5000I0J5000D01*
G01Y231220D01*
G03X309961Y236220I-5000J0D01*
G01X5000D01*
G03X0Y231220I0J-5000D01*
G54D13*
X33492Y26950D03*
X67508D03*
G54D14*
X141500Y102000D03*
X141590Y106090D03*
X141500Y111500D03*
X157019Y89462D03*
G54D15*
X213504Y40831D03*
X268622Y40830D03*
G54D16*
X218000Y230500D03*
X284500Y7000D03*
G54D17*
X227282Y51499D03*
X237125Y51500D03*
X244999D03*
X254841Y51499D03*
G54D18*
X228000Y230500D03*
X238000D03*
X248000D03*
X258000D03*
X268000D03*
X278000D03*
X288000D03*
X294500Y7000D03*
G54D19*
X309500Y39000D03*
Y199000D03*
M02*
