M48
INCH,TZ
T01C.027598
T02C.035402
T03C.043299
T04C.047201
T05C.082701
T06C.126
;EXTENTS: -1.000  -0.500  9.000   9.500   
;LEADER: 12 
;HEADER: 
;CODE  : ASCII 
;FILE  : F:/OneDrive/Projects/PCB/f1c200s/allegro/gerber/f1c200s_1-4.rou for board F:/OneDrive/Projects/PCB/f1c200s/allegro/#Taaaaay24304.tmp, layers TOP to BOTTOM
%
G90
F1
M16
T06
M16
G00X306750Y228250
G40
M15
G01X306750Y228250
M16
G00X306750Y7750
G40
M15
G01X306750Y7750
M16
G00X8750Y8750
G40
M15
G01X8750Y8750
M16
G00X8250Y227750
G40
M15
G01X8250Y227750
M16
T04
M16
G00X284500Y7000
G40
M15
G01X284500Y7000
M16
G00X294500Y7000
G40
M15
G01X294500Y7000
M16
T03
M16
G00X309500Y39000
G40
M15
G01X309500Y39000
M16
G00X309500Y49000
G40
M15
G01X309500Y49000
M16
G00X309500Y59000
G40
M15
G01X309500Y59000
M16
G00X309500Y69000
G40
M15
G01X309500Y69000
M16
G00X309500Y199000
G40
M15
G01X309500Y199000
M16
G00X309500Y189000
G40
M15
G01X309500Y189000
M16
G00X309500Y179000
G40
M15
G01X309500Y179000
M16
G00X309500Y169000
G40
M15
G01X309500Y169000
M16
T02
M16
G00X227282Y51499
G40
M15
G01X227282Y51499
M16
G00X237125Y51500
G40
M15
G01X237125Y51500
M16
G00X244999Y51500
G40
M15
G01X244999Y51500
M16
G00X254841Y51499
G40
M15
G01X254841Y51499
M16
T05
M16
G00X268622Y40830
G40
M15
G01X268622Y40830
M16
G00X213504Y40831
G40
M15
G01X213504Y40831
M16
T04
M16
G00X218000Y230500
G40
M15
G01X218000Y230500
M16
G00X228000Y230500
G40
M15
G01X228000Y230500
M16
G00X238000Y230500
G40
M15
G01X238000Y230500
M16
G00X248000Y230500
G40
M15
G01X248000Y230500
M16
G00X258000Y230500
G40
M15
G01X258000Y230500
M16
G00X268000Y230500
G40
M15
G01X268000Y230500
M16
G00X278000Y230500
G40
M15
G01X278000Y230500
M16
G00X288000Y230500
G40
M15
G01X288000Y230500
M16
T01
M16
G00X33492Y24985
G40
M15
G01X33492Y28915
M16
G00X67508Y24985
G40
M15
G01X67508Y28915
M16
G00X33492Y9117
G40
M15
G01X33492Y11867
M16
G00X67508Y9117
G40
M15
G01X67508Y11867
M16
G40
M30
