G04 ================== begin FILE IDENTIFICATION RECORD ==================*
G04 Layout Name:  F:/OneDrive/Projects/PCB/f1c200s/allegro/f1c200s.brd*
G04 Film Name:    PASTEMASK_TOP*
G04 File Format:  Gerber RS274X*
G04 File Origin:  Cadence Allegro 17.4-S037*
G04 Origin Date:  Fri Jun 21 00:18:07 2024*
G04 *
G04 Layer:  PIN/PASTEMASK_TOP*
G04 Layer:  PACKAGE GEOMETRY/PASTEMASK_TOP*
G04 Layer:  BOARD GEOMETRY/DESIGN_OUTLINE*
G04 *
G04 Offset:    (0.000 0.000)*
G04 Mirror:    No*
G04 Mode:      Positive*
G04 Rotation:  0*
G04 FullContactRelief:  No*
G04 UndefLineWidth:     5.000*
G04 ================== end FILE IDENTIFICATION RECORD ====================*
%FSLAX25Y25*MOIN*%
%IR0*IPPOS*OFA0.00000B0.00000*MIA0B0*SFA1.00000B1.00000*%
%ADD23R,.196799X.196799*%
%ADD14R,.0535X.060201*%
%ADD22R,.060201X.0535*%
%ADD15R,.035402X.0315*%
%ADD16O,.022X.068701*%
%ADD11R,.0315X.035402*%
%ADD13R,.0315X.0315*%
%ADD21R,.037402X.082701*%
%ADD20R,.082701X.037402*%
%ADD10R,.05512X.08346*%
%ADD19R,.055098X.047201*%
%ADD18R,.011799X.049201*%
%ADD17R,.078701X.098402*%
%ADD12R,.023598X.042098*%
%ADD24C,.005*%
G75*
%LPD*%
G75*
G36*
G01X21603Y22575D02*
Y21677D01*
X20107D01*
Y20378D01*
X21603D01*
Y19425D01*
X21406Y19228D01*
X18295D01*
X18099Y19425D01*
Y22575D01*
X18295Y22772D01*
X21406D01*
X21603Y22575D01*
G37*
G36*
G01X15405Y81059D02*
Y86099D01*
X15602Y86295D01*
X20130D01*
X20327Y86099D01*
X20347Y84484D01*
X18575D01*
Y82713D01*
X20307D01*
X20327Y81059D01*
X20130Y80862D01*
X15602D01*
X15405Y81059D01*
G37*
G36*
G01X22130Y127441D02*
Y125787D01*
X20378D01*
Y124016D01*
X22110D01*
X22130Y122401D01*
X21933Y122205D01*
X17405D01*
X17209Y122401D01*
Y127441D01*
X17405Y127638D01*
X21933D01*
X22130Y127441D01*
G37*
G36*
G01X27705Y22772D02*
X24555D01*
X24358Y22575D01*
Y21677D01*
X25815D01*
Y20378D01*
X24358D01*
Y19425D01*
X24555Y19228D01*
X27705D01*
X27902Y19425D01*
Y22575D01*
X27705Y22772D01*
G37*
G36*
G01X19295Y61728D02*
X22445D01*
X22642Y61925D01*
Y62823D01*
X21185D01*
Y64122D01*
X22642D01*
Y65075D01*
X22445Y65272D01*
X19295D01*
X19098Y65075D01*
Y61925D01*
X19295Y61728D01*
G37*
G36*
G01X25397Y61925D02*
Y62823D01*
X26893D01*
Y64122D01*
X25397D01*
Y65075D01*
X25594Y65272D01*
X28705D01*
X28901Y65075D01*
Y61925D01*
X28705Y61728D01*
X25594D01*
X25397Y61925D01*
G37*
G36*
G01X19295Y67728D02*
X22445D01*
X22642Y67925D01*
Y68823D01*
X21185D01*
Y70122D01*
X22642D01*
Y71075D01*
X22445Y71272D01*
X19295D01*
X19098Y71075D01*
Y67925D01*
X19295Y67728D01*
G37*
G36*
G01X25397Y67925D02*
Y68823D01*
X26893D01*
Y70122D01*
X25397D01*
Y71075D01*
X25594Y71272D01*
X28705D01*
X28901Y71075D01*
Y67925D01*
X28705Y67728D01*
X25594D01*
X25397Y67925D01*
G37*
G36*
G01X23870Y81059D02*
Y82713D01*
X25622D01*
Y84484D01*
X23890D01*
X23870Y86099D01*
X24067Y86295D01*
X28595D01*
X28791Y86099D01*
Y81059D01*
X28595Y80862D01*
X24067D01*
X23870Y81059D01*
G37*
G36*
G01X20405Y153059D02*
Y158099D01*
X20602Y158295D01*
X25130D01*
X25327Y158099D01*
X25347Y156484D01*
X23575D01*
Y154713D01*
X25307D01*
X25327Y153059D01*
X25130Y152862D01*
X20602D01*
X20405Y153059D01*
G37*
G36*
G01X33669Y14029D02*
X33551Y14035D01*
X33433D01*
X33316Y14029D01*
X33198Y14017D01*
X33082Y13999D01*
X32967Y13976D01*
X32852Y13947D01*
X32740Y13912D01*
X32629Y13872D01*
X32521Y13826D01*
X32414Y13775D01*
X32311Y13719D01*
X32211Y13657D01*
X32113Y13591D01*
X32019Y13520D01*
X31929Y13444D01*
X31843Y13364D01*
X31761Y13280D01*
X31683Y13192D01*
X31609Y13099D01*
X31540Y13004D01*
X31477Y12905D01*
X31418Y12803D01*
X31364Y12698D01*
X31315Y12591D01*
X31272Y12481D01*
X31235Y12369D01*
X31203Y12256D01*
X31177Y12141D01*
X31156Y12025D01*
X31142Y11908D01*
X31133Y11791D01*
X31130Y11673D01*
Y9311D01*
X31133Y9193D01*
X31142Y9076D01*
X31156Y8959D01*
X31177Y8843D01*
X31203Y8728D01*
X31235Y8615D01*
X31272Y8503D01*
X31315Y8393D01*
X31364Y8286D01*
X31418Y8181D01*
X31477Y8079D01*
X31540Y7980D01*
X31609Y7885D01*
X31683Y7793D01*
X31761Y7704D01*
X31843Y7620D01*
X31929Y7540D01*
X32019Y7464D01*
X32113Y7393D01*
X32211Y7327D01*
X32311Y7265D01*
X32414Y7209D01*
X32521Y7158D01*
X32629Y7112D01*
X32740Y7072D01*
X32852Y7037D01*
X32967Y7008D01*
X33082Y6985D01*
X33198Y6967D01*
X33316Y6955D01*
X33433Y6949D01*
X33551D01*
X33669Y6955D01*
X33786Y6967D01*
X33902Y6985D01*
X34018Y7008D01*
X34132Y7037D01*
X34244Y7072D01*
X34355Y7112D01*
X34464Y7158D01*
X34570Y7209D01*
X34673Y7265D01*
X34774Y7327D01*
X34871Y7393D01*
X34965Y7464D01*
X35055Y7540D01*
X35141Y7620D01*
X35224Y7704D01*
X35302Y7793D01*
X35375Y7885D01*
X35444Y7980D01*
X35508Y8079D01*
X35567Y8181D01*
X35620Y8286D01*
X35669Y8393D01*
X35712Y8503D01*
X35749Y8615D01*
X35781Y8728D01*
X35807Y8843D01*
X35828Y8959D01*
X35843Y9076D01*
X35851Y9193D01*
X35854Y9311D01*
Y11673D01*
X35851Y11791D01*
X35843Y11908D01*
X35828Y12025D01*
X35807Y12141D01*
X35781Y12256D01*
X35749Y12369D01*
X35712Y12481D01*
X35669Y12591D01*
X35620Y12698D01*
X35567Y12803D01*
X35508Y12905D01*
X35444Y13004D01*
X35375Y13099D01*
X35302Y13192D01*
X35224Y13280D01*
X35141Y13364D01*
X35055Y13444D01*
X34965Y13520D01*
X34871Y13591D01*
X34774Y13657D01*
X34673Y13719D01*
X34570Y13775D01*
X34464Y13826D01*
X34355Y13872D01*
X34244Y13912D01*
X34132Y13947D01*
X34018Y13976D01*
X33902Y13999D01*
X33786Y14017D01*
X33669Y14029D01*
G37*
G36*
G01Y30879D02*
X33551Y30885D01*
X33433D01*
X33316Y30879D01*
X33198Y30868D01*
X33082Y30850D01*
X32967Y30827D01*
X32852Y30798D01*
X32740Y30763D01*
X32629Y30723D01*
X32521Y30677D01*
X32414Y30626D01*
X32311Y30570D01*
X32211Y30508D01*
X32113Y30442D01*
X32019Y30371D01*
X31929Y30295D01*
X31843Y30215D01*
X31761Y30131D01*
X31683Y30042D01*
X31609Y29950D01*
X31540Y29855D01*
X31477Y29756D01*
X31418Y29654D01*
X31364Y29549D01*
X31315Y29441D01*
X31272Y29332D01*
X31235Y29220D01*
X31203Y29107D01*
X31177Y28992D01*
X31156Y28876D01*
X31142Y28759D01*
X31133Y28642D01*
X31130Y28524D01*
Y25374D01*
X31133Y25257D01*
X31142Y25139D01*
X31156Y25022D01*
X31177Y24906D01*
X31203Y24791D01*
X31235Y24678D01*
X31272Y24566D01*
X31315Y24457D01*
X31364Y24349D01*
X31418Y24245D01*
X31477Y24143D01*
X31540Y24044D01*
X31609Y23948D01*
X31683Y23856D01*
X31761Y23768D01*
X31843Y23683D01*
X31929Y23603D01*
X32019Y23527D01*
X32113Y23456D01*
X32211Y23390D01*
X32311Y23329D01*
X32414Y23272D01*
X32521Y23221D01*
X32629Y23175D01*
X32740Y23135D01*
X32852Y23100D01*
X32967Y23071D01*
X33082Y23048D01*
X33198Y23030D01*
X33316Y23019D01*
X33433Y23013D01*
X33551D01*
X33669Y23019D01*
X33786Y23030D01*
X33902Y23048D01*
X34018Y23071D01*
X34132Y23100D01*
X34244Y23135D01*
X34355Y23175D01*
X34464Y23221D01*
X34570Y23272D01*
X34673Y23329D01*
X34774Y23390D01*
X34871Y23456D01*
X34965Y23527D01*
X35055Y23603D01*
X35141Y23683D01*
X35224Y23768D01*
X35302Y23856D01*
X35375Y23948D01*
X35444Y24044D01*
X35508Y24143D01*
X35567Y24245D01*
X35620Y24349D01*
X35669Y24457D01*
X35712Y24566D01*
X35749Y24678D01*
X35781Y24791D01*
X35807Y24906D01*
X35828Y25022D01*
X35843Y25139D01*
X35851Y25257D01*
X35854Y25374D01*
Y28524D01*
X35851Y28642D01*
X35843Y28759D01*
X35828Y28876D01*
X35807Y28992D01*
X35781Y29107D01*
X35749Y29220D01*
X35712Y29332D01*
X35669Y29441D01*
X35620Y29549D01*
X35567Y29654D01*
X35508Y29756D01*
X35444Y29855D01*
X35375Y29950D01*
X35302Y30042D01*
X35224Y30131D01*
X35141Y30215D01*
X35055Y30295D01*
X34965Y30371D01*
X34871Y30442D01*
X34774Y30508D01*
X34673Y30570D01*
X34570Y30626D01*
X34464Y30677D01*
X34355Y30723D01*
X34244Y30763D01*
X34132Y30798D01*
X34018Y30827D01*
X33902Y30850D01*
X33786Y30868D01*
X33669Y30879D01*
G37*
G36*
G01X29905Y35059D02*
Y40099D01*
X30102Y40295D01*
X34630D01*
X34827Y40099D01*
X34847Y38484D01*
X33075D01*
Y36713D01*
X34807D01*
X34827Y35059D01*
X34630Y34862D01*
X30102D01*
X29905Y35059D01*
G37*
G36*
G01X35630Y58441D02*
Y56787D01*
X33878D01*
Y55016D01*
X35610D01*
X35630Y53401D01*
X35433Y53205D01*
X30905D01*
X30709Y53401D01*
Y58441D01*
X30905Y58638D01*
X35433D01*
X35630Y58441D01*
G37*
G36*
G01X26405Y114059D02*
Y119099D01*
X26602Y119295D01*
X31130D01*
X31327Y119099D01*
X31347Y117484D01*
X29575D01*
Y115713D01*
X31307D01*
X31327Y114059D01*
X31130Y113862D01*
X26602D01*
X26405Y114059D01*
G37*
G36*
G01X30595Y127441D02*
Y122401D01*
X30398Y122205D01*
X25870D01*
X25673Y122401D01*
X25653Y124016D01*
X27425D01*
Y125787D01*
X25693D01*
X25673Y127441D01*
X25870Y127638D01*
X30398D01*
X30595Y127441D01*
G37*
G36*
G01X28870Y153059D02*
Y154713D01*
X30622D01*
Y156484D01*
X28890D01*
X28870Y158099D01*
X29067Y158295D01*
X33595D01*
X33791Y158099D01*
Y153059D01*
X33595Y152862D01*
X29067D01*
X28870Y153059D01*
G37*
G36*
G01X34603Y227075D02*
Y226177D01*
X33107D01*
Y224878D01*
X34603D01*
Y223925D01*
X34406Y223728D01*
X31295D01*
X31099Y223925D01*
Y227075D01*
X31295Y227272D01*
X34406D01*
X34603Y227075D01*
G37*
G36*
G01X38370Y35059D02*
Y36713D01*
X40122D01*
Y38484D01*
X38390D01*
X38370Y40099D01*
X38567Y40295D01*
X43095D01*
X43291Y40099D01*
Y35059D01*
X43095Y34862D01*
X38567D01*
X38370Y35059D01*
G37*
G36*
G01X38795Y46228D02*
X41945D01*
X42142Y46425D01*
Y47323D01*
X40685D01*
Y48622D01*
X42142D01*
Y49575D01*
X41945Y49772D01*
X38795D01*
X38598Y49575D01*
Y46425D01*
X38795Y46228D01*
G37*
G36*
G01X34870Y114059D02*
Y115713D01*
X36622D01*
Y117484D01*
X34890D01*
X34870Y119099D01*
X35067Y119295D01*
X39595D01*
X39791Y119099D01*
Y114059D01*
X39595Y113862D01*
X35067D01*
X34870Y114059D01*
G37*
G36*
G01X40705Y227272D02*
X37555D01*
X37358Y227075D01*
Y226177D01*
X38815D01*
Y224878D01*
X37358D01*
Y223925D01*
X37555Y223728D01*
X40705D01*
X40902Y223925D01*
Y227075D01*
X40705Y227272D01*
G37*
G36*
G01X44897Y46425D02*
Y47323D01*
X46393D01*
Y48622D01*
X44897D01*
Y49575D01*
X45094Y49772D01*
X48205D01*
X48401Y49575D01*
Y46425D01*
X48205Y46228D01*
X45094D01*
X44897Y46425D01*
G37*
G36*
G01X44095Y58441D02*
Y53401D01*
X43898Y53205D01*
X39370D01*
X39173Y53401D01*
X39153Y55016D01*
X40925D01*
Y56787D01*
X39193D01*
X39173Y58441D01*
X39370Y58638D01*
X43898D01*
X44095Y58441D01*
G37*
G36*
G01X42925Y110103D02*
X43823D01*
Y108607D01*
X45122D01*
Y110103D01*
X46075D01*
X46272Y109906D01*
Y106795D01*
X46075Y106599D01*
X42925D01*
X42728Y106795D01*
Y109906D01*
X42925Y110103D01*
G37*
G36*
G01X42728Y116205D02*
Y113055D01*
X42925Y112858D01*
X43823D01*
Y114315D01*
X45122D01*
Y112858D01*
X46075D01*
X46272Y113055D01*
Y116205D01*
X46075Y116402D01*
X42925D01*
X42728Y116205D01*
G37*
G36*
G01X44295Y208228D02*
X47445D01*
X47642Y208425D01*
Y209323D01*
X46185D01*
Y210622D01*
X47642D01*
Y211575D01*
X47445Y211772D01*
X44295D01*
X44098Y211575D01*
Y208425D01*
X44295Y208228D01*
G37*
G36*
G01X48925Y110103D02*
X49823D01*
Y108607D01*
X51122D01*
Y110103D01*
X52075D01*
X52272Y109906D01*
Y106795D01*
X52075Y106599D01*
X48925D01*
X48728Y106795D01*
Y109906D01*
X48925Y110103D01*
G37*
G36*
G01X48728Y116205D02*
Y113055D01*
X48925Y112858D01*
X49823D01*
Y114315D01*
X51122D01*
Y112858D01*
X52075D01*
X52272Y113055D01*
Y116205D01*
X52075Y116402D01*
X48925D01*
X48728Y116205D01*
G37*
G36*
G01X50397Y208425D02*
Y209323D01*
X51893D01*
Y210622D01*
X50397D01*
Y211575D01*
X50594Y211772D01*
X53705D01*
X53901Y211575D01*
Y208425D01*
X53705Y208228D01*
X50594D01*
X50397Y208425D01*
G37*
G36*
G01X60130Y118941D02*
Y117287D01*
X58378D01*
Y115516D01*
X60110D01*
X60130Y113901D01*
X59933Y113705D01*
X55405D01*
X55209Y113901D01*
Y118941D01*
X55405Y119138D01*
X59933D01*
X60130Y118941D01*
G37*
G36*
G01X67685Y14029D02*
X67567Y14035D01*
X67449D01*
X67332Y14029D01*
X67214Y14017D01*
X67098Y13999D01*
X66983Y13976D01*
X66868Y13947D01*
X66756Y13912D01*
X66645Y13872D01*
X66537Y13826D01*
X66430Y13775D01*
X66327Y13719D01*
X66227Y13657D01*
X66129Y13591D01*
X66035Y13520D01*
X65945Y13444D01*
X65859Y13364D01*
X65777Y13280D01*
X65699Y13192D01*
X65625Y13099D01*
X65556Y13004D01*
X65493Y12905D01*
X65434Y12803D01*
X65380Y12698D01*
X65331Y12591D01*
X65288Y12481D01*
X65251Y12369D01*
X65219Y12256D01*
X65193Y12141D01*
X65172Y12025D01*
X65158Y11908D01*
X65149Y11791D01*
X65146Y11673D01*
Y9311D01*
X65149Y9193D01*
X65158Y9076D01*
X65172Y8959D01*
X65193Y8843D01*
X65219Y8728D01*
X65251Y8615D01*
X65288Y8503D01*
X65331Y8393D01*
X65380Y8286D01*
X65434Y8181D01*
X65493Y8079D01*
X65556Y7980D01*
X65625Y7885D01*
X65699Y7793D01*
X65777Y7704D01*
X65859Y7620D01*
X65945Y7540D01*
X66035Y7464D01*
X66129Y7393D01*
X66227Y7327D01*
X66327Y7265D01*
X66430Y7209D01*
X66537Y7158D01*
X66645Y7112D01*
X66756Y7072D01*
X66868Y7037D01*
X66983Y7008D01*
X67098Y6985D01*
X67214Y6967D01*
X67332Y6955D01*
X67449Y6949D01*
X67567D01*
X67685Y6955D01*
X67802Y6967D01*
X67918Y6985D01*
X68034Y7008D01*
X68148Y7037D01*
X68260Y7072D01*
X68371Y7112D01*
X68480Y7158D01*
X68586Y7209D01*
X68689Y7265D01*
X68790Y7327D01*
X68887Y7393D01*
X68981Y7464D01*
X69071Y7540D01*
X69157Y7620D01*
X69240Y7704D01*
X69318Y7793D01*
X69391Y7885D01*
X69460Y7980D01*
X69524Y8079D01*
X69583Y8181D01*
X69636Y8286D01*
X69685Y8393D01*
X69728Y8503D01*
X69765Y8615D01*
X69797Y8728D01*
X69823Y8843D01*
X69844Y8959D01*
X69859Y9076D01*
X69867Y9193D01*
X69870Y9311D01*
Y11673D01*
X69867Y11791D01*
X69859Y11908D01*
X69844Y12025D01*
X69823Y12141D01*
X69797Y12256D01*
X69765Y12369D01*
X69728Y12481D01*
X69685Y12591D01*
X69636Y12698D01*
X69583Y12803D01*
X69524Y12905D01*
X69460Y13004D01*
X69391Y13099D01*
X69318Y13192D01*
X69240Y13280D01*
X69157Y13364D01*
X69071Y13444D01*
X68981Y13520D01*
X68887Y13591D01*
X68790Y13657D01*
X68689Y13719D01*
X68586Y13775D01*
X68480Y13826D01*
X68371Y13872D01*
X68260Y13912D01*
X68148Y13947D01*
X68034Y13976D01*
X67918Y13999D01*
X67802Y14017D01*
X67685Y14029D01*
G37*
G36*
G01Y30879D02*
X67567Y30885D01*
X67449D01*
X67332Y30879D01*
X67214Y30868D01*
X67098Y30850D01*
X66983Y30827D01*
X66868Y30798D01*
X66756Y30763D01*
X66645Y30723D01*
X66537Y30677D01*
X66430Y30626D01*
X66327Y30570D01*
X66227Y30508D01*
X66129Y30442D01*
X66035Y30371D01*
X65945Y30295D01*
X65859Y30215D01*
X65777Y30131D01*
X65699Y30042D01*
X65625Y29950D01*
X65556Y29855D01*
X65493Y29756D01*
X65434Y29654D01*
X65380Y29549D01*
X65331Y29441D01*
X65288Y29332D01*
X65251Y29220D01*
X65219Y29107D01*
X65193Y28992D01*
X65172Y28876D01*
X65158Y28759D01*
X65149Y28642D01*
X65146Y28524D01*
Y25374D01*
X65149Y25257D01*
X65158Y25139D01*
X65172Y25022D01*
X65193Y24906D01*
X65219Y24791D01*
X65251Y24678D01*
X65288Y24566D01*
X65331Y24457D01*
X65380Y24349D01*
X65434Y24245D01*
X65493Y24143D01*
X65556Y24044D01*
X65625Y23948D01*
X65699Y23856D01*
X65777Y23768D01*
X65859Y23683D01*
X65945Y23603D01*
X66035Y23527D01*
X66129Y23456D01*
X66227Y23390D01*
X66327Y23329D01*
X66430Y23272D01*
X66537Y23221D01*
X66645Y23175D01*
X66756Y23135D01*
X66868Y23100D01*
X66983Y23071D01*
X67098Y23048D01*
X67214Y23030D01*
X67332Y23019D01*
X67449Y23013D01*
X67567D01*
X67685Y23019D01*
X67802Y23030D01*
X67918Y23048D01*
X68034Y23071D01*
X68148Y23100D01*
X68260Y23135D01*
X68371Y23175D01*
X68480Y23221D01*
X68586Y23272D01*
X68689Y23329D01*
X68790Y23390D01*
X68887Y23456D01*
X68981Y23527D01*
X69071Y23603D01*
X69157Y23683D01*
X69240Y23768D01*
X69318Y23856D01*
X69391Y23948D01*
X69460Y24044D01*
X69524Y24143D01*
X69583Y24245D01*
X69636Y24349D01*
X69685Y24457D01*
X69728Y24566D01*
X69765Y24678D01*
X69797Y24791D01*
X69823Y24906D01*
X69844Y25022D01*
X69859Y25139D01*
X69867Y25257D01*
X69870Y25374D01*
Y28524D01*
X69867Y28642D01*
X69859Y28759D01*
X69844Y28876D01*
X69823Y28992D01*
X69797Y29107D01*
X69765Y29220D01*
X69728Y29332D01*
X69685Y29441D01*
X69636Y29549D01*
X69583Y29654D01*
X69524Y29756D01*
X69460Y29855D01*
X69391Y29950D01*
X69318Y30042D01*
X69240Y30131D01*
X69157Y30215D01*
X69071Y30295D01*
X68981Y30371D01*
X68887Y30442D01*
X68790Y30508D01*
X68689Y30570D01*
X68586Y30626D01*
X68480Y30677D01*
X68371Y30723D01*
X68260Y30763D01*
X68148Y30798D01*
X68034Y30827D01*
X67918Y30850D01*
X67802Y30868D01*
X67685Y30879D01*
G37*
G36*
G01X68595Y118941D02*
Y113901D01*
X68398Y113705D01*
X63870D01*
X63673Y113901D01*
X63653Y115516D01*
X65425D01*
Y117287D01*
X63693D01*
X63673Y118941D01*
X63870Y119138D01*
X68398D01*
X68595Y118941D01*
G37*
G36*
G01X68103Y211575D02*
Y210677D01*
X66607D01*
Y209378D01*
X68103D01*
Y208425D01*
X67906Y208228D01*
X64795D01*
X64599Y208425D01*
Y211575D01*
X64795Y211772D01*
X67906D01*
X68103Y211575D01*
G37*
G36*
G01X71130Y66941D02*
Y65287D01*
X69378D01*
Y63516D01*
X71110D01*
X71130Y61901D01*
X70933Y61705D01*
X66405D01*
X66209Y61901D01*
Y66941D01*
X66405Y67138D01*
X70933D01*
X71130Y66941D01*
G37*
G36*
G01Y85941D02*
Y84287D01*
X69378D01*
Y82516D01*
X71110D01*
X71130Y80901D01*
X70933Y80705D01*
X66405D01*
X66209Y80901D01*
Y85941D01*
X66405Y86138D01*
X70933D01*
X71130Y85941D01*
G37*
G36*
G01X74205Y211772D02*
X71055D01*
X70858Y211575D01*
Y210677D01*
X72315D01*
Y209378D01*
X70858D01*
Y208425D01*
X71055Y208228D01*
X74205D01*
X74402Y208425D01*
Y211575D01*
X74205Y211772D01*
G37*
G36*
G01X72795Y19228D02*
X75945D01*
X76142Y19425D01*
Y20323D01*
X74685D01*
Y21622D01*
X76142D01*
Y22575D01*
X75945Y22772D01*
X72795D01*
X72598Y22575D01*
Y19425D01*
X72795Y19228D01*
G37*
G36*
G01X79595Y66941D02*
Y61901D01*
X79398Y61705D01*
X74870D01*
X74673Y61901D01*
X74653Y63516D01*
X76425D01*
Y65287D01*
X74693D01*
X74673Y66941D01*
X74870Y67138D01*
X79398D01*
X79595Y66941D01*
G37*
G36*
G01Y85941D02*
Y80901D01*
X79398Y80705D01*
X74870D01*
X74673Y80901D01*
X74653Y82516D01*
X76425D01*
Y84287D01*
X74693D01*
X74673Y85941D01*
X74870Y86138D01*
X79398D01*
X79595Y85941D01*
G37*
G36*
G01X80772Y134295D02*
Y137445D01*
X80575Y137642D01*
X79677D01*
Y136185D01*
X78378D01*
Y137642D01*
X77425D01*
X77228Y137445D01*
Y134295D01*
X77425Y134098D01*
X80575D01*
X80772Y134295D01*
G37*
G36*
G01X80575Y140397D02*
X79677D01*
Y141893D01*
X78378D01*
Y140397D01*
X77425D01*
X77228Y140594D01*
Y143705D01*
X77425Y143901D01*
X80575D01*
X80772Y143705D01*
Y140594D01*
X80575Y140397D01*
G37*
G36*
G01X80772Y146295D02*
Y149445D01*
X80575Y149642D01*
X79677D01*
Y148185D01*
X78378D01*
Y149642D01*
X77425D01*
X77228Y149445D01*
Y146295D01*
X77425Y146098D01*
X80575D01*
X80772Y146295D01*
G37*
G36*
G01X80575Y152397D02*
X79677D01*
Y153893D01*
X78378D01*
Y152397D01*
X77425D01*
X77228Y152594D01*
Y155705D01*
X77425Y155901D01*
X80575D01*
X80772Y155705D01*
Y152594D01*
X80575Y152397D01*
G37*
G36*
G01X78897Y19425D02*
Y20323D01*
X80393D01*
Y21622D01*
X78897D01*
Y22575D01*
X79094Y22772D01*
X82205D01*
X82401Y22575D01*
Y19425D01*
X82205Y19228D01*
X79094D01*
X78897Y19425D01*
G37*
G36*
G01X92772Y63795D02*
Y66945D01*
X92575Y67142D01*
X91677D01*
Y65685D01*
X90378D01*
Y67142D01*
X89425D01*
X89228Y66945D01*
Y63795D01*
X89425Y63598D01*
X92575D01*
X92772Y63795D01*
G37*
G36*
G01X92575Y69897D02*
X91677D01*
Y71393D01*
X90378D01*
Y69897D01*
X89425D01*
X89228Y70094D01*
Y73205D01*
X89425Y73401D01*
X92575D01*
X92772Y73205D01*
Y70094D01*
X92575Y69897D01*
G37*
G36*
G01X89425Y80603D02*
X90323D01*
Y79107D01*
X91622D01*
Y80603D01*
X92575D01*
X92772Y80406D01*
Y77295D01*
X92575Y77099D01*
X89425D01*
X89228Y77295D01*
Y80406D01*
X89425Y80603D01*
G37*
G36*
G01X89228Y86705D02*
Y83555D01*
X89425Y83358D01*
X90323D01*
Y84815D01*
X91622D01*
Y83358D01*
X92575D01*
X92772Y83555D01*
Y86705D01*
X92575Y86902D01*
X89425D01*
X89228Y86705D01*
G37*
G36*
G01X98772Y63795D02*
Y66945D01*
X98575Y67142D01*
X97677D01*
Y65685D01*
X96378D01*
Y67142D01*
X95425D01*
X95228Y66945D01*
Y63795D01*
X95425Y63598D01*
X98575D01*
X98772Y63795D01*
G37*
G36*
G01X98575Y69897D02*
X97677D01*
Y71393D01*
X96378D01*
Y69897D01*
X95425D01*
X95228Y70094D01*
Y73205D01*
X95425Y73401D01*
X98575D01*
X98772Y73205D01*
Y70094D01*
X98575Y69897D01*
G37*
G36*
G01X95425Y80603D02*
X96323D01*
Y79107D01*
X97622D01*
Y80603D01*
X98575D01*
X98772Y80406D01*
Y77295D01*
X98575Y77099D01*
X95425D01*
X95228Y77295D01*
Y80406D01*
X95425Y80603D01*
G37*
G36*
G01X95228Y86705D02*
Y83555D01*
X95425Y83358D01*
X96323D01*
Y84815D01*
X97622D01*
Y83358D01*
X98575D01*
X98772Y83555D01*
Y86705D01*
X98575Y86902D01*
X95425D01*
X95228Y86705D01*
G37*
G36*
G01X110603Y182075D02*
Y181177D01*
X109107D01*
Y179878D01*
X110603D01*
Y178925D01*
X110406Y178728D01*
X107295D01*
X107099Y178925D01*
Y182075D01*
X107295Y182272D01*
X110406D01*
X110603Y182075D01*
G37*
G36*
G01X107295Y184728D02*
X110445D01*
X110642Y184925D01*
Y185823D01*
X109185D01*
Y187122D01*
X110642D01*
Y188075D01*
X110445Y188272D01*
X107295D01*
X107098Y188075D01*
Y184925D01*
X107295Y184728D01*
G37*
G36*
G01Y190728D02*
X110445D01*
X110642Y190925D01*
Y191823D01*
X109185D01*
Y193122D01*
X110642D01*
Y194075D01*
X110445Y194272D01*
X107295D01*
X107098Y194075D01*
Y190925D01*
X107295Y190728D01*
G37*
G36*
G01Y196728D02*
X110445D01*
X110642Y196925D01*
Y197823D01*
X109185D01*
Y199122D01*
X110642D01*
Y200075D01*
X110445Y200272D01*
X107295D01*
X107098Y200075D01*
Y196925D01*
X107295Y196728D01*
G37*
G36*
G01X116705Y182272D02*
X113555D01*
X113358Y182075D01*
Y181177D01*
X114815D01*
Y179878D01*
X113358D01*
Y178925D01*
X113555Y178728D01*
X116705D01*
X116902Y178925D01*
Y182075D01*
X116705Y182272D01*
G37*
G36*
G01X113397Y184925D02*
Y185823D01*
X114893D01*
Y187122D01*
X113397D01*
Y188075D01*
X113594Y188272D01*
X116705D01*
X116901Y188075D01*
Y184925D01*
X116705Y184728D01*
X113594D01*
X113397Y184925D01*
G37*
G36*
G01Y190925D02*
Y191823D01*
X114893D01*
Y193122D01*
X113397D01*
Y194075D01*
X113594Y194272D01*
X116705D01*
X116901Y194075D01*
Y190925D01*
X116705Y190728D01*
X113594D01*
X113397Y190925D01*
G37*
G36*
G01Y196925D02*
Y197823D01*
X114893D01*
Y199122D01*
X113397D01*
Y200075D01*
X113594Y200272D01*
X116705D01*
X116901Y200075D01*
Y196925D01*
X116705Y196728D01*
X113594D01*
X113397Y196925D01*
G37*
G36*
G01X122728Y78705D02*
Y75555D01*
X122925Y75358D01*
X123823D01*
Y76815D01*
X125122D01*
Y75358D01*
X126075D01*
X126272Y75555D01*
Y78705D01*
X126075Y78902D01*
X122925D01*
X122728Y78705D01*
G37*
G36*
G01X122925Y72603D02*
X123823D01*
Y71107D01*
X125122D01*
Y72603D01*
X126075D01*
X126272Y72406D01*
Y69295D01*
X126075Y69099D01*
X122925D01*
X122728Y69295D01*
Y72406D01*
X122925Y72603D01*
G37*
G36*
G01X123795Y82728D02*
X126945D01*
X127142Y82925D01*
Y83823D01*
X125685D01*
Y85122D01*
X127142D01*
Y86075D01*
X126945Y86272D01*
X123795D01*
X123598Y86075D01*
Y82925D01*
X123795Y82728D01*
G37*
G36*
G01X129897Y82925D02*
Y83823D01*
X131393D01*
Y85122D01*
X129897D01*
Y86075D01*
X130094Y86272D01*
X133205D01*
X133401Y86075D01*
Y82925D01*
X133205Y82728D01*
X130094D01*
X129897Y82925D01*
G37*
G36*
G01X166772Y65295D02*
Y68445D01*
X166575Y68642D01*
X165677D01*
Y67185D01*
X164378D01*
Y68642D01*
X163425D01*
X163228Y68445D01*
Y65295D01*
X163425Y65098D01*
X166575D01*
X166772Y65295D01*
G37*
G36*
G01X166575Y71397D02*
X165677D01*
Y72893D01*
X164378D01*
Y71397D01*
X163425D01*
X163228Y71594D01*
Y74705D01*
X163425Y74901D01*
X166575D01*
X166772Y74705D01*
Y71594D01*
X166575Y71397D01*
G37*
G36*
G01X173772Y65295D02*
Y68445D01*
X173575Y68642D01*
X172677D01*
Y67185D01*
X171378D01*
Y68642D01*
X170425D01*
X170228Y68445D01*
Y65295D01*
X170425Y65098D01*
X173575D01*
X173772Y65295D01*
G37*
G36*
G01X173575Y71397D02*
X172677D01*
Y72893D01*
X171378D01*
Y71397D01*
X170425D01*
X170228Y71594D01*
Y74705D01*
X170425Y74901D01*
X173575D01*
X173772Y74705D01*
Y71594D01*
X173575Y71397D01*
G37*
G36*
G01X180772Y65295D02*
Y68445D01*
X180575Y68642D01*
X179677D01*
Y67185D01*
X178378D01*
Y68642D01*
X177425D01*
X177228Y68445D01*
Y65295D01*
X177425Y65098D01*
X180575D01*
X180772Y65295D01*
G37*
G36*
G01X180575Y71397D02*
X179677D01*
Y72893D01*
X178378D01*
Y71397D01*
X177425D01*
X177228Y71594D01*
Y74705D01*
X177425Y74901D01*
X180575D01*
X180772Y74705D01*
Y71594D01*
X180575Y71397D01*
G37*
G36*
G01X189772Y65295D02*
Y68445D01*
X189575Y68642D01*
X188677D01*
Y67185D01*
X187378D01*
Y68642D01*
X186425D01*
X186228Y68445D01*
Y65295D01*
X186425Y65098D01*
X189575D01*
X189772Y65295D01*
G37*
G36*
G01X189575Y71397D02*
X188677D01*
Y72893D01*
X187378D01*
Y71397D01*
X186425D01*
X186228Y71594D01*
Y74705D01*
X186425Y74901D01*
X189575D01*
X189772Y74705D01*
Y71594D01*
X189575Y71397D01*
G37*
G36*
G01X196772Y65295D02*
Y68445D01*
X196575Y68642D01*
X195677D01*
Y67185D01*
X194378D01*
Y68642D01*
X193425D01*
X193228Y68445D01*
Y65295D01*
X193425Y65098D01*
X196575D01*
X196772Y65295D01*
G37*
G36*
G01X196575Y71397D02*
X195677D01*
Y72893D01*
X194378D01*
Y71397D01*
X193425D01*
X193228Y71594D01*
Y74705D01*
X193425Y74901D01*
X196575D01*
X196772Y74705D01*
Y71594D01*
X196575Y71397D01*
G37*
G36*
G01X206925Y119103D02*
X207823D01*
Y117607D01*
X209122D01*
Y119103D01*
X210075D01*
X210272Y118906D01*
Y115795D01*
X210075Y115599D01*
X206925D01*
X206728Y115795D01*
Y118906D01*
X206925Y119103D01*
G37*
G36*
G01X206728Y125205D02*
Y122055D01*
X206925Y121858D01*
X207823D01*
Y123315D01*
X209122D01*
Y121858D01*
X210075D01*
X210272Y122055D01*
Y125205D01*
X210075Y125402D01*
X206925D01*
X206728Y125205D01*
G37*
G36*
G01X206925Y132603D02*
X207823D01*
Y131107D01*
X209122D01*
Y132603D01*
X210075D01*
X210272Y132406D01*
Y129295D01*
X210075Y129099D01*
X206925D01*
X206728Y129295D01*
Y132406D01*
X206925Y132603D01*
G37*
G36*
G01X206728Y138705D02*
Y135555D01*
X206925Y135358D01*
X207823D01*
Y136815D01*
X209122D01*
Y135358D01*
X210075D01*
X210272Y135555D01*
Y138705D01*
X210075Y138902D01*
X206925D01*
X206728Y138705D01*
G37*
G36*
G01X216925Y213103D02*
X217823D01*
Y211607D01*
X219122D01*
Y213103D01*
X220075D01*
X220272Y212906D01*
Y209795D01*
X220075Y209599D01*
X216925D01*
X216728Y209795D01*
Y212906D01*
X216925Y213103D01*
G37*
G36*
G01X210925D02*
X211823D01*
Y211607D01*
X213122D01*
Y213103D01*
X214075D01*
X214272Y212906D01*
Y209795D01*
X214075Y209599D01*
X210925D01*
X210728Y209795D01*
Y212906D01*
X210925Y213103D01*
G37*
G36*
G01X216728Y219205D02*
Y216055D01*
X216925Y215858D01*
X217823D01*
Y217315D01*
X219122D01*
Y215858D01*
X220075D01*
X220272Y216055D01*
Y219205D01*
X220075Y219402D01*
X216925D01*
X216728Y219205D01*
G37*
G36*
G01X210728D02*
Y216055D01*
X210925Y215858D01*
X211823D01*
Y217315D01*
X213122D01*
Y215858D01*
X214075D01*
X214272Y216055D01*
Y219205D01*
X214075Y219402D01*
X210925D01*
X210728Y219205D01*
G37*
G36*
G01X219295Y108228D02*
X222445D01*
X222642Y108425D01*
Y109323D01*
X221185D01*
Y110622D01*
X222642D01*
Y111575D01*
X222445Y111772D01*
X219295D01*
X219098Y111575D01*
Y108425D01*
X219295Y108228D01*
G37*
G36*
G01X222925Y213103D02*
X223823D01*
Y211607D01*
X225122D01*
Y213103D01*
X226075D01*
X226272Y212906D01*
Y209795D01*
X226075Y209599D01*
X222925D01*
X222728Y209795D01*
Y212906D01*
X222925Y213103D01*
G37*
G36*
G01X222728Y219205D02*
Y216055D01*
X222925Y215858D01*
X223823D01*
Y217315D01*
X225122D01*
Y215858D01*
X226075D01*
X226272Y216055D01*
Y219205D01*
X226075Y219402D01*
X222925D01*
X222728Y219205D01*
G37*
G36*
G01X225397Y108425D02*
Y109323D01*
X226893D01*
Y110622D01*
X225397D01*
Y111575D01*
X225594Y111772D01*
X228705D01*
X228901Y111575D01*
Y108425D01*
X228705Y108228D01*
X225594D01*
X225397Y108425D01*
G37*
G36*
G01X228925Y213103D02*
X229823D01*
Y211607D01*
X231122D01*
Y213103D01*
X232075D01*
X232272Y212906D01*
Y209795D01*
X232075Y209599D01*
X228925D01*
X228728Y209795D01*
Y212906D01*
X228925Y213103D01*
G37*
G36*
G01X228728Y219205D02*
Y216055D01*
X228925Y215858D01*
X229823D01*
Y217315D01*
X231122D01*
Y215858D01*
X232075D01*
X232272Y216055D01*
Y219205D01*
X232075Y219402D01*
X228925D01*
X228728Y219205D01*
G37*
G36*
G01X234925Y213103D02*
X235823D01*
Y211607D01*
X237122D01*
Y213103D01*
X238075D01*
X238272Y212906D01*
Y209795D01*
X238075Y209599D01*
X234925D01*
X234728Y209795D01*
Y212906D01*
X234925Y213103D01*
G37*
G36*
G01X234728Y219205D02*
Y216055D01*
X234925Y215858D01*
X235823D01*
Y217315D01*
X237122D01*
Y215858D01*
X238075D01*
X238272Y216055D01*
Y219205D01*
X238075Y219402D01*
X234925D01*
X234728Y219205D01*
G37*
G36*
G01X240925Y213103D02*
X241823D01*
Y211607D01*
X243122D01*
Y213103D01*
X244075D01*
X244272Y212906D01*
Y209795D01*
X244075Y209599D01*
X240925D01*
X240728Y209795D01*
Y212906D01*
X240925Y213103D01*
G37*
G36*
G01X240728Y219205D02*
Y216055D01*
X240925Y215858D01*
X241823D01*
Y217315D01*
X243122D01*
Y215858D01*
X244075D01*
X244272Y216055D01*
Y219205D01*
X244075Y219402D01*
X240925D01*
X240728Y219205D01*
G37*
G36*
G01X256103Y75575D02*
Y74677D01*
X254607D01*
Y73378D01*
X256103D01*
Y72425D01*
X255906Y72228D01*
X252795D01*
X252599Y72425D01*
Y75575D01*
X252795Y75772D01*
X255906D01*
X256103Y75575D01*
G37*
G36*
G01X262205Y75772D02*
X259055D01*
X258858Y75575D01*
Y74677D01*
X260315D01*
Y73378D01*
X258858D01*
Y72425D01*
X259055Y72228D01*
X262205D01*
X262402Y72425D01*
Y75575D01*
X262205Y75772D01*
G37*
G36*
G01X278795Y169728D02*
X281945D01*
X282142Y169925D01*
Y170823D01*
X280685D01*
Y172122D01*
X282142D01*
Y173075D01*
X281945Y173272D01*
X278795D01*
X278598Y173075D01*
Y169925D01*
X278795Y169728D01*
G37*
G36*
G01X284897Y169925D02*
Y170823D01*
X286393D01*
Y172122D01*
X284897D01*
Y173075D01*
X285094Y173272D01*
X288205D01*
X288401Y173075D01*
Y169925D01*
X288205Y169728D01*
X285094D01*
X284897Y169925D01*
G37*
G36*
G01X36917Y27165D02*
Y31850D01*
X38886D01*
Y27165D01*
X36917D01*
G37*
G36*
G01X40067D02*
Y31850D01*
X42036D01*
Y27165D01*
X40067D01*
G37*
G36*
G01X43020Y26968D02*
Y32047D01*
X44201D01*
Y26968D01*
X43020D01*
G37*
G36*
G01X44989D02*
Y32047D01*
X46170D01*
Y26968D01*
X44989D01*
G37*
G36*
G01X45743Y69775D02*
Y67413D01*
X44956D01*
Y69775D01*
X45743D01*
G37*
G36*
G01X43775Y71743D02*
Y70956D01*
X41413D01*
Y71743D01*
X43775D01*
G37*
G36*
G01Y73318D02*
Y72531D01*
X41413D01*
Y73318D01*
X43775D01*
G37*
G36*
G01Y74893D02*
Y74106D01*
X41413D01*
Y74893D01*
X43775D01*
G37*
G36*
G01Y76468D02*
Y75681D01*
X41413D01*
Y76468D01*
X43775D01*
G37*
G36*
G01Y78043D02*
Y77256D01*
X41413D01*
Y78043D01*
X43775D01*
G37*
G36*
G01X45744Y81586D02*
Y79224D01*
X44957D01*
Y81586D01*
X45744D01*
G37*
G36*
G01X50894Y26968D02*
Y32047D01*
X52075D01*
Y26968D01*
X50894D01*
G37*
G36*
G01X48926D02*
Y32047D01*
X50107D01*
Y26968D01*
X48926D01*
G37*
G36*
G01X46957D02*
Y32047D01*
X48138D01*
Y26968D01*
X46957D01*
G37*
G36*
G01X52043Y69775D02*
Y67413D01*
X51256D01*
Y69775D01*
X52043D01*
G37*
G36*
G01X50468D02*
Y67413D01*
X49681D01*
Y69775D01*
X50468D01*
G37*
G36*
G01X48893D02*
Y67413D01*
X48106D01*
Y69775D01*
X48893D01*
G37*
G36*
G01X47318D02*
Y67413D01*
X46531D01*
Y69775D01*
X47318D01*
G37*
G36*
G01X51178Y77177D02*
Y71822D01*
X45823D01*
Y77177D01*
X51178D01*
G37*
G36*
G01X52044Y81586D02*
Y79224D01*
X51257D01*
Y81586D01*
X52044D01*
G37*
G36*
G01X50469D02*
Y79224D01*
X49682D01*
Y81586D01*
X50469D01*
G37*
G36*
G01X48894D02*
Y79224D01*
X48107D01*
Y81586D01*
X48894D01*
G37*
G36*
G01X47319D02*
Y79224D01*
X46532D01*
Y81586D01*
X47319D01*
G37*
G36*
G01X56800Y26968D02*
Y32047D01*
X57981D01*
Y26968D01*
X56800D01*
G37*
G36*
G01X52863D02*
Y32047D01*
X54044D01*
Y26968D01*
X52863D01*
G37*
G36*
G01X54830D02*
Y32047D01*
X56011D01*
Y26968D01*
X54830D01*
G37*
G36*
G01X55587Y71743D02*
Y70956D01*
X53224D01*
Y71743D01*
X55587D01*
G37*
G36*
G01Y73318D02*
Y72531D01*
X53224D01*
Y73318D01*
X55587D01*
G37*
G36*
G01Y74893D02*
Y74106D01*
X53224D01*
Y74893D01*
X55587D01*
G37*
G36*
G01Y76468D02*
Y75681D01*
X53224D01*
Y76468D01*
X55587D01*
G37*
G36*
G01Y78043D02*
Y77256D01*
X53224D01*
Y78043D01*
X55587D01*
G37*
G36*
G01X62115Y27165D02*
Y31850D01*
X64084D01*
Y27165D01*
X62115D01*
G37*
G36*
G01X58965Y27164D02*
Y31849D01*
X60934D01*
Y27164D01*
X58965D01*
G37*
G36*
G01X139389Y101859D02*
Y101071D01*
X136240D01*
Y101859D01*
X139389D01*
G37*
G36*
G01Y108158D02*
Y107370D01*
X136240D01*
Y108158D01*
X139389D01*
G37*
G36*
G01Y106583D02*
Y105795D01*
X136240D01*
Y106583D01*
X139389D01*
G37*
G36*
G01Y105008D02*
Y104220D01*
X136240D01*
Y105008D01*
X139389D01*
G37*
G36*
G01Y103433D02*
Y102645D01*
X136240D01*
Y103433D01*
X139389D01*
G37*
G36*
G01Y114457D02*
Y113669D01*
X136240D01*
Y114457D01*
X139389D01*
G37*
G36*
G01Y112882D02*
Y112094D01*
X136240D01*
Y112882D01*
X139389D01*
G37*
G36*
G01Y111307D02*
Y110519D01*
X136240D01*
Y111307D01*
X139389D01*
G37*
G36*
G01Y109733D02*
Y108945D01*
X136240D01*
Y109733D01*
X139389D01*
G37*
G36*
G01Y122331D02*
Y121543D01*
X136240D01*
Y122331D01*
X139389D01*
G37*
G36*
G01Y120756D02*
Y119968D01*
X136240D01*
Y120756D01*
X139389D01*
G37*
G36*
G01Y119181D02*
Y118393D01*
X136240D01*
Y119181D01*
X139389D01*
G37*
G36*
G01Y117607D02*
Y116819D01*
X136240D01*
Y117607D01*
X139389D01*
G37*
G36*
G01Y116032D02*
Y115244D01*
X136240D01*
Y116032D01*
X139389D01*
G37*
G36*
G01Y128630D02*
Y127842D01*
X136240D01*
Y128630D01*
X139389D01*
G37*
G36*
G01Y127055D02*
Y126267D01*
X136240D01*
Y127055D01*
X139389D01*
G37*
G36*
G01Y125481D02*
Y124693D01*
X136240D01*
Y125481D01*
X139389D01*
G37*
G36*
G01Y123906D02*
Y123118D01*
X136240D01*
Y123906D01*
X139389D01*
G37*
G36*
G01Y134929D02*
Y134141D01*
X136240D01*
Y134929D01*
X139389D01*
G37*
G36*
G01Y133355D02*
Y132567D01*
X136240D01*
Y133355D01*
X139389D01*
G37*
G36*
G01Y131780D02*
Y130992D01*
X136240D01*
Y131780D01*
X139389D01*
G37*
G36*
G01Y130205D02*
Y129417D01*
X136240D01*
Y130205D01*
X139389D01*
G37*
G36*
G01X141358Y99890D02*
Y96740D01*
X140571D01*
Y99890D01*
X141358D01*
G37*
G36*
G01X142932D02*
Y96740D01*
X142145D01*
Y99890D01*
X142932D01*
G37*
G36*
G01X144507D02*
Y96740D01*
X143720D01*
Y99890D01*
X144507D01*
G37*
G36*
G01Y139260D02*
Y136110D01*
X143720D01*
Y139260D01*
X144507D01*
G37*
G36*
G01X142932D02*
Y136110D01*
X142145D01*
Y139260D01*
X142932D01*
G37*
G36*
G01X141358D02*
Y136110D01*
X140571D01*
Y139260D01*
X141358D01*
G37*
G36*
G01X146082Y99890D02*
Y96740D01*
X145295D01*
Y99890D01*
X146082D01*
G37*
G36*
G01X147657D02*
Y96740D01*
X146870D01*
Y99890D01*
X147657D01*
G37*
G36*
G01X149232D02*
Y96740D01*
X148445D01*
Y99890D01*
X149232D01*
G37*
G36*
G01X150806D02*
Y96740D01*
X150019D01*
Y99890D01*
X150806D01*
G37*
G36*
G01X168130Y128630D02*
Y107370D01*
X146870D01*
Y128630D01*
X168130D01*
G37*
G36*
G01X150806Y139260D02*
Y136110D01*
X150019D01*
Y139260D01*
X150806D01*
G37*
G36*
G01X149232D02*
Y136110D01*
X148445D01*
Y139260D01*
X149232D01*
G37*
G36*
G01X147657D02*
Y136110D01*
X146870D01*
Y139260D01*
X147657D01*
G37*
G36*
G01X146082D02*
Y136110D01*
X145295D01*
Y139260D01*
X146082D01*
G37*
G36*
G01X152381Y99890D02*
Y96740D01*
X151594D01*
Y99890D01*
X152381D01*
G37*
G36*
G01X153956D02*
Y96740D01*
X153169D01*
Y99890D01*
X153956D01*
G37*
G36*
G01X155531D02*
Y96740D01*
X154744D01*
Y99890D01*
X155531D01*
G37*
G36*
G01X157106D02*
Y96740D01*
X156319D01*
Y99890D01*
X157106D01*
G37*
G36*
G01Y139260D02*
Y136110D01*
X156319D01*
Y139260D01*
X157106D01*
G37*
G36*
G01X155531D02*
Y136110D01*
X154744D01*
Y139260D01*
X155531D01*
G37*
G36*
G01X153956D02*
Y136110D01*
X153169D01*
Y139260D01*
X153956D01*
G37*
G36*
G01X152381D02*
Y136110D01*
X151594D01*
Y139260D01*
X152381D01*
G37*
G36*
G01X158680Y99890D02*
Y96740D01*
X157893D01*
Y99890D01*
X158680D01*
G37*
G36*
G01X160255D02*
Y96740D01*
X159468D01*
Y99890D01*
X160255D01*
G37*
G36*
G01X161830D02*
Y96740D01*
X161043D01*
Y99890D01*
X161830D01*
G37*
G36*
G01X163405D02*
Y96740D01*
X162618D01*
Y99890D01*
X163405D01*
G37*
G36*
G01X164980D02*
Y96740D01*
X164193D01*
Y99890D01*
X164980D01*
G37*
G36*
G01Y139260D02*
Y136110D01*
X164193D01*
Y139260D01*
X164980D01*
G37*
G36*
G01X163405D02*
Y136110D01*
X162618D01*
Y139260D01*
X163405D01*
G37*
G36*
G01X161830D02*
Y136110D01*
X161043D01*
Y139260D01*
X161830D01*
G37*
G36*
G01X160255D02*
Y136110D01*
X159468D01*
Y139260D01*
X160255D01*
G37*
G36*
G01X158680D02*
Y136110D01*
X157893D01*
Y139260D01*
X158680D01*
G37*
G36*
G01X166554Y99890D02*
Y96740D01*
X165767D01*
Y99890D01*
X166554D01*
G37*
G36*
G01X168129D02*
Y96740D01*
X167342D01*
Y99890D01*
X168129D01*
G37*
G36*
G01X169704D02*
Y96740D01*
X168917D01*
Y99890D01*
X169704D01*
G37*
G36*
G01X171279D02*
Y96740D01*
X170492D01*
Y99890D01*
X171279D01*
G37*
G36*
G01Y139260D02*
Y136110D01*
X170492D01*
Y139260D01*
X171279D01*
G37*
G36*
G01X169704D02*
Y136110D01*
X168917D01*
Y139260D01*
X169704D01*
G37*
G36*
G01X168129D02*
Y136110D01*
X167342D01*
Y139260D01*
X168129D01*
G37*
G36*
G01X166554D02*
Y136110D01*
X165767D01*
Y139260D01*
X166554D01*
G37*
G36*
G01X172854Y99890D02*
Y96740D01*
X172067D01*
Y99890D01*
X172854D01*
G37*
G36*
G01X174428D02*
Y96740D01*
X173641D01*
Y99890D01*
X174428D01*
G37*
G36*
G01X178760Y101859D02*
Y101071D01*
X175610D01*
Y101859D01*
X178760D01*
G37*
G36*
G01Y103433D02*
Y102645D01*
X175610D01*
Y103433D01*
X178760D01*
G37*
G36*
G01Y105008D02*
Y104220D01*
X175610D01*
Y105008D01*
X178760D01*
G37*
G36*
G01Y106583D02*
Y105795D01*
X175610D01*
Y106583D01*
X178760D01*
G37*
G36*
G01Y108158D02*
Y107370D01*
X175610D01*
Y108158D01*
X178760D01*
G37*
G36*
G01Y109733D02*
Y108945D01*
X175610D01*
Y109733D01*
X178760D01*
G37*
G36*
G01Y111307D02*
Y110519D01*
X175610D01*
Y111307D01*
X178760D01*
G37*
G36*
G01Y112882D02*
Y112094D01*
X175610D01*
Y112882D01*
X178760D01*
G37*
G36*
G01Y114457D02*
Y113669D01*
X175610D01*
Y114457D01*
X178760D01*
G37*
G36*
G01Y116032D02*
Y115244D01*
X175610D01*
Y116032D01*
X178760D01*
G37*
G36*
G01Y117607D02*
Y116819D01*
X175610D01*
Y117607D01*
X178760D01*
G37*
G36*
G01Y119181D02*
Y118393D01*
X175610D01*
Y119181D01*
X178760D01*
G37*
G36*
G01Y120756D02*
Y119968D01*
X175610D01*
Y120756D01*
X178760D01*
G37*
G36*
G01Y122331D02*
Y121543D01*
X175610D01*
Y122331D01*
X178760D01*
G37*
G36*
G01Y123906D02*
Y123118D01*
X175610D01*
Y123906D01*
X178760D01*
G37*
G36*
G01Y125481D02*
Y124693D01*
X175610D01*
Y125481D01*
X178760D01*
G37*
G36*
G01Y127055D02*
Y126267D01*
X175610D01*
Y127055D01*
X178760D01*
G37*
G36*
G01Y128630D02*
Y127842D01*
X175610D01*
Y128630D01*
X178760D01*
G37*
G36*
G01Y130205D02*
Y129417D01*
X175610D01*
Y130205D01*
X178760D01*
G37*
G36*
G01Y131780D02*
Y130992D01*
X175610D01*
Y131780D01*
X178760D01*
G37*
G36*
G01Y133355D02*
Y132567D01*
X175610D01*
Y133355D01*
X178760D01*
G37*
G36*
G01Y134929D02*
Y134141D01*
X175610D01*
Y134929D01*
X178760D01*
G37*
G36*
G01X174428Y139260D02*
Y136110D01*
X173641D01*
Y139260D01*
X174428D01*
G37*
G36*
G01X172854D02*
Y136110D01*
X172067D01*
Y139260D01*
X172854D01*
G37*
G54D10*
X17516Y96500D03*
X33484D03*
X63016Y51000D03*
X62016Y96500D03*
X78984Y51000D03*
X77984Y96500D03*
G54D20*
X239508Y95500D03*
Y100500D03*
Y105500D03*
Y110500D03*
Y115500D03*
X239507Y120500D03*
Y125500D03*
Y130500D03*
Y135500D03*
Y140500D03*
G54D11*
X26756Y76000D03*
X21244D03*
Y132500D03*
X26756D03*
X24244Y163000D03*
X28244Y48000D03*
X33756D03*
X32744Y109000D03*
X29756Y163000D03*
X36744Y63500D03*
X38256Y109000D03*
X42256Y63500D03*
X48244Y37000D03*
X53756D03*
X56744Y109000D03*
X60744Y36500D03*
X66256D03*
X62256Y109000D03*
X112744Y113500D03*
Y120500D03*
Y127500D03*
Y134500D03*
X109244Y205000D03*
X118756Y101500D03*
X113244D03*
X118256Y113500D03*
Y120500D03*
Y127500D03*
Y134500D03*
X114756Y205000D03*
X131744Y9500D03*
X137256D03*
X146256Y86000D03*
X140744D03*
X158756D03*
X153244D03*
X184744Y99000D03*
X185244Y107000D03*
Y114000D03*
Y121000D03*
X190256Y99000D03*
X190756Y107000D03*
Y114000D03*
Y121000D03*
X195244Y205500D03*
X200756D03*
X209244Y103000D03*
Y110000D03*
X214756Y103000D03*
Y110000D03*
X280244Y165000D03*
X285756D03*
X293244D03*
X298756D03*
G54D12*
X26500Y138638D03*
X22760Y148362D03*
X30240D03*
G54D21*
X245493Y82568D03*
Y153433D03*
X250493Y82568D03*
Y153433D03*
X255493Y82568D03*
Y153433D03*
X265493Y82568D03*
X260493D03*
Y153433D03*
X265493D03*
X270492Y82568D03*
Y153433D03*
X275492Y82568D03*
Y153433D03*
X280492Y82568D03*
Y153433D03*
X290492Y82568D03*
X285492D03*
Y153433D03*
X290492D03*
X295492Y82568D03*
Y153433D03*
X300492Y82568D03*
Y153433D03*
X310493Y82568D03*
X305492D03*
Y153433D03*
X310493D03*
G54D13*
X33050Y232020D03*
X39350Y232040D03*
G54D22*
X255488Y171500D03*
X271512D03*
G54D14*
X52000Y216488D03*
Y232512D03*
X66000Y216488D03*
Y232512D03*
X219000Y117488D03*
Y133512D03*
G54D23*
X279114Y123708D03*
G54D24*
G01X0Y231220D02*
Y5000D01*
G03X5000Y0I5000J0D01*
G01X309961D01*
G03X314961Y5000I0J5000D01*
G01Y231220D01*
G03X309961Y236220I-5000J0D01*
G01X5000D01*
G03X0Y231220I0J-5000D01*
G54D15*
X84500Y65744D03*
Y71256D03*
Y79244D03*
Y84756D03*
X86000Y136244D03*
Y141756D03*
Y148744D03*
Y154256D03*
X102000Y99244D03*
Y104756D03*
X135000Y72744D03*
Y78256D03*
X138000Y149744D03*
Y155256D03*
X145500Y149744D03*
Y155256D03*
X169500Y149244D03*
Y154756D03*
X176500Y149244D03*
Y154756D03*
X202500Y103744D03*
Y109256D03*
X202000Y118244D03*
Y123756D03*
Y130744D03*
Y136256D03*
G54D16*
X88000Y9191D03*
Y31809D03*
X98000Y9191D03*
X93000D03*
Y31809D03*
X98000D03*
X103000Y9191D03*
Y31809D03*
X108000Y9191D03*
Y31809D03*
X118000Y9191D03*
X113000D03*
Y31809D03*
X118000D03*
X123000Y9191D03*
Y31809D03*
G54D17*
X112382Y225547D03*
X202618D03*
G54D18*
X119114Y212469D03*
X121083D03*
X123052D03*
X125022D03*
X126991D03*
X128960D03*
X130929D03*
X132898D03*
X134867D03*
X136836D03*
X138806D03*
X140775D03*
X142744D03*
X144713D03*
X146682Y212464D03*
X148651Y212466D03*
X150619Y212470D03*
X152587Y212469D03*
X154555D03*
X156523Y212457D03*
X158492D03*
X160460D03*
X162428D03*
X164396D03*
X166364D03*
X168332Y212454D03*
X170300Y212453D03*
X172269Y212457D03*
X174237Y212456D03*
X176205Y212454D03*
X178173Y212457D03*
X180141D03*
X182109D03*
X184077D03*
X186046D03*
X188014D03*
X189982D03*
X191950D03*
X193918D03*
X195886D03*
G54D19*
X144669Y72055D03*
Y78945D03*
X153331Y72055D03*
Y78945D03*
M02*
